<svg xmlns="http://www.w3.org/2000/svg" viewBox="0 0 1200 630"><defs><pattern id="a" width="40" height="40" patternUnits="userSpaceOnUse"><path fill="#39ff14" d="M0 0h20v20H0zM20 20h20v20H20z" opacity=".12"/></pattern><pattern id="b" width="4" height="4" patternUnits="userSpaceOnUse"><path stroke="#39ff14" d="M0 0h4" opacity=".07"/></pattern><linearGradient id="c" x1="0%" x2="100%" y1="0%" y2="0%"><stop offset="0%" stop-color="#39ff14"/><stop offset="50%" stop-color="#e6ff00"/><stop offset="100%" stop-color="#ff6ec7"/></linearGradient></defs><path fill="#0a0a0a" d="M0 0h1200v630H0z"/><path fill="url(#a)" d="M0 0h300v200H0z"/><path fill="url(#b)" d="M0 0h1200v630H0z"/><rect width="260" height="170" x="77" y="77" fill="#ff6ec7" opacity=".4" rx="8"/><rect width="260" height="170" x="83" y="73" fill="#e6ff00" opacity=".3" rx="8"/><rect width="260" height="170" x="80" y="80" fill="#1a1a1a" stroke="#39ff14" stroke-width="1.5" rx="8"/><rect width="90" height="8" x="105" y="110" fill="url(#c)" rx="4"/><rect width="200" height="5" x="105" y="130" fill="#333" rx="2"/><rect width="170" height="5" x="105" y="143" fill="#333" rx="2"/><rect width="185" height="5" x="105" y="156" fill="#333" rx="2"/><rect width="100" height="5" x="105" y="176" fill="#333" rx="2"/><rect width="80" height="26" x="105" y="200" fill="none" stroke="#39ff14" stroke-width="1.5" rx="4"/><rect width="60" height="8" x="115" y="209" fill="#39ff14" opacity=".7" rx="4"/><rect width="260" height="170" x="857" y="77" fill="#ff6ec7" opacity=".4" rx="8"/><rect width="260" height="170" x="863" y="73" fill="#e6ff00" opacity=".3" rx="8"/><rect width="260" height="170" x="860" y="80" fill="#1a1a1a" stroke="#a020f0" stroke-width="1.5" rx="8"/><rect width="100" height="8" x="885" y="110" fill="url(#c)" rx="4"/><rect width="210" height="5" x="885" y="130" fill="#333" rx="2"/><rect width="180" height="5" x="885" y="143" fill="#333" rx="2"/><rect width="210" height="8" x="885" y="165" fill="#222" rx="4"/><rect width="140" height="8" x="885" y="165" fill="#a020f0" rx="4"/><rect width="50" height="5" x="885" y="190" fill="#333" rx="2"/><rect width="50" height="5" x="945" y="190" fill="#333" rx="2"/><rect width="50" height="5" x="1005" y="190" fill="#333" rx="2"/><rect width="80" height="22" x="885" y="210" fill="none" stroke="#e6ff00" stroke-width="1.5" rx="4"/><rect width="60" height="8" x="895" y="217" fill="#e6ff00" opacity=".7" rx="4"/><rect width="260" height="170" x="77" y="397" fill="#ff6ec7" opacity=".4" rx="8"/><rect width="260" height="170" x="83" y="393" fill="#e6ff00" opacity=".3" rx="8"/><rect width="260" height="170" x="80" y="400" fill="#1a1a1a" stroke="#ff6ec7" stroke-width="1.5" rx="8"/><rect width="80" height="8" x="105" y="430" fill="url(#c)" rx="4"/><rect width="200" height="5" x="105" y="450" fill="#333" rx="2"/><rect width="160" height="5" x="105" y="463" fill="#333" rx="2"/><rect width="190" height="5" x="105" y="476" fill="#333" rx="2"/><rect width="70" height="22" x="105" y="500" fill="#39ff14" stroke="#39ff14" opacity=".2" rx="4"/><rect width="70" height="22" x="185" y="500" fill="none" stroke="#ff6ec7" rx="4"/><rect width="260" height="170" x="857" y="397" fill="#ff6ec7" opacity=".4" rx="8"/><rect width="260" height="170" x="863" y="393" fill="#e6ff00" opacity=".3" rx="8"/><rect width="260" height="170" x="860" y="400" fill="#1a1a1a" stroke="#e6ff00" stroke-width="1.5" rx="8"/><rect width="110" height="8" x="885" y="430" fill="url(#c)" rx="4"/><rect width="210" height="5" x="885" y="450" fill="#333" rx="2"/><rect width="175" height="5" x="885" y="463" fill="#333" rx="2"/><rect width="30" height="45" x="885" y="490" fill="#39ff14" opacity=".5" rx="2"/><rect width="30" height="30" x="925" y="505" fill="#a020f0" opacity=".5" rx="2"/><rect width="30" height="40" x="965" y="495" fill="#ff6ec7" opacity=".5" rx="2"/><rect width="30" height="25" x="1005" y="510" fill="#e6ff00" opacity=".5" rx="2"/><rect width="30" height="35" x="1045" y="500" fill="#39ff14" opacity=".5" rx="2"/><text x="603" y="302" fill="#ff6ec7" font-family="ui-monospace, 'Courier New', monospace" font-size="52" font-weight="900" letter-spacing="4" opacity=".5" text-anchor="middle">ACID GRAPHICS</text><text x="597" y="298" fill="#e6ff00" font-family="ui-monospace, 'Courier New', monospace" font-size="52" font-weight="900" letter-spacing="4" opacity=".4" text-anchor="middle">ACID GRAPHICS</text><text x="600" y="300" fill="#39ff14" font-family="ui-monospace, 'Courier New', monospace" font-size="52" font-weight="900" letter-spacing="4" text-anchor="middle">ACID GRAPHICS</text><text x="600" y="340" fill="#39ff14" font-family="ui-monospace, 'Courier New', monospace" font-size="12" letter-spacing="6" opacity=".4" text-anchor="middle">DISTORT // WARP // DISSOLVE</text></svg>