<svg xmlns="http://www.w3.org/2000/svg" fill="none" viewBox="0 0 1200 630"><defs><pattern id="a" width="60" height="60" x="0" y="0" patternUnits="userSpaceOnUse"><path stroke="#8b7355" stroke-width=".4" d="M0 30q15-15 30 0t30 0" opacity=".15"/><path stroke="#8b7355" stroke-width=".3" d="M30 0q-15 15 0 30 15-15 0-30" opacity=".1"/></pattern><filter id="b" width="110%" height="110%" x="-5%" y="-5%"><feGaussianBlur in="SourceGraphic" result="blur" stdDeviation="1.5"/><feMerge><feMergeNode in="blur"/><feMergeNode in="SourceGraphic"/></feMerge></filter></defs><path fill="#f5f0e5" d="M0 0h1200v630H0z"/><path fill="url(#a)" d="M0 0h1200v630H0z"/><path fill="#faf6ed" stroke="#8b7355" stroke-width="2" d="M100 100q0-10 15-10h225q15 0 15 15v155q0 15-15 15H115q-15 0-15-15Z"/><path stroke="#6b8e4e" stroke-width="1.8" d="M100 130q-15 30-10 60-8 30 10 60M355 130q15 30 10 60 8 30-10 60" opacity=".5"/><circle cx="107" cy="97" r="6" fill="#c4956a" opacity=".3"/><path stroke="#6b8e4e" stroke-width="1.2" d="M100 90q7-6 15 0" opacity=".5"/><circle cx="348" cy="268" r="6" fill="#c4956a" opacity=".3"/><path stroke="#6b8e4e" stroke-width="1.2" d="M340 275q8 6 15 0" opacity=".5"/><rect width="235" height="30" x="110" y="100" fill="#d4a574" opacity=".1" rx="2"/><rect width="90" height="8" x="120" y="112" fill="#8b5e3c" opacity=".7" rx="3"/><rect width="200" height="5" x="120" y="140" fill="#c4b89a" opacity=".5" rx="2"/><rect width="180" height="5" x="120" y="153" fill="#c4b89a" opacity=".5" rx="2"/><rect width="160" height="5" x="120" y="166" fill="#c4b89a" opacity=".5" rx="2"/><rect width="20" height="20" x="120" y="190" fill="#6b8e4e" stroke="#6b8e4e" stroke-width=".8" opacity=".15" rx="3"/><rect width="160" height="5" x="150" y="195" fill="#c4b89a" opacity=".5" rx="2"/><rect width="140" height="5" x="150" y="208" fill="#c4b89a" opacity=".5" rx="2"/><rect width="180" height="8" x="120" y="235" fill="#e8e0d0" rx="4"/><rect width="120" height="8" x="120" y="235" fill="#c4956a" opacity=".4" rx="4"/><path fill="#faf6ed" stroke="#8b7355" stroke-width="2" d="M430 80q0-12 15-12h275q15 0 15 15v187q0 15-15 15H445q-15 0-15-15Z"/><path stroke="#6b8e4e" stroke-width="1.8" d="M430 115q-17 35-12 75-8 40 12 75M735 115q17 35 12 75 8 40-12 75" opacity=".5"/><circle cx="437" cy="75" r="6" fill="#c4956a" opacity=".3"/><path stroke="#6b8e4e" stroke-width="1.2" d="M430 68q7-6 15 0" opacity=".5"/><circle cx="728" cy="278" r="6" fill="#c4956a" opacity=".3"/><path stroke="#6b8e4e" stroke-width="1.2" d="M720 285q8 6 15 0" opacity=".5"/><rect width="285" height="30" x="440" y="78" fill="#6b8e4e" opacity=".08" rx="2"/><rect width="110" height="8" x="450" y="92" fill="#8b5e3c" opacity=".7" rx="3"/><rect width="260" height="5" x="450" y="122" fill="#c4b89a" opacity=".5" rx="2"/><rect width="240" height="5" x="450" y="135" fill="#c4b89a" opacity=".5" rx="2"/><rect width="220" height="5" x="450" y="148" fill="#c4b89a" opacity=".5" rx="2"/><rect width="200" height="5" x="450" y="161" fill="#c4b89a" opacity=".5" rx="2"/><path stroke="#c4956a" d="M460 180q70-8 120 0t130 0" opacity=".4"/><rect width="20" height="20" x="450" y="195" fill="#8b5e3c" stroke="#8b5e3c" stroke-width=".8" opacity=".1" rx="3"/><rect width="200" height="5" x="480" y="200" fill="#c4b89a" opacity=".5" rx="2"/><rect width="180" height="5" x="480" y="213" fill="#c4b89a" opacity=".5" rx="2"/><path stroke="#8b7355" stroke-width="1.2" d="M450 240q0-6 8-6h72q8 0 8 6v14q0 6-8 6h-72q-8 0-8-6Z"/><rect width="45" height="5" x="462" y="243" fill="#8b5e3c" opacity=".5" rx="2"/><path fill="#faf6ed" stroke="#8b7355" stroke-width="2" d="M800 100q0-10 15-10h265q15 0 15 15v155q0 15-15 15H815q-15 0-15-15Z"/><path stroke="#6b8e4e" stroke-width="1.8" d="M800 130q-15 30-10 60-8 30 10 60M1095 130q15 30 10 60 8 30-10 60" opacity=".5"/><circle cx="807" cy="97" r="6" fill="#c4956a" opacity=".3"/><path stroke="#6b8e4e" stroke-width="1.2" d="M800 90q7-6 15 0" opacity=".5"/><circle cx="1088" cy="268" r="6" fill="#c4956a" opacity=".3"/><rect width="275" height="30" x="810" y="100" fill="#d4a574" opacity=".08" rx="2"/><rect width="85" height="8" x="820" y="112" fill="#8b5e3c" opacity=".7" rx="3"/><rect width="220" height="5" x="820" y="140" fill="#c4b89a" opacity=".5" rx="2"/><rect width="200" height="5" x="820" y="153" fill="#c4b89a" opacity=".5" rx="2"/><rect width="20" height="20" x="820" y="173" fill="#6b8e4e" stroke="#6b8e4e" stroke-width=".8" opacity=".12" rx="3"/><rect width="170" height="5" x="850" y="178" fill="#c4b89a" opacity=".5" rx="2"/><rect width="150" height="5" x="850" y="191" fill="#c4b89a" opacity=".5" rx="2"/><rect width="200" height="8" x="820" y="220" fill="#e8e0d0" rx="4"/><rect width="140" height="8" x="820" y="220" fill="#6b8e4e" opacity=".3" rx="4"/><path fill="#faf6ed" stroke="#8b7355" stroke-width="2" d="M140 370q0-12 15-12h315q15 0 15 15v187q0 15-15 15H155q-15 0-15-15Z"/><path stroke="#6b8e4e" stroke-width="1.8" d="M140 400q-17 35-12 70-8 40 12 75M485 400q17 35 12 70 8 40-12 75" opacity=".5"/><circle cx="147" cy="365" r="6" fill="#c4956a" opacity=".3"/><circle cx="478" cy="568" r="6" fill="#c4956a" opacity=".3"/><rect width="325" height="30" x="150" y="368" fill="#c4956a" opacity=".06" rx="2"/><rect width="105" height="8" x="165" y="382" fill="#8b5e3c" opacity=".7" rx="3"/><rect width="290" height="5" x="165" y="410" fill="#c4b89a" opacity=".5" rx="2"/><rect width="270" height="5" x="165" y="423" fill="#c4b89a" opacity=".5" rx="2"/><rect width="240" height="5" x="165" y="436" fill="#c4b89a" opacity=".5" rx="2"/><path stroke="#c4956a" d="M175 458q85-8 145 0t140 0" opacity=".4"/><rect width="260" height="8" x="165" y="475" fill="#e8e0d0" rx="4"/><rect width="180" height="8" x="165" y="475" fill="#c4956a" opacity=".35" rx="4"/><rect width="260" height="8" x="165" y="495" fill="#e8e0d0" rx="4"/><rect width="120" height="8" x="165" y="495" fill="#6b8e4e" opacity=".3" rx="4"/><path stroke="#8b7355" stroke-width="1.2" d="M165 520q0-6 8-6h72q8 0 8 6v14q0 6-8 6h-72q-8 0-8-6Z"/><rect width="45" height="5" x="177" y="523" fill="#8b5e3c" opacity=".5" rx="2"/><path fill="#faf6ed" stroke="#8b7355" stroke-width="2" d="M560 370q0-12 15-12h315q15 0 15 15v187q0 15-15 15H575q-15 0-15-15Z"/><path stroke="#6b8e4e" stroke-width="1.8" d="M560 400q-17 35-12 70-8 40 12 75M905 400q17 35 12 70 8 40-12 75" opacity=".5"/><circle cx="567" cy="365" r="6" fill="#c4956a" opacity=".3"/><circle cx="898" cy="568" r="6" fill="#c4956a" opacity=".3"/><rect width="325" height="30" x="570" y="368" fill="#6b8e4e" opacity=".06" rx="2"/><rect width="95" height="8" x="585" y="382" fill="#8b5e3c" opacity=".7" rx="3"/><rect width="280" height="5" x="585" y="410" fill="#c4b89a" opacity=".5" rx="2"/><rect width="260" height="5" x="585" y="423" fill="#c4b89a" opacity=".5" rx="2"/><rect width="230" height="5" x="585" y="436" fill="#c4b89a" opacity=".5" rx="2"/><rect width="20" height="20" x="585" y="456" fill="#8b5e3c" stroke="#8b5e3c" stroke-width=".8" opacity=".1" rx="3"/><rect width="220" height="5" x="615" y="461" fill="#c4b89a" opacity=".5" rx="2"/><rect width="200" height="5" x="615" y="474" fill="#c4b89a" opacity=".5" rx="2"/><path stroke="#c4956a" d="M595 498q85-8 145 0t140 0" opacity=".4"/><rect width="260" height="8" x="585" y="515" fill="#e8e0d0" rx="4"/><rect width="160" height="8" x="585" y="515" fill="#c4956a" opacity=".35" rx="4"/><path stroke="#8b7355" stroke-width="1.2" d="M585 540q0-6 8-6h72q8 0 8 6v14q0 6-8 6h-72q-8 0-8-6Z"/><rect width="45" height="5" x="597" y="543" fill="#8b5e3c" opacity=".5" rx="2"/><text x="600" y="330" fill="#8b5e3c" filter="url(#b)" font-family="Georgia, 'Times New Roman', serif" font-size="28" font-weight="bold" letter-spacing="5" text-anchor="middle">ART NOUVEAU</text></svg>