<svg xmlns="http://www.w3.org/2000/svg" width="1200" height="630" fill="none" viewBox="0 0 1200 630"><defs><linearGradient id="a" x1="0" x2="1" y1="0" y2="1" gradientUnits="objectBoundingBox"><stop offset="0%" stop-color="#d4af37"/><stop offset="25%" stop-color="#f5d67a"/><stop offset="50%" stop-color="#d4af37"/><stop offset="75%" stop-color="#c9a227"/><stop offset="100%" stop-color="#d4af37"/></linearGradient></defs><path fill="#1a1a2e" d="M0 0h1200v630H0z"/><g stroke="#d4af37" opacity=".15"><path d="M600 315 0 0M600 315 300 0M600 315V0M600 315 900 0M600 315 1200 0M600 315h600M600 315l600 315M600 315l300 315M600 315v315M600 315 300 630M600 315 0 630M600 315H0"/></g><path stroke="url(#a)" stroke-width="2" d="M100 80h1000v470H100z"/><path stroke="url(#a)" d="M120 100h960v430H120z"/><path stroke="url(#a)" stroke-width="4" d="M100 80v60m0-60h60"/><path stroke="url(#a)" stroke-width="4" d="M1100 80v60m0-60h-60"/><path stroke="url(#a)" stroke-width="4" d="M100 550v-60m0 60h60"/><path stroke="url(#a)" stroke-width="4" d="M1100 550v-60m0 60h-60"/><path stroke="url(#a)" stroke-width="2" d="m600 180 100 135-100 135-100-135z"/><path stroke="url(#a)" d="m600 210 70 105-70 105-70-105z"/><path stroke="url(#a)" d="M200 200h250"/><path stroke="url(#a)" d="M750 200h250"/><path stroke="url(#a)" d="M200 430h250"/><path stroke="url(#a)" d="M750 430h250"/><text x="600" y="300" fill="url(#a)" font-family="Georgia, serif" font-size="64" font-weight="400" letter-spacing=".3em" text-anchor="middle">ART DECO</text><path stroke="url(#a)" d="M400 340h400"/><circle cx="600" cy="340" r="5" fill="#d4af37"/><text x="600" y="380" fill="#d4af37" font-family="Georgia, serif" font-size="24" letter-spacing=".2em" text-anchor="middle">THE GOLDEN AGE</text><path stroke="url(#a)" stroke-width="2" d="m500 480 50 20 50-20 50 20 50-20"/><text x="600" y="530" fill="#8b7355" font-family="Georgia, serif" font-size="18" letter-spacing=".15em" text-anchor="middle">Elegance • Geometry • Luxury</text></svg>