<svg xmlns="http://www.w3.org/2000/svg" width="1200" height="630" fill="none" viewBox="0 0 1200 630"><path fill="#fff" d="M0 0h1200v630H0z"/><g stroke="#e5e5e5"><path d="M0 157.5h1200M0 315h1200M0 472.5h1200M300 0v630M600 0v630M900 0v630"/></g><circle cx="250" cy="200" r="120" fill="#fc0"/><path fill="red" d="m900 100 150 250H750z"/><path fill="#00f" d="M150 380h180v180H150z"/><path fill="#000" d="M500 150h300v20H500zM500 200h200v10H500zM800 400h20v150h-20zM850 450h150v20H850z"/><circle cx="950" cy="180" r="30" fill="red"/><path fill="#fc0" d="M400 450h60v60h-60z"/><circle cx="700" cy="500" r="40" fill="#00f"/><text x="600" y="340" fill="#000" font-family="Helvetica, Arial, sans-serif" font-size="96" font-weight="900" text-anchor="middle">BAUHAUS</text><text x="600" y="400" fill="#666" font-family="Helvetica, Arial, sans-serif" font-size="24" font-weight="400" letter-spacing=".3em" text-anchor="middle">FORM FOLLOWS FUNCTION</text><text x="600" y="580" fill="#999" font-family="Helvetica, Arial, sans-serif" font-size="18" letter-spacing=".2em" text-anchor="middle">1919 — WEIMAR — DESSAU — BERLIN</text><path stroke="#000" stroke-width="3" d="M200 550h200M800 550h200"/></svg>