<svg xmlns="http://www.w3.org/2000/svg" width="1200" height="630" fill="none" viewBox="0 0 1200 630"><path fill="#ffffff" d="M0 0h1200v630H0z"/><rect x="80" y="60" width="1040" height="1" fill="#000000"/><text x="80" y="50" fill="#000000" font-family="'Times New Roman', Times, serif" font-size="14">DOCUMENT</text><text x="1120" y="50" fill="#000000" font-family="'Courier New', monospace" font-size="12" text-anchor="end">index.html</text><text x="80" y="140" fill="#000000" font-family="'Times New Roman', Times, serif" font-size="48">Brutalist Web</text><rect x="80" y="155" width="1040" height="1" fill="#000000"/><text x="80" y="200" fill="#0000ff" font-family="'Times New Roman', serif" font-size="16" text-decoration="underline">[Home]</text><text x="170" y="200" fill="#0000ff" font-family="'Times New Roman', serif" font-size="16" text-decoration="underline">[About]</text><text x="260" y="200" fill="#0000ff" font-family="'Times New Roman', serif" font-size="16" text-decoration="underline">[Contact]</text><rect x="80" y="230" width="700" height="14" fill="#000000" opacity=".06"/><rect x="80" y="254" width="650" height="14" fill="#000000" opacity=".06"/><rect x="80" y="278" width="720" height="14" fill="#000000" opacity=".06"/><rect x="80" y="302" width="580" height="14" fill="#000000" opacity=".06"/><rect x="80" y="350" width="160" height="36" fill="#ffffff" stroke="#000000" stroke-width="1"/><text x="160" y="374" fill="#000000" font-family="'Courier New', monospace" font-size="14" text-anchor="middle">[Submit]</text><rect x="260" y="350" width="300" height="36" fill="#ffffff" stroke="#000000" stroke-width="1"/><text x="270" y="374" fill="#999999" font-family="'Courier New', monospace" font-size="14">enter text here...</text><text x="80" y="440" fill="#000000" font-family="'Courier New', monospace" font-size="11" opacity=".5">Last updated: 1997-03-14</text><rect x="80" y="460" width="1040" height="1" fill="#000000"/><text x="80" y="490" fill="#000000" font-family="'Times New Roman', serif" font-size="12">Best viewed with Netscape Navigator 3.0 at 800x600</text><text x="600" y="560" fill="#000000" font-family="'Courier New', monospace" font-size="11" text-anchor="middle" opacity=".3">content over decoration</text></svg>