<svg xmlns="http://www.w3.org/2000/svg" viewBox="0 0 1200 630"><defs><pattern id="a" width="4" height="4" patternUnits="userSpaceOnUse"><circle cx="2" cy="2" r=".3" fill="#c4a882" opacity=".15"/></pattern></defs><path fill="#f5f0e8" d="M0 0h1200v630H0z"/><path fill="url(#a)" d="M0 0h1200v630H0z"/><path fill="#e74c3c" d="M39.226 8.058 217.475 33.11l-16.701 118.833L22.525 126.89z" opacity=".12"/><path fill="#3498db" d="m995.947 37.163 159.39-13.945 8.716 99.62-159.39 13.944z" opacity=".12"/><path fill="#f39c12" d="m52.72 496.143 149.794 7.85-5.234 99.864-149.794-7.85z" opacity=".1"/><path fill="#9b59b6" d="m1017.031 514.993 139.66-9.766 6.278 89.78-139.66 9.766z" opacity=".1"/><g opacity=".2"><path fill="none" stroke="#e74c3c" stroke-dasharray="4 3" stroke-width="2.5" d="m1050 50 68.47 14.554-14.553 68.47-68.47-14.554z"/><text x="35" y="30" fill="#e74c3c" font-family="'Courier New', monospace" font-size="8" font-weight="700" text-anchor="middle" transform="rotate(12 287.14 5020.041)">ORIGINAL</text><text x="35" y="48" fill="#e74c3c" font-family="'Courier New', monospace" font-size="8" font-weight="700" text-anchor="middle" transform="rotate(12 287.14 5020.041)">COPY</text></g><g transform="rotate(-2 260 170)"><path fill="#ebe4d8" stroke="#2d2d2d" stroke-width="2.5" d="M128 78h250v175H128z"/><path fill="none" stroke="#2d2d2d" stroke-width=".8" d="M132 82h242v167H132z"/><rect width="80" height="20" x="210" y="68" fill="#f39c12" opacity=".7" rx="2"/><path stroke="#fff" d="M220 69v19M232 69v19M244 69v19M256 69v19M268 69v19M280 69v19" opacity=".3"/><text x="155" y="125" fill="#2d2d2d" font-family="Georgia, 'Times New Roman', serif" font-size="18" font-weight="700">Overview</text><rect width="195" height="5" x="155" y="140" fill="#b8b0a0" rx="2"/><rect width="165" height="5" x="155" y="152" fill="#b8b0a0" rx="2"/><rect width="180" height="5" x="155" y="164" fill="#b8b0a0" rx="2"/><path fill="none" stroke="#2d2d2d" d="m155 182 15-2 15 3 15-4 15 5 15-4 15 3 15-4 15 5 15-4 15 3 15-3 20 2" opacity=".3"/><text x="155" y="205" fill="#2d2d2d" font-family="Arial, sans-serif" font-size="9" letter-spacing="2" opacity=".5">SECTION A</text></g><g transform="rotate(3 900 170)"><path fill="#f5f0e8" stroke="#2d2d2d" stroke-width="2.5" d="M778 78h250v175H778z"/><path fill="none" stroke="#2d2d2d" stroke-width=".8" d="M782 82h242v167H782z"/><rect width="75" height="20" x="860" y="68" fill="#9b59b6" opacity=".6" rx="2"/><path stroke="#fff" d="M870 69v19M882 69v19M894 69v19M906 69v19M918 69v19" opacity=".25"/><text x="805" y="125" fill="#2d2d2d" font-family="Arial, Helvetica, sans-serif" font-size="18" font-weight="900">Statistics</text><rect width="200" height="5" x="805" y="140" fill="#b8b0a0" rx="2"/><rect width="170" height="5" x="805" y="152" fill="#b8b0a0" rx="2"/><text x="805" y="195" fill="#e74c3c" font-family="Georgia, serif" font-size="32" font-weight="700">2,847</text><text x="805" y="215" fill="#2d2d2d" font-family="Arial, sans-serif" font-size="9" letter-spacing="2" opacity=".5">TOTAL ITEMS</text></g><g transform="rotate(2.5 260 475)"><path fill="#ebe4d8" stroke="#2d2d2d" stroke-width="2.5" d="M128 398h250v175H128z"/><path fill="none" stroke="#2d2d2d" stroke-width=".8" d="M132 402h242v167H132z"/><rect width="70" height="20" x="215" y="388" fill="#3498db" opacity=".6" rx="2"/><path stroke="#fff" d="M225 389v19M237 389v19M249 389v19M261 389v19M273 389v19" opacity=".25"/><text x="155" y="440" fill="#2d2d2d" font-family="Georgia, serif" font-size="18" font-weight="700">Progress</text><rect width="200" height="5" x="155" y="455" fill="#b8b0a0" rx="2"/><rect width="170" height="5" x="155" y="467" fill="#b8b0a0" rx="2"/><path fill="#d4c9b8" stroke="#2d2d2d" d="M155 485h200v12H155z"/><path fill="#e74c3c" d="M155 485h130v12H155z" opacity=".6"/><path fill="none" stroke="#2d2d2d" d="m155 510 17-2 16 3 16-4 16 5 16-4 16 3 16-4 16 5 16-4 16 3 16-2 16 1" opacity=".3"/><text x="155" y="535" fill="#2d2d2d" font-family="Arial, sans-serif" font-size="9" letter-spacing="2" opacity=".5">65% COMPLETE</text></g><g transform="rotate(-3 900 475)"><path fill="#f5f0e8" stroke="#2d2d2d" stroke-width="2.5" d="M778 398h250v175H778z"/><path fill="none" stroke="#2d2d2d" stroke-width=".8" d="M782 402h242v167H782z"/><rect width="65" height="20" x="865" y="388" fill="#f39c12" opacity=".7" rx="2"/><path stroke="#fff" d="M875 389v19M887 389v19M899 389v19M911 389v19" opacity=".3"/><text x="805" y="440" fill="#2d2d2d" font-family="Arial, sans-serif" font-size="18" font-weight="900">Notes</text><rect width="200" height="5" x="805" y="455" fill="#b8b0a0" rx="2"/><rect width="175" height="5" x="805" y="467" fill="#b8b0a0" rx="2"/><rect width="190" height="5" x="805" y="479" fill="#b8b0a0" rx="2"/><rect width="155" height="5" x="805" y="491" fill="#b8b0a0" rx="2"/><path fill="#2d2d2d" stroke="#2d2d2d" stroke-width="2" d="M805 515h80v24h-80z"/><rect width="60" height="7" x="815" y="523" fill="#f5f0e8" rx="3"/></g><path stroke="#2d2d2d" stroke-dasharray="8 4" stroke-width="1.2" d="M420 320h360" opacity=".2"/><circle cx="260" cy="90" r="6" fill="#e74c3c" opacity=".6"/><circle cx="260" cy="90" r="2" fill="#f5f0e8"/><circle cx="900" cy="90" r="6" fill="#3498db" opacity=".6"/><circle cx="900" cy="90" r="2" fill="#f5f0e8"/><text x="520" y="290" fill="#2d2d2d" font-family="Georgia, 'Times New Roman', serif" font-size="52" font-weight="700" text-anchor="middle" transform="rotate(-1 520 290)">COLLAGE</text><text x="700" y="350" fill="#e74c3c" font-family="Arial, Helvetica, sans-serif" font-size="48" font-weight="900" text-anchor="middle" transform="rotate(.5 700 350)">ART</text></svg>