<svg xmlns="http://www.w3.org/2000/svg" width="1200" height="630" fill="none" viewBox="0 0 1200 630"><path fill="#fff" d="M0 0h1200v630H0z"/><g stroke="#1e40af" stroke-width=".5" opacity=".04"><path d="M100 0v630M200 0v630M300 0v630M400 0v630M500 0v630M600 0v630M700 0v630M800 0v630M900 0v630M1000 0v630M1100 0v630M0 70h1200M0 140h1200M0 210h1200M0 280h1200M0 350h1200M0 420h1200M0 490h1200M0 560h1200"/></g><path fill="#1e40af" d="M0 0h1200v4H0z"/><path fill="#1e40af" d="M80 80h3v470h-3z" opacity=".15"/><rect width="120" height="30" x="80" y="80" fill="#1e40af" opacity=".08" rx="2"/><rect width="80" height="30" x="230" y="80" stroke="#e2e8f0" rx="2"/><rect width="80" height="30" x="340" y="80" stroke="#e2e8f0" rx="2"/><text x="600" y="260" fill="#0f172a" font-family="'Inter', 'Segoe UI', sans-serif" font-size="56" font-weight="600" letter-spacing="-.02em" text-anchor="middle">CORPORATE CLEAN</text><path fill="#1e40af" d="M440 280h320v3H440z"/><text x="600" y="325" fill="#64748b" font-family="'Inter', 'Segoe UI', sans-serif" font-size="18" font-weight="400" letter-spacing=".12em" text-anchor="middle">Professional. Trustworthy. Refined.</text><rect width="220" height="140" x="200" y="380" fill="#f8fafc" stroke="#e2e8f0" rx="6"/><rect width="60" height="8" x="210" y="400" fill="#1e40af" opacity=".7" rx="2"/><rect width="190" height="6" x="210" y="420" fill="#cbd5e1" rx="2"/><rect width="160" height="6" x="210" y="435" fill="#e2e8f0" rx="2"/><rect width="80" height="26" x="210" y="480" fill="#1e40af" rx="4"/><text x="250" y="498" fill="#fff" font-family="'Inter', sans-serif" font-size="12" font-weight="500">Learn More</text><rect width="220" height="140" x="460" y="380" fill="#f8fafc" stroke="#e2e8f0" rx="6"/><rect width="70" height="8" x="470" y="400" fill="#1e40af" opacity=".7" rx="2"/><rect width="190" height="6" x="470" y="420" fill="#cbd5e1" rx="2"/><rect width="140" height="6" x="470" y="435" fill="#e2e8f0" rx="2"/><rect width="80" height="26" x="470" y="480" fill="#1e40af" rx="4"/><text x="510" y="498" fill="#fff" font-family="'Inter', sans-serif" font-size="12" font-weight="500">Learn More</text><rect width="220" height="140" x="720" y="380" fill="#f8fafc" stroke="#e2e8f0" rx="6"/><rect width="55" height="8" x="730" y="400" fill="#1e40af" opacity=".7" rx="2"/><rect width="190" height="6" x="730" y="420" fill="#cbd5e1" rx="2"/><rect width="170" height="6" x="730" y="435" fill="#e2e8f0" rx="2"/><rect width="80" height="26" x="730" y="480" fill="#1e40af" rx="4"/><text x="770" y="498" fill="#fff" font-family="'Inter', sans-serif" font-size="12" font-weight="500">Learn More</text><path stroke="#e2e8f0" d="M80 560h1040"/><text x="600" y="590" fill="#94a3b8" font-family="'Inter', sans-serif" font-size="13" letter-spacing=".05em" text-anchor="middle">Enterprise-grade design system</text></svg>