<svg xmlns="http://www.w3.org/2000/svg" viewBox="0 0 1200 630"><defs><pattern id="a" width="60" height="52" x="0" y="0" patternUnits="userSpaceOnUse"><path fill="none" stroke="#7c3aed" stroke-width=".4" d="m30 0 30 15v22L30 52 0 37V15Z" opacity=".15"/></pattern><pattern id="c" width="4" height="4" x="0" y="0" patternUnits="userSpaceOnUse"><path fill="#fff" d="M0 0h4v1H0z" opacity=".03"/></pattern><pattern id="b" width="80" height="80" x="0" y="0" patternUnits="userSpaceOnUse"><path fill="none" stroke="#7c3aed" stroke-width=".3" d="M0 40h20l5-5h15" opacity=".1"/><path fill="none" stroke="#06d6a0" stroke-width=".3" d="M40 0v20l-5 5v15" opacity=".08"/><circle cx="40" cy="35" r="1.5" fill="#7c3aed" opacity=".12"/></pattern><filter id="d" width="200%" height="200%" x="-50%" y="-50%"><feGaussianBlur in="SourceGraphic" result="blur" stdDeviation="5"/><feMerge><feMergeNode in="blur"/><feMergeNode in="SourceGraphic"/></feMerge></filter></defs><path fill="#0a0f1e" d="M0 0h1200v630H0z"/><path fill="url(#a)" d="M0 0h1200v630H0z"/><path fill="url(#b)" d="M0 0h1200v630H0z"/><circle cx="200" cy="300" r="200" fill="#7c3aed" opacity=".07"/><circle cx="1000" cy="350" r="180" fill="#06d6a0" opacity=".06"/><circle cx="600" cy="100" r="150" fill="#ff006e" opacity=".05"/><g stroke="#06d6a0" stroke-width="1.5" opacity=".5"><path d="M25 25h65M25 25v65M25 25l17 17M1110 25h65M1175 25v65M1175 25l-17 17M25 540v65M25 605h65M25 605l17-17M1175 540v65M1110 605h65M1175 605l-17-17"/></g><path fill="#0a0f1e" stroke="#7c3aed" stroke-width="1.2" d="M60 100h260l20 20v180l-20 20H60l-20-20V120z" opacity=".8"/><path fill="#7c3aed" d="M60 100h260l20 20v180l-20 20H60l-20-20V120z" opacity=".04"/><path fill="url(#c)" d="M60 100h260l20 20v180l-20 20H60l-20-20V120z"/><text x="70" y="132" fill="#06d6a0" font-family="ui-monospace, 'Courier New', monospace" font-size="10" opacity=".8">SYS://CORE_STATUS</text><path stroke="#7c3aed" stroke-width=".5" d="M60 140h260" opacity=".4"/><text x="70" y="162" fill="#e0e0ff" font-family="ui-monospace, monospace" font-size="9" opacity=".6">CPU_LOAD:</text><rect width="140" height="6" x="150" y="155" fill="#1a1a2e" rx="1"/><rect width="115" height="6" x="150" y="155" fill="#7c3aed" opacity=".6" rx="1"/><text x="300" y="162" fill="#7c3aed" font-family="ui-monospace, monospace" font-size="8" opacity=".6">82%</text><text x="70" y="182" fill="#e0e0ff" font-family="ui-monospace, monospace" font-size="9" opacity=".6">MEM_USE:</text><rect width="140" height="6" x="150" y="175" fill="#1a1a2e" rx="1"/><rect width="95" height="6" x="150" y="175" fill="#06d6a0" opacity=".6" rx="1"/><text x="300" y="182" fill="#06d6a0" font-family="ui-monospace, monospace" font-size="8" opacity=".6">68%</text><text x="70" y="202" fill="#e0e0ff" font-family="ui-monospace, monospace" font-size="9" opacity=".6">NET_BW:</text><rect width="140" height="6" x="150" y="195" fill="#1a1a2e" rx="1"/><rect width="125" height="6" x="150" y="195" fill="#ff006e" opacity=".5" rx="1"/><text x="300" y="202" fill="#ff006e" font-family="ui-monospace, monospace" font-size="8" opacity=".6">89%</text><path fill="none" stroke="#06d6a0" d="m100 250 15-10 15 10v18l-15 10-15-10z" opacity=".5"/><path fill="#06d6a0" d="m107 254 8-6 8 6v10l-8 6-8-6z" opacity=".15"/><text x="145" y="260" fill="#06d6a0" font-family="ui-monospace, monospace" font-size="9" opacity=".7">STATUS: ONLINE</text><text x="145" y="275" fill="#e0e0ff" font-family="ui-monospace, monospace" font-size="8" opacity=".5">UPTIME: 847:23:41</text><path stroke="#06d6a0" d="m40 120 15-15M340 120l-15-15" opacity=".4"/><path fill="#0a0f1e" stroke="#06d6a0" stroke-width="1.2" d="M860 80h260l20 20v180l-20 20H860l-20-20V100z" opacity=".7"/><path fill="#06d6a0" d="M860 80h260l20 20v180l-20 20H860l-20-20V100z" opacity=".03"/><path fill="url(#c)" d="M860 80h260l20 20v180l-20 20H860l-20-20V100z"/><text x="870" y="112" fill="#38bdf8" font-family="ui-monospace, 'Courier New', monospace" font-size="10" opacity=".8">NET://NEURAL_STREAM</text><path stroke="#06d6a0" stroke-width=".5" d="M860 120h260" opacity=".35"/><circle cx="890" cy="160" r="4" fill="#06d6a0" opacity=".6"/><circle cx="940" cy="148" r="3" fill="#7c3aed" opacity=".6"/><circle cx="990" cy="165" r="4" fill="#06d6a0" opacity=".6"/><circle cx="1040" cy="145" r="3" fill="#ff006e" opacity=".5"/><circle cx="1090" cy="158" r="4" fill="#7c3aed" opacity=".6"/><path stroke="#06d6a0" stroke-width=".5" d="m890 160 50-12" opacity=".4"/><path stroke="#7c3aed" stroke-width=".5" d="m940 148 50 17" opacity=".4"/><path stroke="#06d6a0" stroke-width=".5" d="m990 165 50-20" opacity=".4"/><path stroke="#ff006e" stroke-width=".5" d="m1040 145 50 13" opacity=".4"/><text x="870" y="200" fill="#e0e0ff" font-family="ui-monospace, monospace" font-size="9" opacity=".55">BANDWIDTH: 12.4 TB/s</text><text x="870" y="215" fill="#e0e0ff" font-family="ui-monospace, monospace" font-size="9" opacity=".55">PROTOCOL: QUANTUM-7</text><text x="870" y="230" fill="#e0e0ff" font-family="ui-monospace, monospace" font-size="9" opacity=".55">LATENCY:  0.003ms</text><rect width="200" height="5" x="870" y="248" fill="#1a1a2e" rx="1"/><rect width="170" height="5" x="870" y="248" fill="#38bdf8" opacity=".5" rx="1"/><rect width="200" height="5" x="870" y="260" fill="#1a1a2e" rx="1"/><rect width="130" height="5" x="870" y="260" fill="#7c3aed" opacity=".45" rx="1"/><path stroke="#06d6a0" d="m840 100 15-15M1140 100l-15-15" opacity=".35"/><path fill="#0a0f1e" stroke="#ff006e" d="M60 400h220l20 20v150l-20 20H60l-20-20V420z" opacity=".7"/><path fill="#ff006e" d="M60 400h220l20 20v150l-20 20H60l-20-20V420z" opacity=".03"/><path fill="url(#c)" d="M60 400h220l20 20v150l-20 20H60l-20-20V420z"/><text x="70" y="428" fill="#ff006e" font-family="ui-monospace, 'Courier New', monospace" font-size="10" opacity=".75">ALERT://THREAT_DET</text><path stroke="#ff006e" stroke-width=".5" d="M60 436h220" opacity=".35"/><text x="70" y="458" fill="#e0e0ff" font-family="ui-monospace, monospace" font-size="9" opacity=".55">THREAT_LVL: LOW</text><circle cx="220" cy="454" r="4" fill="#06d6a0" opacity=".7"/><text x="70" y="478" fill="#e0e0ff" font-family="ui-monospace, monospace" font-size="9" opacity=".55">FIREWALL:  ACTIVE</text><text x="70" y="498" fill="#e0e0ff" font-family="ui-monospace, monospace" font-size="9" opacity=".55">SCANS:     1,247</text><rect width="100" height="5" x="70" y="518" fill="#1a1a2e" rx="1"/><rect width="25" height="5" x="70" y="518" fill="#06d6a0" opacity=".6" rx="1"/><rect width="100" height="5" x="70" y="530" fill="#1a1a2e" rx="1"/><rect width="15" height="5" x="70" y="530" fill="#06d6a0" opacity=".5" rx="1"/><rect width="100" height="5" x="70" y="542" fill="#1a1a2e" rx="1"/><rect width="8" height="5" x="70" y="542" fill="#06d6a0" opacity=".5" rx="1"/><path fill="none" stroke="#ff006e" stroke-width=".8" d="m230 520 12-8 12 8v14l-12 8-12-8z" opacity=".4"/><path fill="#ff006e" d="m235 523 7-5 7 5v8l-7 5-7-5z" opacity=".1"/><path fill="#0a0f1e" stroke="#7c3aed" stroke-width="1.2" d="M850 370h270l20 20v180l-20 20H850l-20-20V390z" opacity=".7"/><path fill="#7c3aed" d="M850 370h270l20 20v180l-20 20H850l-20-20V390z" opacity=".03"/><path fill="url(#c)" d="M850 370h270l20 20v180l-20 20H850l-20-20V390z"/><text x="862" y="398" fill="#7c3aed" font-family="ui-monospace, 'Courier New', monospace" font-size="10" opacity=".8">COMM://ENCRYPTED</text><path stroke="#7c3aed" stroke-width=".5" d="M850 406h270" opacity=".35"/><rect width="8" height="8" x="862" y="420" fill="#06d6a0" opacity=".4" rx="2"/><rect width="140" height="5" x="880" y="421" fill="#e0e0ff" opacity=".15" rx="2"/><rect width="100" height="4" x="880" y="432" fill="#e0e0ff" opacity=".1" rx="2"/><rect width="8" height="8" x="862" y="450" fill="#7c3aed" opacity=".4" rx="2"/><rect width="160" height="5" x="880" y="451" fill="#e0e0ff" opacity=".15" rx="2"/><rect width="120" height="4" x="880" y="462" fill="#e0e0ff" opacity=".1" rx="2"/><rect width="8" height="8" x="862" y="480" fill="#38bdf8" opacity=".4" rx="2"/><rect width="130" height="5" x="880" y="481" fill="#e0e0ff" opacity=".15" rx="2"/><rect width="90" height="4" x="880" y="492" fill="#e0e0ff" opacity=".1" rx="2"/><rect width="220" height="28" x="862" y="520" fill="#1a1a2e" stroke="#7c3aed" stroke-width=".5" opacity=".5" rx="2"/><text x="875" y="538" fill="#e0e0ff" font-family="ui-monospace, monospace" font-size="9" opacity=".3">Enter message...</text><rect width="36" height="28" x="1092" y="520" fill="#7c3aed" opacity=".25" rx="2"/><path fill="#7c3aed" d="M1105 530v12l13-6z" opacity=".6"/><path stroke="#7c3aed" d="m830 390 15-15M1140 390l-15-15" opacity=".35"/><text x="600" y="310" fill="#7c3aed" filter="url(#d)" font-family="'Inter', 'Helvetica Neue', sans-serif" font-size="80" font-weight="800" letter-spacing="8" opacity=".12" text-anchor="middle">CYBER ANIME</text><text x="600" y="310" fill="#7c3aed" filter="url(#d)" font-family="'Inter', 'Helvetica Neue', sans-serif" font-size="80" font-weight="800" letter-spacing="8" opacity=".35" text-anchor="middle">CYBER ANIME</text><text x="600" y="310" fill="#e0e0ff" font-family="'Inter', 'Helvetica Neue', sans-serif" font-size="80" font-weight="800" letter-spacing="8" text-anchor="middle">CYBER ANIME</text><text x="600" y="348" fill="#06d6a0" font-family="ui-monospace, 'Courier New', monospace" font-size="13" letter-spacing="8" opacity=".5" text-anchor="middle">HUD // HOLOGRAPHIC // MECHA</text><path stroke="#7c3aed" stroke-width=".5" d="M420 365h360" opacity=".25"/></svg>