<svg xmlns="http://www.w3.org/2000/svg" fill="none" viewBox="0 0 1200 630"><defs><pattern id="a" width="16" height="16" x="0" y="0" patternUnits="userSpaceOnUse"><path d="M0 0h16v16H0z"/><path stroke="#ff2a2a" stroke-width=".6" d="m0 8 8-8m0 16 8-8M0 8l8 8M8 0l8 8" opacity=".5"/></pattern><filter id="b" width="140%" height="140%" x="-20%" y="-20%"><feGaussianBlur in="SourceGraphic" result="blur" stdDeviation="4"/><feFlood flood-color="#ff2a2a" result="color"/><feComposite in="color" in2="blur" operator="in" result="glow"/><feMerge><feMergeNode in="glow"/><feMergeNode in="SourceGraphic"/></feMerge></filter></defs><path fill="#0a0a14" d="M0 0h1200v630H0z"/><g stroke="#ff2a2a" opacity=".04"><path d="M200 500q30-30 60-20 20-20 50-5 30-20 60-5 20-10 40 10 20-10 40 10M750 100q30-30 60-20 20-20 50-5 30-20 60-5 20-10 40 10"/></g><g stroke="gold" stroke-width=".8" opacity=".04"><path d="M100 300q30-20 50-10 20-20 50-5 20-20 50-5 20-20 50-5M900 350q30-20 50-10 20-20 50-5 20-20 50-5 20-20 50-5"/></g><rect width="290" height="190" x="70" y="90" fill="#0f0f20" rx="4"/><rect width="290" height="190" x="70" y="90" fill="url(#a)" opacity=".3" rx="4"/><rect width="290" height="190" x="70" y="90" stroke="#ff2a2a" stroke-width="1.5" rx="4"/><path stroke="#ff2a2a" stroke-width="1.2" d="m70 120 145-12 145 12" opacity=".6"/><path stroke="gold" stroke-width=".6" d="m80 120 135-8 135 8" opacity=".4"/><path stroke="#ff2a2a" stroke-width=".5" d="M70 125h290" opacity=".3"/><rect width="100" height="8" x="95" y="140" fill="#ff2a2a" opacity=".7" rx="2"/><rect width="24" height="24" x="310" y="135" fill="#ff2a2a" stroke="#ff2a2a" opacity=".15" rx="2"/><rect width="12" height="12" x="316" y="141" fill="#ff2a2a" opacity=".3" rx="1"/><rect width="220" height="5" x="95" y="162" fill="#2a2a44" rx="2"/><rect width="190" height="5" x="95" y="175" fill="#2a2a44" rx="2"/><rect width="200" height="5" x="95" y="188" fill="#2a2a44" rx="2"/><rect width="180" height="8" x="95" y="210" fill="#1a1a30" rx="2"/><rect width="120" height="8" x="95" y="210" fill="#ff2a2a" opacity=".4" rx="2"/><rect width="180" height="8" x="95" y="226" fill="#1a1a30" rx="2"/><rect width="80" height="8" x="95" y="226" fill="gold" opacity=".3" rx="2"/><rect width="330" height="210" x="420" y="70" fill="#0f0f20" rx="4"/><rect width="330" height="210" x="420" y="70" fill="url(#a)" opacity=".3" rx="4"/><rect width="330" height="210" x="420" y="70" stroke="#ff2a2a" stroke-width="1.5" rx="4"/><path stroke="#ff2a2a" stroke-width="1.2" d="m420 100 165-14 165 14" opacity=".6"/><path stroke="gold" stroke-width=".6" d="m430 100 155-10 155 10" opacity=".4"/><path stroke="#ff2a2a" stroke-width=".5" d="M420 105h330" opacity=".3"/><rect width="120" height="8" x="445" y="120" fill="#ff2a2a" opacity=".7" rx="2"/><rect width="24" height="24" x="700" y="115" fill="#ff2a2a" stroke="#ff2a2a" opacity=".15" rx="2"/><rect width="12" height="12" x="706" y="121" fill="#ff2a2a" opacity=".3" rx="1"/><rect width="270" height="5" x="445" y="142" fill="#2a2a44" rx="2"/><rect width="250" height="5" x="445" y="155" fill="#2a2a44" rx="2"/><rect width="230" height="5" x="445" y="168" fill="#2a2a44" rx="2"/><rect width="200" height="5" x="445" y="181" fill="#2a2a44" rx="2"/><rect width="220" height="8" x="445" y="205" fill="#1a1a30" rx="2"/><rect width="160" height="8" x="445" y="205" fill="#ff2a2a" opacity=".4" rx="2"/><rect width="220" height="8" x="445" y="221" fill="#1a1a30" rx="2"/><rect width="100" height="8" x="445" y="221" fill="gold" opacity=".3" rx="2"/><rect width="90" height="22" x="445" y="245" stroke="#ff2a2a" stroke-width="1.2" rx="3"/><rect width="45" height="6" x="455" y="252" fill="#ff2a2a" opacity=".6" rx="2"/><rect width="290" height="190" x="810" y="90" fill="#0f0f20" rx="4"/><rect width="290" height="190" x="810" y="90" fill="url(#a)" opacity=".3" rx="4"/><rect width="290" height="190" x="810" y="90" stroke="#ff2a2a" stroke-width="1.5" rx="4"/><path stroke="#ff2a2a" stroke-width="1.2" d="m810 120 145-12 145 12" opacity=".6"/><path stroke="gold" stroke-width=".6" d="m820 120 135-8 135 8" opacity=".4"/><path stroke="#ff2a2a" stroke-width=".5" d="M810 125h290" opacity=".3"/><rect width="85" height="8" x="835" y="140" fill="#ff2a2a" opacity=".7" rx="2"/><rect width="24" height="24" x="1060" y="135" fill="#ff2a2a" stroke="#ff2a2a" opacity=".15" rx="2"/><rect width="12" height="12" x="1066" y="141" fill="#ff2a2a" opacity=".3" rx="1"/><rect width="220" height="5" x="835" y="162" fill="#2a2a44" rx="2"/><rect width="200" height="5" x="835" y="175" fill="#2a2a44" rx="2"/><rect width="160" height="8" x="835" y="195" fill="#1a1a30" rx="2"/><rect width="110" height="8" x="835" y="195" fill="#ff2a2a" opacity=".4" rx="2"/><rect width="80" height="22" x="835" y="220" stroke="gold" rx="3"/><rect width="40" height="6" x="845" y="227" fill="gold" opacity=".5" rx="2"/><rect width="340" height="200" x="150" y="360" fill="#0f0f20" rx="4"/><rect width="340" height="200" x="150" y="360" fill="url(#a)" opacity=".3" rx="4"/><rect width="340" height="200" x="150" y="360" stroke="#ff2a2a" stroke-width="1.5" rx="4"/><path stroke="#ff2a2a" stroke-width="1.2" d="m150 390 170-14 170 14" opacity=".6"/><path stroke="gold" stroke-width=".6" d="m160 390 160-10 160 10" opacity=".4"/><path stroke="#ff2a2a" stroke-width=".5" d="M150 395h340" opacity=".3"/><rect width="110" height="8" x="175" y="410" fill="#ff2a2a" opacity=".7" rx="2"/><rect width="24" height="24" x="445" y="405" fill="#ff2a2a" stroke="#ff2a2a" opacity=".15" rx="2"/><rect width="12" height="12" x="451" y="411" fill="#ff2a2a" opacity=".3" rx="1"/><rect width="280" height="5" x="175" y="432" fill="#2a2a44" rx="2"/><rect width="260" height="5" x="175" y="445" fill="#2a2a44" rx="2"/><rect width="230" height="5" x="175" y="458" fill="#2a2a44" rx="2"/><rect width="240" height="8" x="175" y="480" fill="#1a1a30" rx="2"/><rect width="180" height="8" x="175" y="480" fill="#ff2a2a" opacity=".4" rx="2"/><rect width="240" height="8" x="175" y="496" fill="#1a1a30" rx="2"/><rect width="120" height="8" x="175" y="496" fill="gold" opacity=".3" rx="2"/><rect width="90" height="22" x="175" y="520" stroke="#ff2a2a" stroke-width="1.2" rx="3"/><rect width="45" height="6" x="185" y="527" fill="#ff2a2a" opacity=".6" rx="2"/><rect width="90" height="22" x="280" y="520" stroke="gold" rx="3"/><rect width="45" height="6" x="290" y="527" fill="gold" opacity=".5" rx="2"/><rect width="340" height="200" x="560" y="360" fill="#0f0f20" rx="4"/><rect width="340" height="200" x="560" y="360" fill="url(#a)" opacity=".3" rx="4"/><rect width="340" height="200" x="560" y="360" stroke="#ff2a2a" stroke-width="1.5" rx="4"/><path stroke="#ff2a2a" stroke-width="1.2" d="m560 390 170-14 170 14" opacity=".6"/><path stroke="gold" stroke-width=".6" d="m570 390 160-10 160 10" opacity=".4"/><path stroke="#ff2a2a" stroke-width=".5" d="M560 395h340" opacity=".3"/><rect width="95" height="8" x="585" y="410" fill="#ff2a2a" opacity=".7" rx="2"/><rect width="24" height="24" x="855" y="405" fill="#ff2a2a" stroke="#ff2a2a" opacity=".15" rx="2"/><rect width="12" height="12" x="861" y="411" fill="#ff2a2a" opacity=".3" rx="1"/><rect width="270" height="5" x="585" y="432" fill="#2a2a44" rx="2"/><rect width="240" height="5" x="585" y="445" fill="#2a2a44" rx="2"/><rect width="220" height="5" x="585" y="458" fill="#2a2a44" rx="2"/><rect width="220" height="8" x="585" y="480" fill="#1a1a30" rx="2"/><rect width="150" height="8" x="585" y="480" fill="#ff2a2a" opacity=".4" rx="2"/><rect width="220" height="8" x="585" y="496" fill="#1a1a30" rx="2"/><rect width="100" height="8" x="585" y="496" fill="gold" opacity=".3" rx="2"/><rect width="80" height="22" x="585" y="520" stroke="#ff2a2a" stroke-width="1.2" rx="3"/><rect width="40" height="6" x="595" y="527" fill="#ff2a2a" opacity=".6" rx="2"/><text x="600" y="325" fill="#ff2a2a" filter="url(#b)" font-family="'Courier New', monospace" font-size="26" font-weight="bold" letter-spacing="6" text-anchor="middle">CYBER CHINESE</text></svg>