<svg xmlns="http://www.w3.org/2000/svg" fill="none" viewBox="0 0 1200 630"><defs><filter id="c" width="130%" height="130%" x="-15%" y="-15%"><feGaussianBlur in="SourceGraphic" result="blur" stdDeviation="3"/><feFlood flood-color="#00e5ff" result="color"/><feComposite in="color" in2="blur" operator="in" result="glow"/><feMerge><feMergeNode in="glow"/><feMergeNode in="SourceGraphic"/></feMerge></filter><filter id="b" width="130%" height="130%" x="-15%" y="-15%"><feGaussianBlur in="SourceGraphic" result="blur" stdDeviation="2"/><feFlood flood-color="#c8a84e" result="color"/><feComposite in="color" in2="blur" operator="in" result="glow"/><feMerge><feMergeNode in="glow"/><feMergeNode in="SourceGraphic"/></feMerge></filter><pattern id="a" width="40" height="20" x="0" y="0" patternUnits="userSpaceOnUse"><path stroke="#00e5ff" stroke-width=".5" d="M0 20A20 20 0 0 1 20 0a20 20 0 0 1 20 20" opacity=".15"/><path stroke="#00e5ff" stroke-width=".3" d="M-10 20A15 15 0 0 1 10 5M30 20A15 15 0 0 1 50 5" opacity=".1"/></pattern></defs><path fill="#1a1a2e" d="M0 0h1200v630H0z"/><path fill="url(#a)" d="M0 0h1200v630H0z" opacity=".4"/><g fill="#ff69b4" opacity=".08"><circle cx="150" cy="80" r="4"/><circle cx="162" cy="74" r="3.5"/><circle cx="158" cy="90" r="3"/><circle cx="1050" cy="550" r="4"/><circle cx="1062" cy="544" r="3.5"/><circle cx="1058" cy="560" r="3"/><circle cx="1080" cy="100" r="3"/><circle cx="1090" cy="92" r="2.5"/></g><rect width="280" height="180" x="80" y="100" fill="#12122a" stroke="#00e5ff" stroke-width="1.5" opacity=".9" rx="4"/><rect width="280" height="180" x="80" y="100" stroke="#394073" stroke-width=".8" rx="4"/><path stroke="#394073" stroke-width=".8" d="M220 100v180M80 190h280" opacity=".6"/><path stroke="#00e5ff" d="M85 105v10h10M355 105v10h-10M85 275v-10h10M355 275v-10h-10" opacity=".5"/><path stroke="#c8a84e" stroke-width="1.2" d="m90 200 50-5 20 7 70-12 50 8 70-5" filter="url(#b)" opacity=".6"/><rect width="90" height="8" x="100" y="120" fill="#00e5ff" opacity=".6" rx="2"/><rect width="200" height="5" x="100" y="138" fill="#2e2e4a" rx="2"/><rect width="170" height="5" x="100" y="150" fill="#2e2e4a" rx="2"/><rect width="160" height="12" x="100" y="168" fill="#1a1a35" rx="2"/><path stroke="#00e5ff" stroke-width=".6" d="M105 180a8 8 0 0 1 8-8 8 8 0 0 1 8 8M121 180a8 8 0 0 1 8-8 8 8 0 0 1 8 8M137 180a8 8 0 0 1 8-8 8 8 0 0 1 8 8M153 180a8 8 0 0 1 8-8 8 8 0 0 1 8 8" opacity=".4"/><rect width="100" height="5" x="100" y="210" fill="#2e2e4a" rx="2"/><rect width="120" height="8" x="100" y="225" fill="#1a1a35" rx="2"/><rect width="80" height="8" x="100" y="225" fill="#00e5ff" opacity=".3" rx="2"/><rect width="320" height="200" x="420" y="80" fill="#12122a" stroke="#00e5ff" stroke-width="1.5" opacity=".9" rx="4"/><rect width="320" height="200" x="420" y="80" stroke="#394073" stroke-width=".8" rx="4"/><path stroke="#394073" stroke-width=".8" d="M580 80v200M420 180h320" opacity=".6"/><path stroke="#00e5ff" d="M425 85v10h10M735 85v10h-10M425 275v-10h10M735 275v-10h-10" opacity=".5"/><path stroke="#c8a84e" stroke-width="1.2" d="m430 185 60-5 40 8 70-10 60 8 70-4" filter="url(#b)" opacity=".6"/><rect width="110" height="8" x="440" y="105" fill="#00e5ff" opacity=".6" rx="2"/><rect width="260" height="5" x="440" y="123" fill="#2e2e4a" rx="2"/><rect width="240" height="5" x="440" y="135" fill="#2e2e4a" rx="2"/><rect width="200" height="5" x="440" y="147" fill="#2e2e4a" rx="2"/><rect width="180" height="12" x="440" y="162" fill="#1a1a35" rx="2"/><path stroke="#00e5ff" stroke-width=".6" d="M445 174a8 8 0 0 1 8-8 8 8 0 0 1 8 8M461 174a8 8 0 0 1 8-8 8 8 0 0 1 8 8M477 174a8 8 0 0 1 8-8 8 8 0 0 1 8 8M493 174a8 8 0 0 1 8-8 8 8 0 0 1 8 8" opacity=".4"/><rect width="180" height="8" x="440" y="200" fill="#1a1a35" rx="2"/><rect width="130" height="8" x="440" y="200" fill="#00e5ff" opacity=".3" rx="2"/><rect width="180" height="8" x="440" y="216" fill="#1a1a35" rx="2"/><rect width="90" height="8" x="440" y="216" fill="#ff69b4" opacity=".25" rx="2"/><rect width="80" height="22" x="440" y="240" stroke="#00e5ff" rx="3"/><rect width="40" height="6" x="450" y="247" fill="#00e5ff" opacity=".5" rx="2"/><rect width="280" height="180" x="800" y="100" fill="#12122a" stroke="#00e5ff" stroke-width="1.5" opacity=".9" rx="4"/><rect width="280" height="180" x="800" y="100" stroke="#394073" stroke-width=".8" rx="4"/><path stroke="#394073" stroke-width=".8" d="M940 100v180M800 190h280" opacity=".6"/><path stroke="#00e5ff" d="M805 105v10h10M1075 105v10h-10M805 275v-10h10M1075 275v-10h-10" opacity=".5"/><path stroke="#c8a84e" stroke-width="1.2" d="m810 195 50-5 40 7 50-9 50 8 70-5" filter="url(#b)" opacity=".6"/><rect width="80" height="8" x="820" y="120" fill="#00e5ff" opacity=".6" rx="2"/><rect width="210" height="5" x="820" y="138" fill="#2e2e4a" rx="2"/><rect width="180" height="5" x="820" y="150" fill="#2e2e4a" rx="2"/><rect width="140" height="8" x="820" y="168" fill="#1a1a35" rx="2"/><rect width="100" height="8" x="820" y="168" fill="#00e5ff" opacity=".3" rx="2"/><rect width="120" height="5" x="820" y="210" fill="#2e2e4a" rx="2"/><rect width="90" height="5" x="820" y="225" fill="#2e2e4a" rx="2"/><rect width="320" height="190" x="150" y="360" fill="#12122a" stroke="#00e5ff" stroke-width="1.5" opacity=".9" rx="4"/><rect width="320" height="190" x="150" y="360" stroke="#394073" stroke-width=".8" rx="4"/><path stroke="#394073" stroke-width=".8" d="M310 360v190M150 455h320" opacity=".6"/><path stroke="#00e5ff" d="M155 365v10h10M465 365v10h-10M155 545v-10h10M465 545v-10h-10" opacity=".5"/><path stroke="#c8a84e" stroke-width="1.2" d="m160 460 60-5 40 7 70-9 60 8 70-5" filter="url(#b)" opacity=".6"/><rect width="100" height="8" x="170" y="385" fill="#00e5ff" opacity=".6" rx="2"/><rect width="270" height="5" x="170" y="403" fill="#2e2e4a" rx="2"/><rect width="250" height="5" x="170" y="415" fill="#2e2e4a" rx="2"/><rect width="210" height="5" x="170" y="427" fill="#2e2e4a" rx="2"/><rect width="200" height="8" x="170" y="475" fill="#1a1a35" rx="2"/><rect width="150" height="8" x="170" y="475" fill="#00e5ff" opacity=".3" rx="2"/><rect width="200" height="8" x="170" y="491" fill="#1a1a35" rx="2"/><rect width="80" height="8" x="170" y="491" fill="#ff69b4" opacity=".25" rx="2"/><rect width="320" height="190" x="540" y="360" fill="#12122a" stroke="#00e5ff" stroke-width="1.5" opacity=".9" rx="4"/><rect width="320" height="190" x="540" y="360" stroke="#394073" stroke-width=".8" rx="4"/><path stroke="#394073" stroke-width=".8" d="M700 360v190M540 455h320" opacity=".6"/><path stroke="#00e5ff" d="M545 365v10h10M855 365v10h-10M545 545v-10h10M855 545v-10h-10" opacity=".5"/><path stroke="#c8a84e" stroke-width="1.2" d="m550 460 60-5 40 7 70-9 60 8 70-5" filter="url(#b)" opacity=".6"/><rect width="90" height="8" x="560" y="385" fill="#00e5ff" opacity=".6" rx="2"/><rect width="260" height="5" x="560" y="403" fill="#2e2e4a" rx="2"/><rect width="230" height="5" x="560" y="415" fill="#2e2e4a" rx="2"/><rect width="80" height="22" x="560" y="435" stroke="#00e5ff" rx="3"/><rect width="40" height="6" x="570" y="442" fill="#00e5ff" opacity=".5" rx="2"/><rect width="80" height="22" x="655" y="435" stroke="#c8a84e" rx="3"/><rect width="40" height="6" x="665" y="442" fill="#c8a84e" opacity=".5" rx="2"/><rect width="100" height="5" x="560" y="475" fill="#2e2e4a" rx="2"/><rect width="140" height="8" x="560" y="490" fill="#1a1a35" rx="2"/><rect width="100" height="8" x="560" y="490" fill="#00e5ff" opacity=".3" rx="2"/><text x="600" y="325" fill="#00e5ff" filter="url(#c)" font-family="'Courier New', monospace" font-size="26" font-weight="bold" letter-spacing="6" text-anchor="middle">CYBER WAFUU</text></svg>