<svg xmlns="http://www.w3.org/2000/svg" width="1200" height="630" fill="none" viewBox="0 0 1200 630"><path fill="#0f172a" d="M0 0h1200v630H0z"/><defs><radialGradient id="a" cx="50%" cy="45%" r="50%"><stop offset="0%" stop-color="#1e293b"/><stop offset="100%" stop-color="#0f172a"/></radialGradient></defs><path fill="url(#a)" d="M0 0h1200v630H0z"/><rect width="920" height="430" x="140" y="100" fill="#1e293b" stroke="#334155" rx="16"/><rect width="840" height="370" x="180" y="130" fill="#1e293b" stroke="#334155" rx="12"/><rect width="720" height="290" x="240" y="170" fill="#0f172a" stroke="#334155" rx="10"/><circle cx="275" cy="200" r="6" fill="#ef4444" opacity=".7"/><circle cx="297" cy="200" r="6" fill="#eab308" opacity=".7"/><circle cx="319" cy="200" r="6" fill="#22c55e" opacity=".7"/><path stroke="#334155" d="M240 220h720"/><path fill="#1e293b" stroke="#334155" stroke-width=".5" d="M240 220h180v240H240z"/><rect width="140" height="10" x="260" y="240" fill="#334155" rx="3"/><rect width="120" height="8" x="260" y="265" fill="#334155" opacity=".6" rx="3"/><rect width="130" height="8" x="260" y="285" fill="#334155" opacity=".6" rx="3"/><rect width="100" height="8" x="260" y="305" fill="#3b82f6" opacity=".5" rx="3"/><rect width="115" height="8" x="260" y="325" fill="#334155" opacity=".6" rx="3"/><rect width="125" height="8" x="260" y="345" fill="#334155" opacity=".6" rx="3"/><text x="630" y="290" fill="#f1f5f9" font-family="'Inter', 'SF Pro Display', sans-serif" font-size="52" font-weight="600" letter-spacing="-.01em" text-anchor="middle">DARK MODE</text><rect width="200" height="3" x="530" y="305" fill="#3b82f6" rx="1.5"/><text x="630" y="350" fill="#64748b" font-family="'Inter', sans-serif" font-size="18" letter-spacing=".1em" text-anchor="middle">Elegant Depth and Contrast</text><rect width="300" height="60" x="480" y="380" fill="#1e293b" stroke="#334155" rx="8"/><rect width="80" height="7" x="500" y="395" fill="#3b82f6" opacity=".5" rx="2"/><rect width="60" height="7" x="590" y="395" fill="#64748b" rx="2"/><rect width="100" height="7" x="500" y="412" fill="#64748b" rx="2"/><rect width="40" height="7" x="610" y="412" fill="#22c55e" opacity=".5" rx="2"/><rect width="70" height="7" x="500" y="429" fill="#a78bfa" opacity=".5" rx="2"/><circle cx="1050" cy="150" r="40" fill="#3b82f6" opacity=".06"/><circle cx="1050" cy="150" r="20" fill="#3b82f6" opacity=".1"/><rect width="720" height="13" x="240" y="447" fill="#1e293b" rx="0 0 10 10"/><circle cx="260" cy="454" r="3" fill="#22c55e" opacity=".7"/><rect width="60" height="5" x="270" y="451" fill="#334155" rx="2"/></svg>