<svg xmlns="http://www.w3.org/2000/svg" viewBox="0 0 1200 630" width="1200" height="630">
  <!-- Background -->
  <rect width="1200" height="630" fill="#111827"/>

  <!-- Top header bar -->
  <rect x="0" y="0" width="1200" height="60" fill="#1f2937"/>
  <rect x="0" y="58" width="1200" height="2" fill="#374151"/>
  <text x="32" y="37" font-family="system-ui, sans-serif" font-size="18" font-weight="700" fill="#f9fafb">Dashboard</text>
  <text x="160" y="37" font-family="system-ui, sans-serif" font-size="13" fill="#9ca3af">Analytics</text>
  <text x="240" y="37" font-family="system-ui, sans-serif" font-size="13" fill="#9ca3af">Reports</text>
  <text x="310" y="37" font-family="system-ui, sans-serif" font-size="13" fill="#9ca3af">Users</text>
  <!-- Notification icon -->
  <circle cx="1120" cy="30" r="16" fill="#374151"/>
  <rect x="1113" y="20" width="14" height="10" rx="2" fill="#9ca3af"/>
  <rect x="1118" y="30" width="4" height="6" rx="1" fill="#9ca3af"/>
  <circle cx="1124" cy="19" r="4" fill="#ef4444"/>
  <!-- Avatar -->
  <circle cx="1162" cy="30" r="16" fill="#6366f1"/>
  <text x="1154" y="35" font-family="system-ui, sans-serif" font-size="13" font-weight="700" fill="#f9fafb">AX</text>

  <!-- KPI Cards row -->
  <!-- Card 1: Revenue -->
  <rect x="20" y="72" width="272" height="90" rx="10" fill="#1f2937"/>
  <rect x="20" y="72" width="272" height="4" rx="2" fill="#10b981"/>
  <text x="40" y="100" font-family="system-ui, sans-serif" font-size="12" fill="#9ca3af">Revenue</text>
  <text x="40" y="130" font-family="system-ui, sans-serif" font-size="28" font-weight="700" fill="#f9fafb">$94.2K</text>
  <rect x="210" y="118" width="64" height="22" rx="6" fill="#064e3b"/>
  <text x="220" y="133" font-family="system-ui, sans-serif" font-size="11" font-weight="600" fill="#10b981">+12.0%</text>

  <!-- Card 2: Users -->
  <rect x="308" y="72" width="272" height="90" rx="10" fill="#1f2937"/>
  <rect x="308" y="72" width="272" height="4" rx="2" fill="#6366f1"/>
  <text x="328" y="100" font-family="system-ui, sans-serif" font-size="12" fill="#9ca3af">Users</text>
  <text x="328" y="130" font-family="system-ui, sans-serif" font-size="28" font-weight="700" fill="#6366f1">8,421</text>
  <rect x="498" y="118" width="64" height="22" rx="6" fill="#1e1b4b"/>
  <text x="509" y="133" font-family="system-ui, sans-serif" font-size="11" font-weight="600" fill="#6366f1">+8.4%</text>

  <!-- Card 3: Orders -->
  <rect x="596" y="72" width="272" height="90" rx="10" fill="#1f2937"/>
  <rect x="596" y="72" width="272" height="4" rx="2" fill="#f59e0b"/>
  <text x="616" y="100" font-family="system-ui, sans-serif" font-size="12" fill="#9ca3af">Orders</text>
  <text x="616" y="130" font-family="system-ui, sans-serif" font-size="28" font-weight="700" fill="#f59e0b">1,247</text>
  <rect x="786" y="118" width="64" height="22" rx="6" fill="#451a03"/>
  <text x="797" y="133" font-family="system-ui, sans-serif" font-size="11" font-weight="600" fill="#f59e0b">+5.1%</text>

  <!-- Card 4: Conversion -->
  <rect x="884" y="72" width="296" height="90" rx="10" fill="#1f2937"/>
  <rect x="884" y="72" width="296" height="4" rx="2" fill="#06b6d4"/>
  <text x="904" y="100" font-family="system-ui, sans-serif" font-size="12" fill="#9ca3af">Conversion</text>
  <text x="904" y="130" font-family="system-ui, sans-serif" font-size="28" font-weight="700" fill="#06b6d4">3.8%</text>
  <rect x="1130" y="118" width="32" height="22" rx="6" fill="#164e63"/>
  <text x="1137" y="133" font-family="system-ui, sans-serif" font-size="11" font-weight="600" fill="#06b6d4">-0.2</text>

  <!-- Main chart area (left ~2/3) -->
  <rect x="20" y="178" width="780" height="222" rx="12" fill="#1f2937"/>
  <text x="42" y="206" font-family="system-ui, sans-serif" font-size="14" font-weight="600" fill="#f9fafb">Revenue Overview</text>
  <rect x="700" y="192" width="50" height="20" rx="4" fill="#1e1b4b"/>
  <text x="712" y="206" font-family="system-ui, sans-serif" font-size="11" fill="#6366f1">2025</text>

  <!-- Horizontal grid lines -->
  <line x1="50" y1="338" x2="782" y2="338" stroke="#374151" stroke-width="1"/>
  <line x1="50" y1="308" x2="782" y2="308" stroke="#374151" stroke-width="1"/>
  <line x1="50" y1="278" x2="782" y2="278" stroke="#374151" stroke-width="1"/>
  <line x1="50" y1="248" x2="782" y2="248" stroke="#374151" stroke-width="1"/>
  <line x1="50" y1="218" x2="782" y2="218" stroke="#374151" stroke-width="1"/>

  <!-- Y-axis labels -->
  <text x="24" y="342" font-family="system-ui, sans-serif" font-size="9" fill="#6b7280">0</text>
  <text x="20" y="312" font-family="system-ui, sans-serif" font-size="9" fill="#6b7280">25K</text>
  <text x="20" y="282" font-family="system-ui, sans-serif" font-size="9" fill="#6b7280">50K</text>
  <text x="20" y="252" font-family="system-ui, sans-serif" font-size="9" fill="#6b7280">75K</text>
  <text x="16" y="222" font-family="system-ui, sans-serif" font-size="9" fill="#6b7280">100K</text>

  <!-- Bar chart: 12 bars Jan-Dec, base at y=338 -->
  <rect x="56"  y="280" width="42" height="58" rx="4" fill="#6366f1"/>
  <text x="63"  y="354" font-family="system-ui, sans-serif" font-size="9" fill="#6b7280">Jan</text>

  <rect x="114" y="262" width="42" height="76" rx="4" fill="#6366f1"/>
  <text x="120" y="354" font-family="system-ui, sans-serif" font-size="9" fill="#6b7280">Feb</text>

  <rect x="172" y="248" width="42" height="90" rx="4" fill="#818cf8"/>
  <text x="178" y="354" font-family="system-ui, sans-serif" font-size="9" fill="#6b7280">Mar</text>

  <rect x="230" y="270" width="42" height="68" rx="4" fill="#6366f1"/>
  <text x="236" y="354" font-family="system-ui, sans-serif" font-size="9" fill="#6b7280">Apr</text>

  <rect x="288" y="254" width="42" height="84" rx="4" fill="#818cf8"/>
  <text x="292" y="354" font-family="system-ui, sans-serif" font-size="9" fill="#6b7280">May</text>

  <rect x="346" y="222" width="42" height="116" rx="4" fill="#818cf8"/>
  <text x="351" y="354" font-family="system-ui, sans-serif" font-size="9" fill="#6b7280">Jun</text>

  <rect x="404" y="242" width="42" height="96" rx="4" fill="#6366f1"/>
  <text x="410" y="354" font-family="system-ui, sans-serif" font-size="9" fill="#6b7280">Jul</text>

  <rect x="462" y="230" width="42" height="108" rx="4" fill="#818cf8"/>
  <text x="467" y="354" font-family="system-ui, sans-serif" font-size="9" fill="#6b7280">Aug</text>

  <rect x="520" y="257" width="42" height="81" rx="4" fill="#6366f1"/>
  <text x="525" y="354" font-family="system-ui, sans-serif" font-size="9" fill="#6b7280">Sep</text>

  <rect x="578" y="237" width="42" height="101" rx="4" fill="#818cf8"/>
  <text x="582" y="354" font-family="system-ui, sans-serif" font-size="9" fill="#6b7280">Oct</text>

  <rect x="636" y="219" width="42" height="119" rx="4" fill="#818cf8"/>
  <text x="640" y="354" font-family="system-ui, sans-serif" font-size="9" fill="#6b7280">Nov</text>

  <rect x="694" y="212" width="42" height="126" rx="4" fill="#a5b4fc"/>
  <text x="698" y="354" font-family="system-ui, sans-serif" font-size="9" fill="#6b7280">Dec</text>

  <!-- Side panel: Donut chart -->
  <rect x="816" y="178" width="364" height="222" rx="12" fill="#1f2937"/>
  <text x="838" y="206" font-family="system-ui, sans-serif" font-size="14" font-weight="600" fill="#f9fafb">Traffic Sources</text>

  <!-- Donut arcs centered at (998, 290) r=66 -->
  <!-- Using path arcs: total circle = 2*pi*66 ~= 414.7 -->
  <!-- Organic 40%: 0 to 144deg -->
  <path d="M998,224 A66,66 0 0,1 1055.2,257 L1021.8,290 A31,31 0 0,0 998,259 Z" fill="#6366f1"/>
  <!-- Direct 25%: 144 to 234deg -->
  <path d="M1055.2,257 A66,66 0 0,1 1014.2,352.8 L998,290 A31,31 0 0,0 1024.6,305 Z" fill="#10b981"/>
  <!-- Referral 20%: 234 to 306deg -->
  <path d="M1014.2,352.8 A66,66 0 0,1 940.9,327.6 L998,290 A31,31 0 0,0 1007.5,321 Z" fill="#f59e0b"/>
  <!-- Social 15%: 306 to 360deg -->
  <path d="M940.9,327.6 A66,66 0 0,1 998,224 L998,290 A31,31 0 0,0 971.5,321 Z" fill="#ef4444"/>
  <!-- Center hole -->
  <circle cx="998" cy="290" r="31" fill="#1f2937"/>
  <text x="989" y="286" font-family="system-ui, sans-serif" font-size="13" font-weight="700" fill="#f9fafb">40%</text>
  <text x="982" y="301" font-family="system-ui, sans-serif" font-size="9" fill="#9ca3af">Organic</text>

  <!-- Legend -->
  <circle cx="840" cy="363" r="6" fill="#6366f1"/>
  <text x="852" y="367" font-family="system-ui, sans-serif" font-size="11" fill="#d1d5db">Organic</text>
  <text x="852" y="380" font-family="system-ui, sans-serif" font-size="10" fill="#6b7280">40%</text>
  <circle cx="840" cy="392" r="6" fill="#10b981"/>
  <text x="852" y="396" font-family="system-ui, sans-serif" font-size="11" fill="#d1d5db">Direct</text>
  <text x="852" y="409" font-family="system-ui, sans-serif" font-size="10" fill="#6b7280">25%</text>

  <circle cx="960" cy="363" r="6" fill="#f59e0b"/>
  <text x="972" y="367" font-family="system-ui, sans-serif" font-size="11" fill="#d1d5db">Referral</text>
  <text x="972" y="380" font-family="system-ui, sans-serif" font-size="10" fill="#6b7280">20%</text>
  <circle cx="960" cy="392" r="6" fill="#ef4444"/>
  <text x="972" y="396" font-family="system-ui, sans-serif" font-size="11" fill="#d1d5db">Social</text>
  <text x="972" y="409" font-family="system-ui, sans-serif" font-size="10" fill="#6b7280">15%</text>

  <!-- Bottom table -->
  <!-- Table header -->
  <rect x="20" y="412" width="1160" height="32" rx="0" fill="#1f2937"/>
  <line x1="20" y1="412" x2="1180" y2="412" stroke="#374151" stroke-width="1"/>
  <text x="40"  y="432" font-family="system-ui, sans-serif" font-size="11" font-weight="600" fill="#9ca3af">ORDER ID</text>
  <text x="195" y="432" font-family="system-ui, sans-serif" font-size="11" font-weight="600" fill="#9ca3af">CUSTOMER</text>
  <text x="440" y="432" font-family="system-ui, sans-serif" font-size="11" font-weight="600" fill="#9ca3af">PRODUCT</text>
  <text x="680" y="432" font-family="system-ui, sans-serif" font-size="11" font-weight="600" fill="#9ca3af">DATE</text>
  <text x="840" y="432" font-family="system-ui, sans-serif" font-size="11" font-weight="600" fill="#9ca3af">AMOUNT</text>
  <text x="1020" y="432" font-family="system-ui, sans-serif" font-size="11" font-weight="600" fill="#9ca3af">STATUS</text>
  <line x1="20" y1="444" x2="1180" y2="444" stroke="#374151" stroke-width="1"/>

  <!-- Row 1 -->
  <rect x="20" y="445" width="1160" height="44" fill="#1f2937"/>
  <text x="40"  y="472" font-family="system-ui, sans-serif" font-size="12" fill="#f9fafb">#ORD-8821</text>
  <circle cx="211" cy="467" r="14" fill="#4f46e5"/>
  <text x="204" y="472" font-family="system-ui, sans-serif" font-size="11" font-weight="700" fill="#f9fafb">SA</text>
  <text x="232" y="472" font-family="system-ui, sans-serif" font-size="12" fill="#f9fafb">Sarah Anderson</text>
  <text x="440" y="472" font-family="system-ui, sans-serif" font-size="12" fill="#d1d5db">Pro Analytics Suite</text>
  <text x="680" y="472" font-family="system-ui, sans-serif" font-size="12" fill="#9ca3af">Feb 18, 2026</text>
  <text x="840" y="472" font-family="system-ui, sans-serif" font-size="12" font-weight="600" fill="#f9fafb">$1,200.00</text>
  <rect x="1016" y="456" width="66" height="22" rx="6" fill="#064e3b"/>
  <text x="1028" y="471" font-family="system-ui, sans-serif" font-size="11" font-weight="600" fill="#10b981">Active</text>
  <line x1="20" y1="489" x2="1180" y2="489" stroke="#374151" stroke-width="1"/>

  <!-- Row 2 -->
  <rect x="20" y="490" width="1160" height="44" fill="#1a2333"/>
  <text x="40"  y="517" font-family="system-ui, sans-serif" font-size="12" fill="#f9fafb">#ORD-8820</text>
  <circle cx="211" cy="512" r="14" fill="#0891b2"/>
  <text x="204" y="517" font-family="system-ui, sans-serif" font-size="11" font-weight="700" fill="#f9fafb">MK</text>
  <text x="232" y="517" font-family="system-ui, sans-serif" font-size="12" fill="#f9fafb">Marcus Kim</text>
  <text x="440" y="517" font-family="system-ui, sans-serif" font-size="12" fill="#d1d5db">Dashboard Starter</text>
  <text x="680" y="517" font-family="system-ui, sans-serif" font-size="12" fill="#9ca3af">Feb 17, 2026</text>
  <text x="840" y="517" font-family="system-ui, sans-serif" font-size="12" font-weight="600" fill="#f9fafb">$340.00</text>
  <rect x="1016" y="501" width="72" height="22" rx="6" fill="#451a03"/>
  <text x="1024" y="516" font-family="system-ui, sans-serif" font-size="11" font-weight="600" fill="#f59e0b">Pending</text>
  <line x1="20" y1="534" x2="1180" y2="534" stroke="#374151" stroke-width="1"/>

  <!-- Row 3 -->
  <rect x="20" y="535" width="1160" height="44" fill="#1f2937"/>
  <text x="40"  y="562" font-family="system-ui, sans-serif" font-size="12" fill="#f9fafb">#ORD-8819</text>
  <circle cx="211" cy="557" r="14" fill="#059669"/>
  <text x="204" y="562" font-family="system-ui, sans-serif" font-size="11" font-weight="700" fill="#f9fafb">LC</text>
  <text x="232" y="562" font-family="system-ui, sans-serif" font-size="12" fill="#f9fafb">Laura Chen</text>
  <text x="440" y="562" font-family="system-ui, sans-serif" font-size="12" fill="#d1d5db">Enterprise Bundle</text>
  <text x="680" y="562" font-family="system-ui, sans-serif" font-size="12" fill="#9ca3af">Feb 16, 2026</text>
  <text x="840" y="562" font-family="system-ui, sans-serif" font-size="12" font-weight="600" fill="#f9fafb">$4,800.00</text>
  <rect x="1016" y="546" width="66" height="22" rx="6" fill="#064e3b"/>
  <text x="1028" y="561" font-family="system-ui, sans-serif" font-size="11" font-weight="600" fill="#10b981">Active</text>
  <line x1="20" y1="579" x2="1180" y2="579" stroke="#374151" stroke-width="1"/>

  <!-- Footer pagination bar -->
  <rect x="20" y="580" width="1160" height="36" rx="6" fill="#1f2937"/>
  <text x="40" y="602" font-family="system-ui, sans-serif" font-size="11" fill="#6b7280">Showing 3 of 1,247 orders</text>
  <rect x="1072" y="589" width="52" height="20" rx="4" fill="#374151"/>
  <text x="1084" y="603" font-family="system-ui, sans-serif" font-size="11" fill="#9ca3af">Next</text>
  <rect x="1134" y="589" width="38" height="20" rx="4" fill="#6366f1"/>
  <text x="1141" y="603" font-family="system-ui, sans-serif" font-size="11" font-weight="600" fill="#f9fafb">Prev</text>
</svg>
