<svg xmlns="http://www.w3.org/2000/svg" width="1200" height="630" fill="none" viewBox="0 0 1200 630"><path fill="#fafafa" d="M0 0h1200v630H0z"/><path stroke="#0a0a0a" stroke-width=".5" d="M120 80h960"/><path stroke="#0a0a0a" stroke-width="2.5" d="M120 83h960"/><text x="120" y="70" fill="#888" font-family="Georgia, 'Times New Roman', serif" font-size="12" letter-spacing=".15em">VOL. XLII</text><text x="1080" y="70" fill="#888" font-family="Georgia, 'Times New Roman', serif" font-size="12" letter-spacing=".15em" text-anchor="end">DESIGN QUARTERLY</text><text x="600" y="200" fill="#0a0a0a" font-family="Georgia, 'Times New Roman', serif" font-size="86" font-weight="400" letter-spacing="-.02em" text-anchor="middle">EDITORIAL</text><path stroke="#0a0a0a" stroke-width=".5" d="M350 225h500"/><text x="600" y="268" fill="#666" font-family="Georgia, 'Times New Roman', serif" font-size="18" font-style="italic" letter-spacing=".25em" text-anchor="middle">The Art of Typography and Layout</text><path stroke="#0a0a0a" stroke-width=".5" d="M120 300h960"/><text x="260" y="340" fill="#0a0a0a" font-family="Georgia, serif" font-size="36" font-weight="400" text-anchor="middle">I</text><path stroke="#0a0a0a" stroke-width=".5" d="M220 350h80"/><rect width="170" height="6" x="175" y="370" fill="#d4d4d4" rx="1"/><rect width="170" height="6" x="175" y="386" fill="#d4d4d4" rx="1"/><rect width="140" height="6" x="175" y="402" fill="#d4d4d4" rx="1"/><rect width="170" height="6" x="175" y="418" fill="#d4d4d4" rx="1"/><rect width="155" height="6" x="175" y="434" fill="#d4d4d4" rx="1"/><rect width="170" height="6" x="175" y="450" fill="#d4d4d4" rx="1"/><rect width="130" height="6" x="175" y="466" fill="#d4d4d4" rx="1"/><path stroke="#0a0a0a" stroke-width=".3" d="M400 310v190"/><text x="600" y="340" fill="#0a0a0a" font-family="Georgia, serif" font-size="36" font-weight="400" text-anchor="middle">II</text><path stroke="#0a0a0a" stroke-width=".5" d="M560 350h80"/><rect width="200" height="6" x="500" y="370" fill="#d4d4d4" rx="1"/><rect width="200" height="6" x="500" y="386" fill="#d4d4d4" rx="1"/><rect width="175" height="6" x="500" y="402" fill="#d4d4d4" rx="1"/><rect width="200" height="6" x="500" y="418" fill="#d4d4d4" rx="1"/><rect width="185" height="6" x="500" y="434" fill="#d4d4d4" rx="1"/><rect width="200" height="6" x="500" y="450" fill="#d4d4d4" rx="1"/><rect width="160" height="6" x="500" y="466" fill="#d4d4d4" rx="1"/><path stroke="#0a0a0a" stroke-width=".3" d="M800 310v190"/><text x="940" y="340" fill="#0a0a0a" font-family="Georgia, serif" font-size="36" font-weight="400" text-anchor="middle">III</text><path stroke="#0a0a0a" stroke-width=".5" d="M900 350h80"/><rect width="200" height="6" x="840" y="370" fill="#d4d4d4" rx="1"/><rect width="200" height="6" x="840" y="386" fill="#d4d4d4" rx="1"/><rect width="165" height="6" x="840" y="402" fill="#d4d4d4" rx="1"/><rect width="200" height="6" x="840" y="418" fill="#d4d4d4" rx="1"/><rect width="180" height="6" x="840" y="434" fill="#d4d4d4" rx="1"/><rect width="200" height="6" x="840" y="450" fill="#d4d4d4" rx="1"/><rect width="145" height="6" x="840" y="466" fill="#d4d4d4" rx="1"/><path stroke="#0a0a0a" stroke-width=".5" d="M120 510h960"/><path stroke="#0a0a0a" stroke-width=".3" d="M120 513h960"/><text x="600" y="560" fill="#999" font-family="Georgia, serif" font-size="14" font-style="italic" letter-spacing=".2em" text-anchor="middle">Clarity through restraint</text></svg>