<svg xmlns="http://www.w3.org/2000/svg" width="1200" height="630" fill="none" viewBox="0 0 1200 630"><defs><radialGradient id="b" cx="20%" cy="20%" r="50%" gradientUnits="objectBoundingBox"><stop offset="0%" stop-color="#fff" stop-opacity=".15"/><stop offset="100%" stop-color="#fff" stop-opacity="0"/></radialGradient><radialGradient id="c" cx="80%" cy="80%" r="50%" gradientUnits="objectBoundingBox"><stop offset="0%" stop-color="#fff" stop-opacity=".1"/><stop offset="100%" stop-color="#fff" stop-opacity="0"/></radialGradient><linearGradient id="a" x1="0" x2="1200" y1="0" y2="630" gradientUnits="userSpaceOnUse"><stop offset="0%" stop-color="#0078d4"/><stop offset="50%" stop-color="#106ebe"/><stop offset="100%" stop-color="#005a9e"/></linearGradient><filter id="d" width="140%" height="140%" x="-20%" y="-20%"><feGaussianBlur in="SourceGraphic" result="blur"/><feDropShadow dx="0" dy="2" flood-color="#000" flood-opacity=".04" stdDeviation="2"/><feDropShadow dx="0" dy="8" flood-color="#000" flood-opacity=".08" stdDeviation="8"/></filter></defs><path fill="url(#a)" d="M0 0h1200v630H0z"/><ellipse cx="200" cy="100" fill="url(#b)" rx="300" ry="200"/><ellipse cx="1000" cy="530" fill="url(#c)" rx="250" ry="200"/><rect width="600" height="360" x="300" y="140" fill="rgba(255,255,255,0.7)" filter="url(#d)" rx="8"/><rect width="598" height="358" x="301" y="141" stroke="rgba(255,255,255,0.2)" rx="7"/><rect width="64" height="64" x="380" y="180" fill="#0078d4" rx="8"/><rect width="24" height="24" x="400" y="200" fill="#fff" rx="4"/><text x="380" y="290" fill="#1a1a1a" font-family="Segoe UI, system-ui, sans-serif" font-size="42" font-weight="600">Fluent Design</text><text x="380" y="330" fill="#666" font-family="Segoe UI, system-ui, sans-serif" font-size="18">Light, depth, motion, material, and scale</text><g transform="translate(380 370)"><rect width="80" height="32" fill="#0078d4" rx="4"/><text x="40" y="21" fill="#fff" font-family="Segoe UI" font-size="12" text-anchor="middle">Light</text><rect width="80" height="32" x="90" fill="rgba(0,120,212,0.1)" stroke="#0078d4" rx="4"/><text x="130" y="21" fill="#0078d4" font-family="Segoe UI" font-size="12" text-anchor="middle">Depth</text><rect width="80" height="32" x="180" fill="rgba(0,120,212,0.1)" stroke="#0078d4" rx="4"/><text x="220" y="21" fill="#0078d4" font-family="Segoe UI" font-size="12" text-anchor="middle">Motion</text><rect width="90" height="32" x="270" fill="rgba(0,120,212,0.1)" stroke="#0078d4" rx="4"/><text x="315" y="21" fill="#0078d4" font-family="Segoe UI" font-size="12" text-anchor="middle">Material</text></g><rect width="140" height="40" x="380" y="440" fill="#0078d4" rx="2"/><text x="450" y="466" fill="#fff" font-family="Segoe UI" font-size="14" font-weight="500" text-anchor="middle">Get Started</text><rect width="140" height="40" x="540" y="440" fill="transparent" stroke="#666" rx="2"/><text x="610" y="466" fill="#1a1a1a" font-family="Segoe UI" font-size="14" font-weight="500" text-anchor="middle">Learn More</text><g transform="translate(100 200)"><rect width="140" height="100" fill="rgba(255,255,255,0.6)" filter="url(#d)" rx="8"/><rect width="138" height="98" x="1" y="1" stroke="rgba(255,255,255,0.3)" rx="7"/><rect width="32" height="32" x="20" y="20" fill="#0078d4" rx="6"/><text x="20" y="75" fill="#1a1a1a" font-family="Segoe UI" font-size="13" font-weight="600">Acrylic</text></g><g transform="translate(960 280)"><rect width="140" height="100" fill="rgba(255,255,255,0.6)" filter="url(#d)" rx="8"/><rect width="138" height="98" x="1" y="1" stroke="rgba(255,255,255,0.3)" rx="7"/><rect width="32" height="32" x="20" y="20" fill="#ffb900" rx="6"/><text x="20" y="75" fill="#1a1a1a" font-family="Segoe UI" font-size="13" font-weight="600">Reveal</text></g></svg>