<svg xmlns="http://www.w3.org/2000/svg" viewBox="0 0 1200 630"><defs><filter id="glow"><feGaussianBlur stdDeviation="2" result="coloredBlur"/><feMerge><feMergeNode in="coloredBlur"/><feMergeNode in="SourceGraphic"/></feMerge></filter><linearGradient id="nodeflow" x1="0%" y1="0%" x2="100%" y2="100%"><stop offset="0%" stop-color="#7c3aed"/><stop offset="50%" stop-color="#a78bfa"/><stop offset="100%" stop-color="#6d28d9"/></linearGradient></defs><rect width="1200" height="630" fill="#0b0b12"/><defs><pattern id="dots" width="40" height="40" patternUnits="userSpaceOnUse"><circle cx="20" cy="20" r="1.5" fill="#7c3aed" opacity="0.3"/></pattern></defs><rect width="1200" height="630" fill="url(#dots)"/><g stroke="#7c3aed" stroke-width="1.5" opacity="0.6"><line x1="200" y1="150" x2="400" y2="250" filter="url(#glow)"/><line x1="400" y1="250" x2="600" y2="200" filter="url(#glow)"/><line x1="600" y1="200" x2="800" y2="350" filter="url(#glow)"/><line x1="800" y1="350" x2="900" y2="250" filter="url(#glow)"/><line x1="200" y1="450" x2="500" y2="500" filter="url(#glow)"/><line x1="500" y1="500" x2="700" y2="420" filter="url(#glow)"/><line x1="700" y1="420" x2="1000" y2="480" filter="url(#glow)"/><line x1="400" y1="250" x2="500" y2="500" filter="url(#glow)"/><line x1="600" y1="200" x2="700" y2="420" filter="url(#glow)"/><line x1="800" y1="350" x2="1000" y2="480" filter="url(#glow)"/></g><g fill="#a78bfa" filter="url(#glow)"><circle cx="200" cy="150" r="8" opacity="0.9"/><circle cx="400" cy="250" r="10" opacity="0.95"/><circle cx="600" cy="200" r="7" opacity="0.85"/><circle cx="800" cy="350" r="9" opacity="0.9"/><circle cx="900" cy="250" r="6" opacity="0.8"/><circle cx="200" cy="450" r="7" opacity="0.85"/><circle cx="500" cy="500" r="8" opacity="0.88"/><circle cx="700" cy="420" r="9" opacity="0.92"/><circle cx="1000" cy="480" r="8" opacity="0.87"/></g><text x="600" y="120" fill="#a78bfa" font-family="Arial, sans-serif" font-size="80" font-weight="900" letter-spacing="4" text-anchor="middle" filter="url(#glow)">GENERATIVE</text><text x="600" y="580" fill="#7c3aed" font-family="Arial, sans-serif" font-size="80" font-weight="900" letter-spacing="4" text-anchor="middle" filter="url(#glow)">ART</text></svg>