<svg xmlns="http://www.w3.org/2000/svg" width="1200" height="630" fill="none" viewBox="0 0 1200 630"><defs><linearGradient id="a" x1="0" x2="0" y1="0" y2="630" gradientUnits="userSpaceOnUse"><stop offset="0%" stop-color="#87ceeb"/><stop offset="50%" stop-color="#b4e4f5"/><stop offset="100%" stop-color="#f4e4bc"/></linearGradient><linearGradient id="d" x1="0" x2="0" y1="0" y2="1" gradientUnits="objectBoundingBox"><stop offset="0%" stop-color="#7cb9a8"/><stop offset="100%" stop-color="#5a9a8a"/></linearGradient><linearGradient id="b" x1="0" x2="1" y1="0" y2="1" gradientUnits="objectBoundingBox"><stop offset="0%" stop-color="#f4e4bc"/><stop offset="100%" stop-color="#e8d5a3"/></linearGradient><filter id="c" width="140%" height="140%" x="-20%" y="-20%"><feDropShadow dx="0" dy="8" flood-color="#000" flood-opacity=".08" stdDeviation="15"/></filter></defs><path fill="url(#a)" d="M0 0h1200v630H0z"/><ellipse cx="200" cy="100" fill="#fff" opacity=".6" rx="80" ry="40"/><ellipse cx="240" cy="90" fill="#fff" opacity=".5" rx="60" ry="35"/><ellipse cx="160" cy="95" fill="#fff" opacity=".5" rx="50" ry="30"/><ellipse cx="900" cy="150" fill="#fff" opacity=".5" rx="100" ry="50"/><ellipse cx="950" cy="140" fill="#fff" opacity=".4" rx="70" ry="40"/><ellipse cx="850" cy="145" fill="#fff" opacity=".4" rx="60" ry="35"/><ellipse cx="1100" cy="80" fill="#fff" opacity=".4" rx="60" ry="30"/><rect width="500" height="350" x="350" y="150" fill="url(#b)" filter="url(#c)" rx="32"/><rect width="496" height="346" x="352" y="152" stroke="rgba(212,196,154,0.5)" stroke-width="2" rx="30"/><circle cx="600" cy="250" r="50" fill="url(#d)"/><ellipse cx="600" cy="250" fill="#fff" opacity=".8" rx="25" ry="15"/><text x="600" y="340" fill="#5a4a3a" font-family="system-ui, -apple-system, sans-serif" font-size="48" font-weight="600" text-anchor="middle">Ghibli Style</text><text x="600" y="380" fill="#7a6a5a" font-family="system-ui, -apple-system, sans-serif" font-size="20" text-anchor="middle">Warm and dreamy design</text><rect width="300" height="50" x="450" y="420" fill="url(#d)" filter="url(#c)" rx="25"/><text x="600" y="452" fill="#fff" font-family="system-ui" font-size="16" font-weight="500" text-anchor="middle">Begin Adventure</text><g transform="translate(100 200)"><rect width="150" height="100" fill="url(#b)" filter="url(#c)" opacity=".9" rx="24"/><circle cx="40" cy="40" r="20" fill="#85cdca"/><text x="75" y="75" fill="#5a4a3a" font-family="system-ui" font-size="12" text-anchor="middle">Sky</text></g><g transform="translate(950 280)"><rect width="150" height="100" fill="url(#b)" filter="url(#c)" opacity=".9" rx="24"/><circle cx="40" cy="40" r="20" fill="#e8a87c"/><text x="75" y="75" fill="#5a4a3a" font-family="system-ui" font-size="12" text-anchor="middle">Warmth</text></g><ellipse cx="150" cy="580" fill="#7cb9a8" opacity=".3" rx="100" ry="30"/><ellipse cx="1050" cy="560" fill="#7cb9a8" opacity=".3" rx="120" ry="40"/></svg>