<svg xmlns="http://www.w3.org/2000/svg" width="1200" height="630" fill="none" viewBox="0 0 1200 630"><defs><radialGradient id="b" cx="50%" cy="50%" r="50%"><stop offset="0%" stop-color="#a78bfa" stop-opacity=".8"/><stop offset="100%" stop-color="#667eea" stop-opacity="0"/></radialGradient><radialGradient id="d" cx="50%" cy="50%" r="50%"><stop offset="0%" stop-color="#ec4899" stop-opacity=".6"/><stop offset="100%" stop-color="#764ba2" stop-opacity="0"/></radialGradient><radialGradient id="e" cx="50%" cy="50%" r="50%"><stop offset="0%" stop-color="#60a5fa" stop-opacity=".7"/><stop offset="100%" stop-color="#667eea" stop-opacity="0"/></radialGradient><linearGradient id="a" x1="0" x2="1" y1="0" y2="1"><stop offset="0%" stop-color="#667eea"/><stop offset="100%" stop-color="#764ba2"/></linearGradient><filter id="c" width="200%" height="200%" x="-50%" y="-50%"><feGaussianBlur result="blur" stdDeviation="30"/><feMerge><feMergeNode in="blur"/><feMergeNode in="SourceGraphic"/></feMerge></filter></defs><path fill="url(#a)" d="M0 0h1200v630H0z"/><circle cx="250" cy="150" r="120" fill="url(#b)" filter="url(#c)"/><circle cx="950" cy="480" r="150" fill="url(#d)" filter="url(#c)"/><circle cx="800" cy="120" r="90" fill="url(#e)" filter="url(#c)"/><circle cx="150" cy="500" r="100" fill="url(#d)" filter="url(#c)" opacity=".5"/><rect width="280" height="320" x="80" y="160" fill="#fff" fill-opacity=".1" stroke="#fff" stroke-opacity=".25" rx="20"/><rect width="260" height="200" x="840" y="140" fill="#fff" fill-opacity=".08" stroke="#fff" stroke-opacity=".2" rx="20"/><rect width="220" height="160" x="880" y="380" fill="#fff" fill-opacity=".1" stroke="#fff" stroke-opacity=".2" rx="16"/><rect width="520" height="330" x="320" y="150" fill="#fff" fill-opacity=".12" stroke="#fff" stroke-opacity=".3" stroke-width="1.5" rx="24"/><text x="580" y="295" fill="#fff" font-family="'SF Pro Display', 'Segoe UI', sans-serif" font-size="50" font-weight="600" letter-spacing=".05em" text-anchor="middle">GLASSMORPHISM</text><path stroke="#fff" stroke-opacity=".35" d="M420 325h320"/><text x="580" y="365" fill="#fff" fill-opacity=".8" font-family="'SF Pro Display', 'Segoe UI', sans-serif" font-size="20" letter-spacing=".18em" text-anchor="middle">Frosted Transparency</text><rect width="220" height="12" x="110" y="200" fill="#fff" fill-opacity=".2" rx="6"/><rect width="180" height="12" x="110" y="230" fill="#fff" fill-opacity=".15" rx="6"/><rect width="200" height="12" x="110" y="260" fill="#fff" fill-opacity=".1" rx="6"/><circle cx="140" cy="380" r="25" fill="#fff" fill-opacity=".1" stroke="#fff" stroke-opacity=".2"/><circle cx="200" cy="380" r="25" fill="#fff" fill-opacity=".1" stroke="#fff" stroke-opacity=".2"/><circle cx="420" cy="420" r="8" fill="#fff" fill-opacity=".2"/><circle cx="450" cy="420" r="8" fill="#fff" fill-opacity=".3"/><circle cx="480" cy="420" r="8" fill="#fff" fill-opacity=".15"/></svg>