<svg xmlns="http://www.w3.org/2000/svg" width="1200" height="630" fill="none" viewBox="0 0 1200 630"><defs><clipPath id="d"><path d="M0 240h1200v18H0z"/></clipPath><clipPath id="e"><path d="M0 310h1200v12H0z"/></clipPath><clipPath id="f"><path d="M0 370h1200v8H0z"/></clipPath><linearGradient id="b" x1="0" x2="1" y1="0" y2="0"><stop offset="0%" stop-color="#0ff" stop-opacity=".7"/><stop offset="30%" stop-color="#f0f" stop-opacity=".6"/><stop offset="60%" stop-color="#ff0" stop-opacity=".5"/><stop offset="100%" stop-color="#0ff" stop-opacity="0"/></linearGradient><linearGradient id="c" x1="1" x2="0" y1="0" y2="0"><stop offset="0%" stop-color="#f0f" stop-opacity=".6"/><stop offset="50%" stop-color="#ff0" stop-opacity=".5"/><stop offset="100%" stop-color="#f0f" stop-opacity="0"/></linearGradient><pattern id="a" width="4" height="4" x="0" y="0" patternUnits="userSpaceOnUse"><path stroke="#0ff" stroke-width=".5" d="M0 0h4" opacity=".15"/></pattern></defs><path fill="#0a0a0a" d="M0 0h1200v630H0z"/><path fill="url(#a)" d="M0 0h1200v630H0z"/><path fill="#0ff" d="M185 0h5v630h-5z" opacity=".25"/><path fill="#f0f" d="M190 0h2v630h-2z" opacity=".3"/><path fill="#ff0" d="M523 0h3v630h-3z" opacity=".2"/><path fill="#f0f" d="M738 0h6v630h-6z" opacity=".22"/><path fill="#0ff" d="M744 0h2v630h-2z" opacity=".28"/><path fill="#0ff" d="M1020 0h4v630h-4z" opacity=".25"/><path fill="#ff0" d="M1024 0h2v630h-2z" opacity=".22"/><path fill="#f0f" d="M350 0h2v630h-2z" opacity=".2"/><path fill="#ff0" d="M880 0h3v630h-3z" opacity=".2"/><path fill="url(#b)" d="M0 80h400v4H0z"/><path fill="url(#c)" d="M700 95h500v3H700z"/><path fill="url(#c)" d="M0 480h350v5H0z"/><path fill="url(#b)" d="M850 510h350v3H850z"/><path fill="#0ff" d="M60 180h280v8H60z" opacity=".3"/><path fill="#f0f" d="M68 184h280v8H68z" opacity=".25"/><path fill="#f0f" d="M800 420h320v6H800z" opacity=".3"/><path fill="#ff0" d="M792 424h320v6H792z" opacity=".25"/><path fill="#fff" d="M0 155h1200v2H0z" opacity=".15"/><path fill="#0ff" d="M0 156h1200v1H0z" opacity=".2"/><path fill="#fff" d="M0 440h1200v3H0z" opacity=".15"/><path fill="#f0f" d="M0 442h1200v1H0z" opacity=".18"/><path fill="#0ff" d="M40 100h90v35H40z" opacity=".25"/><path fill="#f0f" d="M46 104h90v35H46z" opacity=".2"/><path fill="#f0f" d="M1060 75h110v25h-110z" opacity=".28"/><path fill="#ff0" d="M1054 79h110v25h-110z" opacity=".2"/><path fill="#ff0" d="M920 530h140v20H920z" opacity=".25"/><path fill="#0ff" d="M50 490h100v15H50z" opacity=".25"/><path fill="#f0f" d="M56 494h100v15H56z" opacity=".2"/><text x="596" y="276" fill="#ff0" font-family="ui-monospace, 'Courier New', monospace" font-size="110" font-weight="900" letter-spacing="-2" opacity=".5" text-anchor="middle">GLITCH</text><text x="606" y="286" fill="#f0f" font-family="ui-monospace, 'Courier New', monospace" font-size="110" font-weight="900" letter-spacing="-2" opacity=".65" text-anchor="middle">GLITCH</text><text x="600" y="280" fill="#0ff" font-family="ui-monospace, 'Courier New', monospace" font-size="110" font-weight="900" letter-spacing="-2" text-anchor="middle">GLITCH</text><g clip-path="url(#d)"><text x="612" y="280" fill="#f0f" font-family="ui-monospace, 'Courier New', monospace" font-size="110" font-weight="900" letter-spacing="-2" opacity=".85" text-anchor="middle">GLITCH</text></g><text x="597" y="358" fill="#f0f" font-family="ui-monospace, 'Courier New', monospace" font-size="80" font-weight="900" opacity=".5" text-anchor="middle">ART</text><text x="604" y="362" fill="#ff0" font-family="ui-monospace, 'Courier New', monospace" font-size="80" font-weight="900" opacity=".4" text-anchor="middle">ART</text><text x="600" y="360" fill="#0ff" font-family="ui-monospace, 'Courier New', monospace" font-size="80" font-weight="900" opacity=".85" text-anchor="middle">ART</text><g clip-path="url(#e)"><text x="588" y="360" fill="#ff0" font-family="ui-monospace, 'Courier New', monospace" font-size="80" font-weight="900" opacity=".7" text-anchor="middle">ART</text></g><text x="600" y="420" fill="#fff" font-family="ui-monospace, 'Courier New', monospace" font-size="14" letter-spacing="10" opacity=".3" text-anchor="middle">DIGITAL CORRUPTION AESTHETICS</text><g clip-path="url(#f)"><text x="608" y="420" fill="#0ff" font-family="ui-monospace, 'Courier New', monospace" font-size="14" letter-spacing="10" opacity=".45" text-anchor="middle">DIGITAL CORRUPTION AESTHETICS</text></g><path fill="#0ff" d="M395 470h55v55h-55z" opacity=".85"/><path fill="#f0f" d="M399 474h55v55h-55z" opacity=".2"/><path fill="#f0f" d="M470 470h55v55h-55z" opacity=".85"/><path fill="#ff0" d="M474 474h55v55h-55z" opacity=".2"/><path fill="#ff0" d="M545 470h55v55h-55z" opacity=".85"/><path fill="#0ff" d="M549 474h55v55h-55z" opacity=".2"/><path fill="#fff" d="M620 470h55v55h-55z" opacity=".25"/><path fill="#0a0a0a" stroke="#0ff" stroke-opacity=".5" d="M695 470h55v55h-55z"/><path fill="#0ff" d="M80 560h200v3H80z" opacity=".28"/><path fill="#f0f" d="M86 563h200v1H86zM340 565h140v2H340z" opacity=".25"/><path fill="#ff0" d="M550 558h80v4h-80zM750 560h220v3H750z" opacity=".25"/><path fill="#0ff" d="M756 563h220v1H756z" opacity=".25"/><path fill="#0ff" d="M1020 562h130v2h-130z" opacity=".28"/><path fill="#fff" d="M0 545h1200v1H0zM0 548h1200v1H0z" opacity=".15"/></svg>