<svg xmlns="http://www.w3.org/2000/svg" viewBox="0 0 1200 630"><defs><filter id="a" width="130%" height="130%" x="-10%" y="-10%"><feGaussianBlur in="SourceAlpha" stdDeviation="5"/><feOffset dx="2" dy="3" result="shadow"/><feFlood flood-color="#1a0018" flood-opacity=".4"/><feComposite in2="shadow" operator="in"/><feMerge><feMergeNode/><feMergeNode in="SourceGraphic"/></feMerge></filter></defs><path fill="#0a0a0e" d="M0 0h1200v630H0z"/><path fill="#1a0028" d="M0 0h1200v630H0z" opacity=".3"/><path fill="none" stroke="#555" stroke-width=".8" d="M24 24h1152v582H24z" opacity=".3"/><path fill="none" stroke="#444" stroke-width=".4" d="M28 28h1144v574H28z" opacity=".2"/><circle cx="24" cy="24" r="6" fill="none" stroke="#8b1a3a" opacity=".35"/><circle cx="1176" cy="24" r="6" fill="none" stroke="#8b1a3a" opacity=".35"/><circle cx="24" cy="606" r="6" fill="none" stroke="#8b1a3a" opacity=".35"/><circle cx="1176" cy="606" r="6" fill="none" stroke="#8b1a3a" opacity=".35"/><g filter="url(#a)"><rect width="260" height="195" x="70" y="85" fill="#0e0e12" stroke="#ddd" stroke-width="1.5" rx="6"/><path fill="none" stroke="#ddd" stroke-width=".8" d="M78 85q8-7 16 0 8-7 16 0 8-7 16 0 8-7 16 0 8-7 16 0 8-7 16 0 8-7 16 0 8-7 16 0 8-7 16 0 8-7 16 0 8-7 16 0 8-7 16 0 8-7 16 0 8-7 16 0 8-7 16 0 8-7 4 0M78 280q8 7 16 0 8 7 16 0 8 7 16 0 8 7 16 0 8 7 16 0 8 7 16 0 8 7 16 0 8 7 16 0 8 7 16 0 8 7 16 0 8 7 16 0 8 7 16 0 8 7 16 0 8 7 16 0 8 7 16 0 8 7 4 0" opacity=".5"/><path stroke="#8b1a3a" stroke-width="1.5" d="M200 93v19M192 100h16" opacity=".6"/><circle cx="200" cy="93" r="3" fill="#8b1a3a" opacity=".4"/><rect width="90" height="7" x="100" y="125" fill="#ccc" opacity=".5" rx="2"/><path stroke="#8b1a3a" stroke-width="1.2" d="M100 142h200" opacity=".45"/><rect width="200" height="5" x="100" y="158" fill="#888" opacity=".35" rx="2"/><rect width="180" height="5" x="100" y="173" fill="#888" opacity=".3" rx="2"/><rect width="190" height="5" x="100" y="188" fill="#888" opacity=".28" rx="2"/><circle cx="295" cy="245" r="8" fill="#8b1a3a" opacity=".25"/><circle cx="295" cy="245" r="4" fill="#8b1a3a" opacity=".35"/><circle cx="287" cy="240" r="3" fill="#8b1a3a" opacity=".2"/><circle cx="303" cy="240" r="3" fill="#8b1a3a" opacity=".2"/><circle cx="290" cy="250" r="2.5" fill="#8b1a3a" opacity=".18"/><circle cx="300" cy="250" r="2.5" fill="#8b1a3a" opacity=".18"/></g><g filter="url(#a)"><rect width="255" height="210" x="870" y="70" fill="#0e0e12" stroke="#ddd" stroke-width="1.5" rx="6"/><path fill="none" stroke="#ddd" stroke-width=".8" d="M878 70q8-7 16 0 8-7 16 0 8-7 16 0 8-7 16 0 8-7 16 0 8-7 16 0 8-7 16 0 8-7 16 0 8-7 16 0 8-7 16 0 8-7 16 0 8-7 16 0 8-7 16 0 8-7 16 0 8-7 15 0M878 280q8 7 16 0 8 7 16 0 8 7 16 0 8 7 16 0 8 7 16 0 8 7 16 0 8 7 16 0 8 7 16 0 8 7 16 0 8 7 16 0 8 7 16 0 8 7 16 0 8 7 16 0 8 7 16 0 8 7 15 0" opacity=".5"/><path stroke="#8b1a3a" stroke-width="1.5" d="M997 78v19M989 85h16" opacity=".6"/><circle cx="997" cy="78" r="3" fill="#8b1a3a" opacity=".4"/><rect width="80" height="7" x="900" y="108" fill="#ccc" opacity=".5" rx="2"/><path stroke="#8b1a3a" stroke-width="1.2" d="M900 125h195" opacity=".45"/><rect width="55" height="50" x="900" y="140" fill="#161620" stroke="#555" stroke-width=".8" rx="4"/><rect width="39" height="4" x="908" y="150" fill="#888" opacity=".3" rx="2"/><rect width="32" height="4" x="908" y="160" fill="#888" opacity=".25" rx="2"/><rect width="55" height="50" x="965" y="140" fill="#161620" stroke="#555" stroke-width=".8" rx="4"/><rect width="39" height="4" x="973" y="150" fill="#888" opacity=".3" rx="2"/><rect width="32" height="4" x="973" y="160" fill="#888" opacity=".25" rx="2"/><rect width="55" height="50" x="1030" y="140" fill="#161620" stroke="#555" stroke-width=".8" rx="4"/><rect width="39" height="4" x="1038" y="150" fill="#888" opacity=".3" rx="2"/><rect width="32" height="4" x="1038" y="160" fill="#888" opacity=".25" rx="2"/><rect width="180" height="5" x="900" y="205" fill="#888" opacity=".3" rx="2"/><rect width="160" height="5" x="900" y="220" fill="#888" opacity=".25" rx="2"/><rect width="85" height="22" x="900" y="242" fill="none" stroke="#8b1a3a" opacity=".45" rx="4"/><text x="942" y="257" fill="#aaa" font-family="Georgia, serif" font-size="9" opacity=".6" text-anchor="middle">View All</text></g><g filter="url(#a)"><rect width="240" height="170" x="100" y="380" fill="#0e0e12" stroke="#ddd" stroke-width="1.5" rx="6"/><path fill="none" stroke="#ddd" stroke-width=".8" d="M108 380q8-7 16 0 8-7 16 0 8-7 16 0 8-7 16 0 8-7 16 0 8-7 16 0 8-7 16 0 8-7 16 0 8-7 16 0 8-7 16 0 8-7 16 0 8-7 16 0 8-7 16 0 8-7 16 0" opacity=".5"/><path stroke="#8b1a3a" stroke-width="1.5" d="M220 388v15M213 393h14" opacity=".6"/><rect width="70" height="7" x="130" y="415" fill="#ccc" opacity=".5" rx="2"/><path stroke="#8b1a3a" stroke-width="1.2" d="M130 432h180" opacity=".45"/><circle cx="142" cy="452" r="4" fill="none" stroke="#8b1a3a" opacity=".45"/><rect width="140" height="5" x="155" y="449" fill="#888" opacity=".3" rx="2"/><circle cx="142" cy="470" r="4" fill="#8b1a3a" opacity=".35"/><path fill="none" stroke="#0e0e12" stroke-width="1.2" d="m139 470 2 2 4-4"/><rect width="120" height="5" x="155" y="467" fill="#888" opacity=".28" rx="2"/><circle cx="142" cy="488" r="4" fill="none" stroke="#8b1a3a" opacity=".45"/><rect width="130" height="5" x="155" y="485" fill="#888" opacity=".3" rx="2"/><circle cx="305" cy="515" r="7" fill="#8b1a3a" opacity=".25"/><circle cx="305" cy="515" r="3.5" fill="#8b1a3a" opacity=".35"/></g><g filter="url(#a)"><rect width="280" height="180" x="830" y="370" fill="#0e0e12" stroke="#ddd" stroke-width="1.5" rx="6"/><path fill="none" stroke="#ddd" stroke-width=".8" d="M838 370q8-7 16 0 8-7 16 0 8-7 16 0 8-7 16 0 8-7 16 0 8-7 16 0 8-7 16 0 8-7 16 0 8-7 16 0 8-7 16 0 8-7 16 0 8-7 16 0 8-7 16 0 8-7 16 0 8-7 16 0 8-7 16 0 8-7 8 0" opacity=".5"/><path stroke="#8b1a3a" stroke-width="1.5" d="M970 378v15M963 383h14" opacity=".6"/><rect width="100" height="7" x="860" y="405" fill="#ccc" opacity=".5" rx="2"/><path stroke="#8b1a3a" stroke-width="1.2" d="M860 422h220" opacity=".45"/><rect width="80" height="5" x="860" y="440" fill="#888" opacity=".3" rx="2"/><rect width="190" height="7" x="860" y="455" fill="#1a1a20" rx="3"/><rect width="130" height="7" x="860" y="455" fill="#8b1a3a" opacity=".4" rx="3"/><rect width="80" height="5" x="860" y="475" fill="#888" opacity=".3" rx="2"/><rect width="190" height="7" x="860" y="490" fill="#1a1a20" rx="3"/><rect width="95" height="7" x="860" y="490" fill="#8b1a3a" opacity=".4" rx="3"/><rect width="90" height="22" x="860" y="516" fill="none" stroke="#ddd" stroke-width=".8" opacity=".35" rx="4"/><text x="905" y="531" fill="#aaa" font-family="Georgia, serif" font-size="9" opacity=".6" text-anchor="middle">Details</text></g><text x="600" y="305" fill="#e8e0e8" font-family="Georgia, 'Times New Roman', serif" font-size="64" font-weight="700" letter-spacing="3" opacity=".9" text-anchor="middle">GOTHIC LOLITA</text><text x="600" y="342" fill="#8b1a3a" font-family="Georgia, 'Times New Roman', serif" font-size="14" font-weight="400" letter-spacing="6" opacity=".6" text-anchor="middle">ELEGANT &amp; DARK</text></svg>