<svg xmlns="http://www.w3.org/2000/svg" viewBox="0 0 1200 630"><defs><pattern id="a" width="1200" height="32" patternUnits="userSpaceOnUse"><path stroke="#a8c8e8" d="M0 31h1200" opacity=".5"/></pattern></defs><path fill="#fffef5" d="M0 0h1200v630H0z"/><path fill="url(#a)" d="M0 0h1200v630H0z"/><path stroke="#ff6b6b" stroke-width="1.2" d="M100 0v630" opacity=".35"/><g fill="none" stroke="#555" stroke-width="2" opacity=".4"><circle cx="50" cy="60" r="8"/><circle cx="50" cy="140" r="8"/><circle cx="50" cy="220" r="8"/><circle cx="50" cy="300" r="8"/><circle cx="50" cy="380" r="8"/><circle cx="50" cy="460" r="8"/><circle cx="50" cy="540" r="8"/></g><g transform="rotate(-2 260 170)"><rect width="70" height="18" x="200" y="72" fill="#ffd93d" opacity=".7" rx="2"/><path stroke="#fff" d="M210 73v17M222 73v17M234 73v17M246 73v17M258 73v17" opacity=".3"/><rect width="240" height="170" x="140" y="85" fill="#fffef5" stroke="#2c2c2c" stroke-dasharray="10 5" stroke-width="2.5" rx="8"/><rect width="80" height="10" x="165" y="115" fill="#ff6b6b" opacity=".7" rx="3"/><rect width="190" height="6" x="165" y="138" fill="#ccc" rx="3"/><rect width="160" height="6" x="165" y="152" fill="#ccc" rx="3"/><rect width="175" height="6" x="165" y="166" fill="#ccc" rx="3"/><circle cx="330" cy="220" r="14" fill="none" stroke="#4ecdc4" stroke-width="3" opacity=".6"/></g><g transform="rotate(1.5 920 170)"><rect width="65" height="18" x="830" y="72" fill="#4ecdc4" opacity=".6" rx="2"/><path stroke="#fff" d="M840 73v17M852 73v17M864 73v17M876 73v17M888 73v17" opacity=".3"/><rect width="250" height="170" x="790" y="85" fill="#fffef5" stroke="#2c2c2c" stroke-dasharray="10 5" stroke-width="2.5" rx="8"/><rect width="100" height="10" x="815" y="115" fill="#4ecdc4" opacity=".7" rx="3"/><rect width="200" height="6" x="815" y="138" fill="#ccc" rx="3"/><rect width="170" height="6" x="815" y="152" fill="#ccc" rx="3"/><rect width="200" height="10" x="815" y="175" fill="none" stroke="#ddd" stroke-dasharray="6 3" stroke-width="2" rx="5"/><rect width="120" height="10" x="815" y="175" fill="#ffd93d" opacity=".5" rx="5"/><path stroke="#ff6b6b" stroke-linecap="round" stroke-width="3" d="m985 220 20 20M1005 220l-20 20" opacity=".5"/></g><g transform="rotate(2 260 475)"><rect width="60" height="18" x="180" y="382" fill="#ff6b6b" opacity=".6" rx="2"/><path stroke="#fff" d="M190 383v17M202 383v17M214 383v17M226 383v17" opacity=".3"/><rect width="240" height="170" x="140" y="395" fill="#fffef5" stroke="#2c2c2c" stroke-dasharray="10 5" stroke-width="2.5" rx="8"/><rect width="70" height="10" x="165" y="425" fill="#ffd93d" opacity=".7" rx="3"/><rect width="190" height="6" x="165" y="448" fill="#ccc" rx="3"/><rect width="150" height="6" x="165" y="462" fill="#ccc" rx="3"/><rect width="180" height="6" x="165" y="476" fill="#ccc" rx="3"/><rect width="90" height="28" x="165" y="500" fill="none" stroke="#4ecdc4" stroke-dasharray="8 4" stroke-width="2.5" rx="6"/><rect width="60" height="8" x="180" y="509" fill="#4ecdc4" opacity=".5" rx="4"/></g><g transform="rotate(-1 920 475)"><rect width="70" height="18" x="850" y="382" fill="#ffd93d" opacity=".7" rx="2"/><path stroke="#fff" d="M860 383v17M872 383v17M884 383v17M896 383v17M908 383v17" opacity=".3"/><rect width="250" height="170" x="790" y="395" fill="#fffef5" stroke="#2c2c2c" stroke-dasharray="10 5" stroke-width="2.5" rx="8"/><rect width="90" height="10" x="815" y="425" fill="#ff6b6b" opacity=".7" rx="3"/><rect width="200" height="6" x="815" y="448" fill="#ccc" rx="3"/><rect width="165" height="6" x="815" y="462" fill="#ccc" rx="3"/><rect width="25" height="40" x="815" y="500" fill="#ffd93d" stroke="#2c2c2c" stroke-dasharray="4 3" stroke-width="1.5" opacity=".4" rx="3"/><rect width="25" height="30" x="850" y="510" fill="#4ecdc4" stroke="#2c2c2c" stroke-dasharray="4 3" stroke-width="1.5" opacity=".4" rx="3"/><rect width="25" height="45" x="885" y="495" fill="#ff6b6b" stroke="#2c2c2c" stroke-dasharray="4 3" stroke-width="1.5" opacity=".4" rx="3"/><rect width="25" height="25" x="920" y="515" fill="#ffd93d" stroke="#2c2c2c" stroke-dasharray="4 3" stroke-width="1.5" opacity=".4" rx="3"/></g><path fill="none" stroke="#4ecdc4" stroke-linecap="round" stroke-width="2.5" d="M430 230q20-20 40 0t40 0 40 0" opacity=".4"/><path fill="none" stroke="#ff6b6b" stroke-linecap="round" stroke-width="2.5" d="M650 380q20-20 40 0t40 0 40 0" opacity=".4"/><text x="600" y="295" fill="#2c2c2c" font-family="'Comic Sans MS', 'Segoe UI', system-ui, sans-serif" font-size="48" font-weight="900" text-anchor="middle" transform="rotate(-1.5 600 295)">HAND-DRAWN</text><text x="600" y="345" fill="#ff6b6b" font-family="'Comic Sans MS', 'Segoe UI', system-ui, sans-serif" font-size="48" font-weight="900" text-anchor="middle" transform="rotate(1 600 345)">DOODLE</text><path fill="none" stroke="#2c2c2c" stroke-linecap="round" stroke-width="2" d="M510 350c20 10 40 15 60 12" opacity=".3"/><path fill="none" stroke="#2c2c2c" stroke-linecap="round" stroke-linejoin="round" stroke-width="2" d="m564 356 6 6-8 2" opacity=".3"/><path fill="#ffd93d" fill-opacity=".2" stroke="#ffd93d" stroke-linejoin="round" stroke-width="2.5" d="m700 270 7-20 7 20-18-12h26Z" opacity=".5"/></svg>