<svg xmlns="http://www.w3.org/2000/svg" viewBox="0 0 1200 630"><defs><linearGradient id="c" x1="0" x2="1" y1="0" y2="0"><stop offset="0%" stop-color="#e8a87c"/><stop offset="50%" stop-color="#f5d88a"/><stop offset="100%" stop-color="#e8a87c"/></linearGradient><linearGradient id="d" x1="0" x2="1" y1="0" y2="0"><stop offset="0%" stop-color="#c0392b"/><stop offset="60%" stop-color="#e74c3c"/><stop offset="100%" stop-color="#a83024"/></linearGradient><filter id="b" width="130%" height="130%" x="-10%" y="-10%"><feDropShadow dx="2" dy="3" flood-color="#c0392b" flood-opacity=".12" stdDeviation="3"/><feDropShadow dx="4" dy="6" flood-color="#d4956a" flood-opacity=".1" stdDeviation="5"/><feDropShadow dx="6" dy="10" flood-color="#2c3e50" flood-opacity=".08" stdDeviation="8"/></filter><filter id="e" width="130%" height="130%" x="-10%" y="-10%"><feDropShadow dx="1" dy="2" flood-color="#e8a87c" flood-opacity=".15" stdDeviation="2"/><feDropShadow dx="3" dy="5" flood-color="#c0392b" flood-opacity=".1" stdDeviation="4"/><feDropShadow dx="5" dy="8" flood-color="#2c3e50" flood-opacity=".07" stdDeviation="6"/></filter><pattern id="a" width="6" height="6" x="0" y="0" patternUnits="userSpaceOnUse"><path fill="#f5f0e0" d="M0 0h6v6H0z"/><path fill="#ede5d0" d="M0 0h3v3H0z" opacity=".2"/><path fill="#e8dcc8" d="M3 3h3v3H3z" opacity=".15"/></pattern></defs><path fill="#f5f0e0" d="M0 0h1200v630H0z"/><path fill="url(#a)" d="M0 0h1200v630H0z"/><circle cx="200" cy="180" r="80" fill="#f5d88a" opacity=".1"/><circle cx="1000" cy="400" r="70" fill="#f5d88a" opacity=".08"/><circle cx="600" cy="520" r="60" fill="#e8a87c" opacity=".06"/><g filter="url(#b)"><rect width="260" height="175" x="65" y="95" fill="url(#a)" rx="8"/><rect width="260" height="175" x="65" y="95" fill="#fff" opacity=".75" rx="8"/><rect width="100" height="10" x="92" y="124" fill="url(#c)" opacity=".75" rx="5"/><rect width="205" height="6" x="92" y="148" fill="#8b7d6b" opacity=".35" rx="3"/><rect width="175" height="6" x="92" y="164" fill="#8b7d6b" opacity=".3" rx="3"/><rect width="150" height="6" x="92" y="180" fill="#8b7d6b" opacity=".25" rx="3"/><rect width="205" height="4" x="92" y="206" fill="#e8a87c" opacity=".3" rx="2" transform="rotate(-.5 194 208)"/><rect width="205" height="4" x="92" y="214" fill="#d4956a" opacity=".25" rx="2" transform="rotate(.5 194 216)"/><rect width="75" height="24" x="92" y="232" fill="#c0392b" opacity=".18" rx="4"/><rect width="50" height="5" x="104" y="241" fill="#c0392b" opacity=".5" rx="2.5"/></g><g filter="url(#b)"><rect width="255" height="195" x="870" y="75" fill="url(#a)" rx="8"/><rect width="255" height="195" x="870" y="75" fill="#fff" opacity=".75" rx="8"/><rect width="110" height="10" x="900" y="106" fill="url(#d)" opacity=".65" rx="5"/><rect width="195" height="6" x="900" y="132" fill="#8b7d6b" opacity=".35" rx="3"/><rect width="165" height="6" x="900" y="148" fill="#8b7d6b" opacity=".3" rx="3"/><rect width="140" height="6" x="900" y="164" fill="#8b7d6b" opacity=".25" rx="3"/><rect width="195" height="8" x="900" y="190" fill="#ede5d0" opacity=".5" rx="4"/><rect width="130" height="8" x="900" y="190" fill="url(#d)" opacity=".4" rx="4"/><circle cx="1075" cy="238" r="18" fill="#c0392b" opacity=".12"/><text x="1075" y="243" fill="#c0392b" font-family="Georgia, serif" font-size="12" font-weight="600" opacity=".55" text-anchor="middle">67</text></g><g filter="url(#e)"><rect width="235" height="155" x="100" y="375" fill="url(#a)" rx="8"/><rect width="235" height="155" x="100" y="375" fill="#fff" opacity=".7" rx="8"/><rect width="85" height="9" x="128" y="403" fill="#1abc9c" opacity=".55" rx="4.5"/><rect width="50" height="50" x="128" y="426" fill="#1abc9c" opacity=".1" rx="8"/><rect width="115" height="5" x="190" y="433" fill="#8b7d6b" opacity=".3" rx="2.5"/><rect width="90" height="5" x="190" y="448" fill="#8b7d6b" opacity=".25" rx="2.5"/><rect width="100" height="5" x="190" y="463" fill="#8b7d6b" opacity=".22" rx="2.5"/><rect width="175" height="4" x="128" y="496" fill="#1abc9c" opacity=".25" rx="2" transform="rotate(.5 215 498)"/></g><g filter="url(#b)"><rect width="275" height="185" x="845" y="345" fill="url(#a)" rx="8"/><rect width="275" height="185" x="845" y="345" fill="#fff" opacity=".7" rx="8"/><rect width="120" height="10" x="878" y="376" fill="url(#c)" opacity=".7" rx="5"/><rect width="210" height="8" x="878" y="404" fill="#ede5d0" opacity=".45" rx="4"/><rect width="160" height="8" x="878" y="404" fill="#e8a87c" opacity=".45" rx="4"/><rect width="210" height="8" x="878" y="424" fill="#ede5d0" opacity=".45" rx="4"/><rect width="100" height="8" x="878" y="424" fill="#c0392b" opacity=".35" rx="4"/><rect width="210" height="8" x="878" y="444" fill="#ede5d0" opacity=".45" rx="4"/><rect width="180" height="8" x="878" y="444" fill="#1abc9c" opacity=".35" rx="4"/><rect width="85" height="28" x="878" y="476" fill="#2c3e50" opacity=".12" rx="4"/><text x="920" y="495" fill="#2c3e50" font-family="Georgia, serif" font-size="11" font-weight="500" opacity=".5" text-anchor="middle">Details</text></g><g filter="url(#e)"><rect width="170" height="110" x="400" y="105" fill="url(#a)" rx="8"/><rect width="170" height="110" x="400" y="105" fill="#fff" opacity=".65" rx="8"/><rect width="65" height="8" x="425" y="130" fill="#f5d88a" opacity=".6" rx="4"/><rect width="120" height="5" x="425" y="150" fill="#8b7d6b" opacity=".3" rx="2.5"/><rect width="95" height="5" x="425" y="165" fill="#8b7d6b" opacity=".25" rx="2.5"/><rect width="55" height="18" x="425" y="185" fill="#e8a87c" opacity=".2" rx="4"/><rect width="38" height="5" x="434" y="191" fill="#e8a87c" opacity=".5" rx="2.5"/></g><rect width="80" height="4" x="480" y="460" fill="#e8a87c" opacity=".12" rx="2" transform="rotate(-3 520 462)"/><rect width="60" height="3" x="680" y="140" fill="#c0392b" opacity=".1" rx="1.5" transform="rotate(2 710 141)"/><text x="600" y="302" fill="#2c3e50" font-family="Georgia, 'Palatino Linotype', serif" font-size="70" font-weight="700" opacity=".9" text-anchor="middle">IMPRESSIONIST OIL</text><text x="600" y="342" fill="#e8a87c" font-family="Georgia, 'Palatino Linotype', serif" font-size="16" letter-spacing="5" opacity=".65" text-anchor="middle">BRUSHSTROKES OF LIGHT AND COLOR</text><circle cx="530" cy="430" r="4" fill="#f5d88a" opacity=".15"/><circle cx="700" cy="500" r="3" fill="#e8a87c" opacity=".12"/></svg>