<svg xmlns="http://www.w3.org/2000/svg" width="1200" height="630" fill="none" viewBox="0 0 1200 630"><path fill="#f8f5f0" d="M0 0h1200v630H0z"/><path d="M200 100 Q 400 80, 500 200 Q 600 350, 700 250 Q 800 150, 900 300 Q 950 400, 1000 350" stroke="#2c2c2c" stroke-width="3" fill="none" opacity=".15"/><path d="M150 200 Q 300 150, 400 300 Q 500 450, 650 350 Q 750 280, 850 400" stroke="#2c2c2c" stroke-width="2" fill="none" opacity=".08"/><circle cx="350" cy="280" r="60" fill="#2c2c2c" opacity=".06"/><circle cx="380" cy="260" r="40" fill="#2c2c2c" opacity=".04"/><circle cx="700" cy="350" r="80" fill="#6b7b6e" opacity=".05"/><path d="M500 500 Q 600 450, 750 480 Q 900 510, 1050 470" stroke="#a89279" stroke-width="1.5" fill="none" opacity=".12"/><text x="600" y="300" fill="#2c2c2c" font-family="Georgia, 'SimSun', serif" font-size="72" font-weight="300" text-anchor="middle" opacity=".85">水墨</text><text x="600" y="360" fill="#6b7b6e" font-family="Georgia, serif" font-size="20" letter-spacing=".3em" text-anchor="middle" opacity=".5">INK WASH</text><path d="M400 400h400" stroke="#2c2c2c" stroke-width=".5" opacity=".2"/><text x="600" y="440" fill="#a89279" font-family="Georgia, serif" font-size="13" font-style="italic" letter-spacing=".15em" text-anchor="middle" opacity=".4">Emptiness is form</text></svg>