<svg xmlns="http://www.w3.org/2000/svg" viewBox="0 0 1200 630"><defs><pattern id="a" width="6" height="6" x="0" y="0" patternUnits="userSpaceOnUse"><path fill="#fafaf8" d="M0 0h6v6H0z"/><path fill="#e8e8e4" d="M0 0h1v1H0z" opacity=".12"/><path fill="#e8e8e4" d="M3 3h1v1H3z" opacity=".08"/></pattern></defs><path fill="#fafaf8" d="M0 0h1200v630H0z"/><path fill="url(#a)" d="M0 0h1200v630H0z"/><circle cx="1050" cy="520" r="80" fill="#98d8c8" opacity=".06"/><circle cx="150" cy="120" r="60" fill="#ffb7c5" opacity=".05"/><rect width="280" height="200" x="60" y="80" fill="#fefefe" stroke="#d4d4cf" stroke-width=".5" rx="4"/><text x="92" y="120" fill="#4a5568" font-family="Georgia, 'Times New Roman', serif" font-size="14" font-weight="400" letter-spacing="1">Overview</text><path stroke="#d4d4cf" stroke-width=".5" d="M92 130h108" opacity=".6"/><rect width="180" height="4" x="92" y="150" fill="#d4d4cf" opacity=".45" rx="2"/><rect width="150" height="4" x="92" y="168" fill="#d4d4cf" opacity=".4" rx="2"/><rect width="170" height="4" x="92" y="186" fill="#d4d4cf" opacity=".4" rx="2"/><rect width="120" height="4" x="92" y="204" fill="#d4d4cf" opacity=".35" rx="2"/><rect width="200" height="3" x="92" y="232" fill="#e8e8e4" rx="1.5"/><rect width="140" height="3" x="92" y="232" fill="#98d8c8" opacity=".5" rx="1.5"/><g fill="none" stroke="#b8c4b8" stroke-width=".5" opacity=".3"><path d="M295 240c-3-15-5-30-2-45"/><path d="M293 210c7-3 13-10 17-15M293 220c-7-3-13-8-16-13"/></g><rect width="270" height="210" x="870" y="60" fill="#fefefe" stroke="#d4d4cf" stroke-width=".5" rx="4"/><text x="902" y="100" fill="#4a5568" font-family="Georgia, 'Times New Roman', serif" font-size="14" font-weight="400" letter-spacing="1">Schedule</text><path stroke="#d4d4cf" stroke-width=".5" d="M902 110h98" opacity=".6"/><text x="902" y="136" fill="#a0aec0" font-family="Georgia, serif" font-size="10" opacity=".7">09:00</text><rect width="150" height="4" x="946" y="130" fill="#d4d4cf" opacity=".4" rx="2"/><text x="902" y="162" fill="#a0aec0" font-family="Georgia, serif" font-size="10" opacity=".7">11:30</text><rect width="130" height="4" x="946" y="156" fill="#d4d4cf" opacity=".4" rx="2"/><text x="902" y="188" fill="#a0aec0" font-family="Georgia, serif" font-size="10" opacity=".7">14:00</text><rect width="140" height="4" x="946" y="182" fill="#d4d4cf" opacity=".4" rx="2"/><text x="902" y="214" fill="#a0aec0" font-family="Georgia, serif" font-size="10" opacity=".7">16:00</text><rect width="110" height="4" x="946" y="208" fill="#d4d4cf" opacity=".35" rx="2"/><rect width="70" height="20" x="902" y="234" fill="none" stroke="#d4d4cf" stroke-width=".5" rx="3"/><text x="937" y="248" fill="#a0aec0" font-family="Georgia, serif" font-size="9" text-anchor="middle">View all</text><rect width="250" height="185" x="80" y="380" fill="#fefefe" stroke="#d4d4cf" stroke-width=".5" rx="4"/><text x="112" y="418" fill="#4a5568" font-family="Georgia, 'Times New Roman', serif" font-size="14" font-weight="400" letter-spacing="1">Notes</text><path stroke="#d4d4cf" stroke-width=".5" d="M112 428h83" opacity=".6"/><rect width="180" height="4" x="112" y="448" fill="#d4d4cf" opacity=".45" rx="2"/><rect width="160" height="4" x="112" y="468" fill="#d4d4cf" opacity=".4" rx="2"/><rect width="170" height="4" x="112" y="488" fill="#d4d4cf" opacity=".4" rx="2"/><rect width="130" height="4" x="112" y="508" fill="#d4d4cf" opacity=".35" rx="2"/><g fill="none" stroke="#b8c4b8" stroke-width=".5" opacity=".25"><path d="M290 540c-2-20-5-40-2-60"/><path d="M288 500c8-4 14-10 18-16M288 515c-8-3-14-9-18-15"/><circle cx="288" cy="478" r="3"/></g><rect width="280" height="195" x="860" y="370" fill="#fefefe" stroke="#d4d4cf" stroke-width=".5" rx="4"/><text x="892" y="408" fill="#4a5568" font-family="Georgia, 'Times New Roman', serif" font-size="14" font-weight="400" letter-spacing="1">Metrics</text><path stroke="#d4d4cf" stroke-width=".5" d="M892 418h83" opacity=".6"/><text x="892" y="444" fill="#a0aec0" font-family="Georgia, serif" font-size="10" opacity=".65">Visitors</text><rect width="140" height="3" x="960" y="437" fill="#e8e8e4" rx="1.5"/><rect width="110" height="3" x="960" y="437" fill="#64b5f6" opacity=".4" rx="1.5"/><text x="892" y="470" fill="#a0aec0" font-family="Georgia, serif" font-size="10" opacity=".65">Sessions</text><rect width="140" height="3" x="960" y="463" fill="#e8e8e4" rx="1.5"/><rect width="85" height="3" x="960" y="463" fill="#98d8c8" opacity=".45" rx="1.5"/><text x="892" y="496" fill="#a0aec0" font-family="Georgia, serif" font-size="10" opacity=".65">Pages</text><rect width="140" height="3" x="960" y="489" fill="#e8e8e4" rx="1.5"/><rect width="120" height="3" x="960" y="489" fill="#ffb7c5" opacity=".4" rx="1.5"/><rect width="75" height="20" x="892" y="520" fill="none" stroke="#d4d4cf" stroke-width=".5" rx="3"/><text x="929" y="534" fill="#a0aec0" font-family="Georgia, serif" font-size="9" text-anchor="middle">Details</text><path stroke="#d4d4cf" stroke-width=".5" d="M60 45h290M60 45v20M850 585h290M1140 575v10" opacity=".5"/><circle cx="460" cy="320" r="2" fill="#98d8c8" opacity=".45"/><circle cx="740" cy="320" r="2" fill="#ffb7c5" opacity=".45"/><text x="600" y="290" fill="#3d4a5c" font-family="'Inter', 'Hiragino Sans', 'Noto Sans JP', sans-serif" font-size="64" font-weight="200" letter-spacing="3" text-anchor="middle">JAPANESE FRESH</text><path stroke="#d4d4cf" stroke-width=".5" d="M470 310h260" opacity=".55"/><text x="600" y="345" fill="#a0aec0" font-family="'Inter', 'Hiragino Sans', sans-serif" font-size="14" font-weight="200" letter-spacing="10" opacity=".55" text-anchor="middle">MA / WABI-SABI / BREATH</text></svg>