<svg xmlns="http://www.w3.org/2000/svg" viewBox="0 0 1200 630"><defs><linearGradient id="a" x1="0" x2="0" y1="0" y2="630" gradientUnits="userSpaceOnUse"><stop offset="0%" stop-color="#8b5cf6" stop-opacity=".22"/><stop offset="60%" stop-color="#8b5cf6" stop-opacity="0"/></linearGradient></defs><path fill="#0b0b16" d="M0 0h1200v630H0z"/><path fill="url(#a)" d="M0 0h1200v630H0z"/><g stroke="#eef2ff" opacity=".08"><path d="M0 105h1200M0 210h1200M0 315h1200M0 420h1200M0 525h1200M150 0v630M300 0v630M450 0v630M600 0v630M750 0v630M900 0v630M1050 0v630"/></g><path fill="#1a1a2e" stroke="#8b5cf6" stroke-width="6" d="M290 160h620v310H290z"/><path fill="#111126" stroke="#fbbf24" stroke-width="4" d="M320 190h560v250H320z" opacity=".95"/><path fill="#eef2ff" d="M350 220h210v14H350z" opacity=".8"/><path fill="#fbbf24" d="M760 220h90v14h-90z" opacity=".9"/><path fill="#fff" stroke="#fff" stroke-opacity=".18" d="M350 270h500v18H350z" opacity=".08"/><path fill="#ef4444" d="M351 271h360v16H351z"/><path fill="#fff" stroke="#fff" stroke-opacity=".18" d="M350 308h500v18H350z" opacity=".08"/><path fill="#22c55e" d="M351 309h270v16H351z"/><path fill="#0b0b16" stroke="#fbbf24" stroke-width="4" d="M350 365h180v46H350z"/><text x="600" y="130" fill="#eef2ff" font-family="'Helvetica Neue', Helvetica, Arial, sans-serif" font-size="86" font-weight="900" letter-spacing="3" text-anchor="middle">JRPG</text><text x="600" y="510" fill="#fbbf24" font-family="'Helvetica Neue', Helvetica, Arial, sans-serif" font-size="16" font-weight="800" letter-spacing="6" text-anchor="middle">CLASSIC STATUS UI</text></svg>