<svg xmlns="http://www.w3.org/2000/svg" fill="none" viewBox="0 0 1200 630"><defs><linearGradient id="a" x1="0%" x2="100%" y1="0%" y2="100%"><stop offset="0%" stop-color="#1a1a2e"/><stop offset="50%" stop-color="#16213e"/><stop offset="100%" stop-color="#0f0f23"/></linearGradient><linearGradient id="c" x1="0%" x2="100%" y1="0%" y2="100%"><stop offset="0%" stop-color="#ff6b6b"/><stop offset="25%" stop-color="#ffd93d"/><stop offset="50%" stop-color="#6bcb77"/><stop offset="75%" stop-color="#4d96ff"/><stop offset="100%" stop-color="#a855f7"/></linearGradient><linearGradient id="h" x1="0%" x2="100%" y1="0%" y2="0%"><stop offset="0%" stop-color="#ff6b6b"/><stop offset="20%" stop-color="#ffd93d"/><stop offset="40%" stop-color="#6bcb77"/><stop offset="60%" stop-color="#4d96ff"/><stop offset="80%" stop-color="#a855f7"/><stop offset="100%" stop-color="#ff6b6b"/></linearGradient><linearGradient id="e" x1="0%" x2="0%" y1="0%" y2="100%"><stop offset="0%" stop-color="rgba(255,255,255,0.15)"/><stop offset="100%" stop-color="rgba(255,255,255,0.05)"/></linearGradient><linearGradient id="g" x1="0%" x2="0%" y1="0%" y2="100%"><stop offset="0%" stop-color="rgba(255,255,255,0.3)"/><stop offset="100%" stop-color="rgba(255,255,255,0)"/></linearGradient><filter id="d" width="200%" height="200%" x="-50%" y="-50%"><feGaussianBlur result="coloredBlur" stdDeviation="8"/><feMerge><feMergeNode in="coloredBlur"/><feMergeNode in="SourceGraphic"/></feMerge></filter><filter id="b" width="200%" height="200%" x="-50%" y="-50%"><feGaussianBlur result="coloredBlur" stdDeviation="15"/><feMerge><feMergeNode in="coloredBlur"/><feMergeNode in="SourceGraphic"/></feMerge></filter><filter id="f" width="200%" height="200%" x="-50%" y="-50%"><feDropShadow dx="0" dy="8" flood-color="#000" flood-opacity=".3" stdDeviation="16"/></filter></defs><path fill="url(#a)" d="M0 0h1200v630H0z"/><circle cx="150" cy="100" r="80" fill="#ff6b6b" filter="url(#b)" opacity=".15"/><circle cx="1050" cy="530" r="100" fill="#a855f7" filter="url(#b)" opacity=".12"/><circle cx="600" cy="315" r="150" fill="#4d96ff" filter="url(#b)" opacity=".08"/><g transform="translate(60 80)"><rect width="242" height="162" x="-1" y="-1" fill="url(#c)" filter="url(#d)" rx="25"/><rect width="240" height="160" fill="url(#e)" filter="url(#f)" rx="24"/><rect width="240" height="40" fill="url(#g)" rx="24"/><rect width="120" height="8" x="20" y="60" fill="rgba(255,255,255,0.4)" rx="4"/><rect width="180" height="6" x="20" y="80" fill="rgba(255,255,255,0.2)" rx="3"/><rect width="140" height="6" x="20" y="96" fill="rgba(255,255,255,0.2)" rx="3"/><rect width="160" height="6" x="20" y="112" fill="rgba(255,255,255,0.2)" rx="3"/><rect width="60" height="20" x="20" y="130" fill="url(#c)" opacity=".8" rx="10"/></g><g transform="translate(900 100)"><rect width="182" height="52" x="-1" y="-1" fill="url(#c)" filter="url(#d)" rx="27"/><rect width="180" height="50" fill="url(#e)" rx="26"/><rect width="180" height="20" fill="url(#g)" rx="26"/><text x="90" y="32" fill="#fff" font-family="system-ui, -apple-system, sans-serif" font-size="14" font-weight="500" text-anchor="middle">Get Started</text><rect width="182" height="52" x="-1" y="64" stroke="url(#c)" rx="27"/><rect width="180" height="50" y="65" fill="rgba(255,255,255,0.05)" rx="26"/><text x="90" y="97" fill="rgba(255,255,255,0.8)" font-family="system-ui, -apple-system, sans-serif" font-size="14" font-weight="500" text-anchor="middle">Learn More</text><circle cx="210" cy="25" r="24" fill="url(#e)"/><circle cx="210" cy="25" r="25" stroke="url(#c)" filter="url(#d)"/><path stroke="#fff" stroke-linecap="round" stroke-width="2" d="M203 25h14m-7-7v14"/></g><g transform="translate(80 380)"><rect width="180" height="120" x="40" y="-20" fill="rgba(255,255,255,0.05)" filter="url(#f)" rx="20"/><rect width="182" height="122" x="39" y="-21" stroke="rgba(255,255,255,0.1)" rx="21"/><rect width="180" height="120" x="20" y="10" fill="rgba(255,255,255,0.08)" filter="url(#f)" rx="20"/><rect width="182" height="122" x="19" y="9" stroke="rgba(255,255,255,0.15)" rx="21"/><rect width="182" height="122" x="-1" y="39" fill="url(#c)" filter="url(#d)" rx="21"/><rect width="180" height="120" y="40" fill="url(#e)" rx="20"/><rect width="180" height="35" y="40" fill="url(#g)" rx="20"/><rect width="100" height="6" x="15" y="90" fill="rgba(255,255,255,0.4)" rx="3"/><rect width="150" height="5" x="15" y="104" fill="rgba(255,255,255,0.2)" rx="2.5"/><rect width="120" height="5" x="15" y="116" fill="rgba(255,255,255,0.2)" rx="2.5"/><rect width="50" height="16" x="15" y="135" fill="url(#h)" opacity=".7" rx="8"/></g><g transform="translate(880 420)"><rect width="242" height="52" x="-1" y="-1" stroke="url(#c)" filter="url(#d)" rx="17"/><rect width="240" height="50" fill="rgba(255,255,255,0.05)" rx="16"/><text x="20" y="32" fill="rgba(255,255,255,0.4)" font-family="system-ui, -apple-system, sans-serif" font-size="14">Enter your email...</text><g transform="translate(0 70)"><rect width="70" height="28" fill="url(#c)" filter="url(#d)" opacity=".9" rx="14"/><text x="35" y="18" fill="#fff" font-family="system-ui, -apple-system, sans-serif" font-size="11" font-weight="500" text-anchor="middle">New</text><rect width="80" height="28" x="80" fill="rgba(255,255,255,0.1)" rx="14"/><rect width="82" height="30" x="79" y="-1" stroke="url(#c)" rx="15"/><text x="120" y="18" fill="#fff" font-family="system-ui, -apple-system, sans-serif" font-size="11" font-weight="500" text-anchor="middle">Featured</text><rect width="70" height="28" x="170" fill="rgba(77,150,255,0.2)" rx="14"/><text x="205" y="18" fill="#4d96ff" font-family="system-ui, -apple-system, sans-serif" font-size="11" font-weight="500" text-anchor="middle">Pro</text></g></g><g transform="translate(600 315)"><text fill="url(#c)" filter="url(#b)" font-family="system-ui, -apple-system, sans-serif" font-size="56" font-weight="700" opacity=".5" text-anchor="middle">Liquid Glass</text><text fill="#fff" font-family="system-ui, -apple-system, sans-serif" font-size="56" font-weight="700" text-anchor="middle">Liquid Glass</text><text y="40" fill="rgba(255,255,255,0.6)" font-family="system-ui, -apple-system, sans-serif" font-size="18" font-weight="400" text-anchor="middle">Apple WWDC 2025 Design Language</text><rect width="200" height="3" x="-100" y="60" fill="url(#h)" filter="url(#d)" rx="1.5"/></g><g opacity=".6"><circle cx="350" cy="150" r="15" fill="rgba(255,255,255,0.1)" stroke="url(#c)"/><circle cx="850" cy="280" r="12" fill="rgba(255,255,255,0.08)" stroke="rgba(255,255,255,0.2)"/><circle cx="450" cy="480" r="18" fill="rgba(255,255,255,0.06)" stroke="url(#c)"/><ellipse cx="700" cy="520" fill="rgba(168,85,247,0.1)" filter="url(#b)" rx="60" ry="30"/><ellipse cx="200" cy="320" fill="rgba(255,107,107,0.08)" filter="url(#b)" rx="40" ry="25"/></g></svg>