<svg xmlns="http://www.w3.org/2000/svg" fill="none" viewBox="0 0 1200 630"><defs><filter id="a" width="140%" height="140%" x="-20%" y="-20%"><feGaussianBlur in="SourceGraphic" result="blur" stdDeviation="3"/><feFlood flood-color="#d4a843" result="color"/><feComposite in="color" in2="blur" operator="in" result="glow"/><feMerge><feMergeNode in="glow"/><feMergeNode in="SourceGraphic"/></feMerge></filter><filter id="b" width="120%" height="120%" x="-10%" y="-10%"><feGaussianBlur in="SourceGraphic" result="blur" stdDeviation="5"/><feMerge><feMergeNode in="blur"/><feMergeNode in="SourceGraphic"/></feMerge></filter></defs><path fill="#0a0a14" d="M0 0h1200v630H0z"/><g stroke="#d4a843" opacity=".05"><circle cx="600" cy="315" r="200"/><circle cx="600" cy="315" r="180"/><circle cx="600" cy="315" r="160"/><path d="m600 135 174 280H426z"/><path d="M600 495 426 215h348zM600 115v400M400 315h400"/></g><g fill="#d4a843" opacity=".08"><circle cx="200" cy="100" r="2"/><circle cx="220" cy="80" r="1.5"/><circle cx="1000" cy="550" r="2"/><circle cx="1020" cy="530" r="1.5"/><circle cx="100" cy="500" r="1.5"/><circle cx="1100" cy="130" r="2"/><circle cx="300" cy="580" r="1.5"/><circle cx="900" cy="60" r="2"/></g><g filter="url(#a)"><path fill="#0f0f22" stroke="#d4a843" stroke-width="1.5" d="M120 90h230l20 15v150l-20 15H120l-20-15V105z"/></g><path stroke="#d4a843" stroke-width=".63" d="M120 88.5h241.5l21 15.75v157.5l-21 15.75H120l-21-15.75v-157.5z" opacity=".4" transform-origin="235 180"/><path stroke="#d4a843" stroke-width=".44000000000000006" d="M120 87h253l22 16.5v165L373 285H120l-22-16.5v-165z" opacity=".25" transform-origin="235 180"/><rect width="90" height="8" x="130" y="120" fill="#d4a843" opacity=".7" rx="2"/><rect width="200" height="4" x="130" y="140" fill="#2a2a44" rx="2"/><rect width="180" height="4" x="130" y="152" fill="#2a2a44" rx="2"/><path stroke="#d4a843" stroke-width=".8" d="M130 170h200" opacity=".3"/><circle cx="160" cy="170" r="3" stroke="#d4a843" stroke-width=".6" opacity=".4"/><circle cx="200" cy="170" r="3" stroke="#d4a843" stroke-width=".6" opacity=".4"/><circle cx="240" cy="170" r="3" stroke="#d4a843" stroke-width=".6" opacity=".4"/><circle cx="280" cy="170" r="3" stroke="#d4a843" stroke-width=".6" opacity=".4"/><rect width="160" height="8" x="130" y="190" fill="#1a1a30" rx="2"/><rect width="110" height="8" x="130" y="190" fill="#d4a843" opacity=".35" rx="2"/><rect width="160" height="8" x="130" y="206" fill="#1a1a30" rx="2"/><rect width="80" height="8" x="130" y="206" fill="#d4a843" opacity=".25" rx="2"/><g filter="url(#a)"><path fill="#0f0f22" stroke="#d4a843" stroke-width="1.5" d="M470 70h260l20 15v175l-20 15H470l-20-15V85z"/></g><path stroke="#d4a843" stroke-width=".63" d="M486.5 66.5h273l21 15.75V266l-21 15.75h-273l-21-15.75V82.25z" opacity=".4" transform-origin="600 172"/><path stroke="#d4a843" stroke-width=".44000000000000006" d="M503 63h286l22 16.5V272l-22 16.5H503L481 272V79.5z" opacity=".25" transform-origin="600 172"/><rect width="110" height="8" x="480" y="100" fill="#d4a843" opacity=".7" rx="2"/><rect width="240" height="4" x="480" y="120" fill="#2a2a44" rx="2"/><rect width="220" height="4" x="480" y="132" fill="#2a2a44" rx="2"/><rect width="200" height="4" x="480" y="144" fill="#2a2a44" rx="2"/><path stroke="#d4a843" stroke-width=".8" d="M480 165h240" opacity=".3"/><circle cx="510" cy="165" r="3" stroke="#d4a843" stroke-width=".6" opacity=".4"/><circle cx="560" cy="165" r="3" stroke="#d4a843" stroke-width=".6" opacity=".4"/><circle cx="610" cy="165" r="3" stroke="#d4a843" stroke-width=".6" opacity=".4"/><circle cx="660" cy="165" r="3" stroke="#d4a843" stroke-width=".6" opacity=".4"/><rect width="200" height="8" x="480" y="185" fill="#1a1a30" rx="2"/><rect width="150" height="8" x="480" y="185" fill="#d4a843" opacity=".35" rx="2"/><rect width="200" height="8" x="480" y="201" fill="#1a1a30" rx="2"/><rect width="100" height="8" x="480" y="201" fill="#d4a843" opacity=".25" rx="2"/><path stroke="#d4a843" d="M480 225h80l10 7v13l-10 7h-80l-10-7v-13z" opacity=".6"/><rect width="40" height="5" x="488" y="234" fill="#d4a843" opacity=".5" rx="2"/><g filter="url(#a)"><path fill="#0f0f22" stroke="#d4a843" stroke-width="1.5" d="M830 90h230l20 15v150l-20 15H830l-20-15V105z"/></g><path stroke="#d4a843" stroke-width=".63" d="M865.5 88.5H1107l21 15.75v157.5l-21 15.75H865.5l-21-15.75v-157.5z" opacity=".4" transform-origin="945 180"/><path stroke="#d4a843" stroke-width=".44000000000000006" d="M901 87h253l22 16.5v165l-22 16.5H901l-22-16.5v-165z" opacity=".25" transform-origin="945 180"/><rect width="80" height="8" x="840" y="120" fill="#d4a843" opacity=".7" rx="2"/><rect width="200" height="4" x="840" y="140" fill="#2a2a44" rx="2"/><rect width="170" height="4" x="840" y="152" fill="#2a2a44" rx="2"/><path stroke="#d4a843" stroke-width=".8" d="M840 170h200" opacity=".3"/><circle cx="870" cy="170" r="3" stroke="#d4a843" stroke-width=".6" opacity=".4"/><circle cx="910" cy="170" r="3" stroke="#d4a843" stroke-width=".6" opacity=".4"/><circle cx="950" cy="170" r="3" stroke="#d4a843" stroke-width=".6" opacity=".4"/><rect width="160" height="8" x="840" y="190" fill="#1a1a30" rx="2"/><rect width="120" height="8" x="840" y="190" fill="#d4a843" opacity=".35" rx="2"/><g filter="url(#a)"><path fill="#0f0f22" stroke="#d4a843" stroke-width="1.5" d="M200 380h280l20 15v165l-20 15H200l-20-15V395z"/></g><path stroke="#d4a843" stroke-width=".624" d="M201 388.2h291.2l20.8 15.6v171.6L492.2 591H201l-20.8-15.6V403.8z" opacity=".4" transform-origin="340 477"/><path stroke="#d4a843" stroke-width=".43200000000000005" d="M202 396.4h302.4l21.6 16.2v178.2L504.4 607H202l-21.6-16.2V412.6z" opacity=".25" transform-origin="340 477"/><rect width="100" height="8" x="215" y="408" fill="#d4a843" opacity=".7" rx="2"/><rect width="250" height="4" x="215" y="428" fill="#2a2a44" rx="2"/><rect width="230" height="4" x="215" y="440" fill="#2a2a44" rx="2"/><rect width="200" height="4" x="215" y="452" fill="#2a2a44" rx="2"/><path stroke="#d4a843" stroke-width=".8" d="M215 470h250" opacity=".3"/><rect width="200" height="8" x="215" y="488" fill="#1a1a30" rx="2"/><rect width="140" height="8" x="215" y="488" fill="#d4a843" opacity=".35" rx="2"/><rect width="200" height="8" x="215" y="506" fill="#1a1a30" rx="2"/><rect width="90" height="8" x="215" y="506" fill="#d4a843" opacity=".25" rx="2"/><g filter="url(#a)"><path fill="#0f0f22" stroke="#d4a843" stroke-width="1.5" d="M680 380h280l20 15v165l-20 15H680l-20-15V395z"/></g><path stroke="#d4a843" stroke-width=".624" d="M700.2 388.2h291.2l20.8 15.6v171.6L991.4 591H700.2l-20.8-15.6V403.8z" opacity=".4" transform-origin="820 477"/><path stroke="#d4a843" stroke-width=".43200000000000005" d="M720.4 396.4h302.4l21.6 16.2v178.2l-21.6 16.2H720.4l-21.6-16.2V412.6z" opacity=".25" transform-origin="820 477"/><rect width="90" height="8" x="695" y="408" fill="#d4a843" opacity=".7" rx="2"/><rect width="240" height="4" x="695" y="428" fill="#2a2a44" rx="2"/><rect width="210" height="4" x="695" y="440" fill="#2a2a44" rx="2"/><path stroke="#d4a843" stroke-width=".8" d="M695 460h250" opacity=".3"/><path stroke="#d4a843" d="M695 480h80l10 7v13l-10 7h-80l-10-7v-13z" opacity=".6"/><rect width="40" height="5" x="703" y="489" fill="#d4a843" opacity=".5" rx="2"/><path stroke="#d4a843" d="M800 480h80l10 7v13l-10 7h-80l-10-7v-13z" opacity=".4"/><rect width="40" height="5" x="808" y="489" fill="#d4a843" opacity=".35" rx="2"/><text x="600" y="340" fill="#d4a843" filter="url(#b)" font-family="Georgia, 'Times New Roman', serif" font-size="26" font-weight="bold" letter-spacing="6" text-anchor="middle">MAGIC CIRCLE</text></svg>