<svg xmlns="http://www.w3.org/2000/svg" viewBox="0 0 1200 630"><defs><pattern id="a" width="40" height="40" x="0" y="0" patternUnits="userSpaceOnUse"><path fill="none" d="M0 0h40v40H0z"/><path stroke="#3a5580" stroke-width=".3" d="M0 40h40M40 0v40" opacity=".25"/></pattern><pattern id="b" width="12" height="12" x="0" y="0" patternTransform="rotate(45)" patternUnits="userSpaceOnUse"><path fill="#f0c030" d="M0 0h6v12H0z"/><path fill="#1a2744" d="M6 0h6v12H6z"/></pattern><filter id="c" width="130%" height="130%" x="-10%" y="-10%"><feGaussianBlur in="SourceAlpha" stdDeviation="4"/><feOffset dx="2" dy="3" result="shadow"/><feFlood flood-color="#000" flood-opacity=".4"/><feComposite in2="shadow" operator="in"/><feMerge><feMergeNode/><feMergeNode in="SourceGraphic"/></feMerge></filter></defs><path fill="#1a2744" d="M0 0h1200v630H0z"/><path fill="url(#a)" d="M0 0h1200v630H0z"/><path fill="url(#b)" d="M0 0h1200v8H0z" opacity=".35"/><path fill="url(#b)" d="M0 622h1200v8H0z" opacity=".35"/><g filter="url(#c)"><rect width="280" height="200" x="60" y="80" fill="#0f1a2e" stroke="#4a6a8a" stroke-width="2" rx="2"/><path fill="#1a2744" stroke="#4a6a8a" d="M60 80h20l-20 20ZM340 80h-20l20 20Z"/><circle cx="72" cy="92" r="3" fill="#6a8aaa" opacity=".6"/><circle cx="328" cy="92" r="3" fill="#6a8aaa" opacity=".6"/><circle cx="72" cy="268" r="3" fill="#6a8aaa" opacity=".6"/><circle cx="328" cy="268" r="3" fill="#6a8aaa" opacity=".6"/><rect width="220" height="10" x="80" y="105" fill="url(#b)" opacity=".5" rx="1"/><text x="310" y="96" fill="#4a6a8a" font-family="ui-monospace, 'Courier New', monospace" font-size="7" opacity=".6" text-anchor="end">SYS-001</text><rect width="110" height="8" x="80" y="128" fill="#6aaa8a" opacity=".5" rx="1"/><text x="80" y="155" fill="#6a8aaa" font-family="ui-monospace, 'Courier New', monospace" font-size="9" opacity=".7">POWER</text><rect width="180" height="8" x="130" y="147" fill="#0a1020" rx="1"/><rect width="150" height="8" x="130" y="147" fill="#6aaa8a" opacity=".6" rx="1"/><text x="80" y="175" fill="#6a8aaa" font-family="ui-monospace, 'Courier New', monospace" font-size="9" opacity=".7">ARMOR</text><rect width="180" height="8" x="130" y="167" fill="#0a1020" rx="1"/><rect width="120" height="8" x="130" y="167" fill="#f0c030" opacity=".6" rx="1"/><text x="80" y="195" fill="#6a8aaa" font-family="ui-monospace, 'Courier New', monospace" font-size="9" opacity=".7">HEAT</text><rect width="180" height="8" x="130" y="187" fill="#0a1020" rx="1"/><rect width="70" height="8" x="130" y="187" fill="#d04040" opacity=".6" rx="1"/><path fill="none" stroke="#f0c030" stroke-width="1.5" d="m90 240 10-18 10 18Z" opacity=".5"/><text x="100" y="237" fill="#f0c030" font-family="ui-monospace, monospace" font-size="9" opacity=".5" text-anchor="middle">!</text><text x="120" y="237" fill="#6a8aaa" font-family="ui-monospace, 'Courier New', monospace" font-size="8" opacity=".5">HEAT WARNING</text></g><g filter="url(#c)"><rect width="270" height="220" x="860" y="60" fill="#0f1a2e" stroke="#4a6a8a" stroke-width="2" rx="2"/><path fill="#1a2744" stroke="#4a6a8a" d="M860 60h20l-20 20ZM1130 60h-20l20 20Z"/><circle cx="872" cy="72" r="3" fill="#6a8aaa" opacity=".6"/><circle cx="1118" cy="72" r="3" fill="#6a8aaa" opacity=".6"/><circle cx="872" cy="268" r="3" fill="#6a8aaa" opacity=".6"/><circle cx="1118" cy="268" r="3" fill="#6a8aaa" opacity=".6"/><rect width="210" height="10" x="880" y="85" fill="url(#b)" opacity=".5" rx="1"/><text x="1100" y="76" fill="#4a6a8a" font-family="ui-monospace, 'Courier New', monospace" font-size="7" opacity=".6" text-anchor="end">WPN-BAY</text><rect width="90" height="8" x="880" y="108" fill="#d04040" opacity=".5" rx="1"/><rect width="210" height="30" x="880" y="130" fill="#0a1020" stroke="#3a5580" stroke-width=".5" rx="2"/><rect width="60" height="5" x="890" y="137" fill="#6a8aaa" opacity=".4" rx="1"/><rect width="180" height="5" x="890" y="148" fill="#4a6a8a" opacity=".25" rx="1"/><rect width="210" height="30" x="880" y="168" fill="#0a1020" stroke="#3a5580" stroke-width=".5" rx="2"/><rect width="50" height="5" x="890" y="175" fill="#6a8aaa" opacity=".4" rx="1"/><rect width="180" height="5" x="890" y="186" fill="#4a6a8a" opacity=".25" rx="1"/><rect width="210" height="30" x="880" y="206" fill="#0a1020" stroke="#3a5580" stroke-width=".5" rx="2"/><rect width="70" height="5" x="890" y="213" fill="#6a8aaa" opacity=".4" rx="1"/><rect width="180" height="5" x="890" y="224" fill="#4a6a8a" opacity=".25" rx="1"/><text x="1080" y="148" fill="#6aaa8a" font-family="ui-monospace, monospace" font-size="8" opacity=".5" text-anchor="end">120/120</text><text x="1080" y="186" fill="#f0c030" font-family="ui-monospace, monospace" font-size="8" opacity=".5" text-anchor="end">45/80</text><text x="1080" y="224" fill="#d04040" font-family="ui-monospace, monospace" font-size="8" opacity=".5" text-anchor="end">8/20</text></g><g filter="url(#c)"><rect width="260" height="170" x="80" y="380" fill="#0f1a2e" stroke="#4a6a8a" stroke-width="2" rx="2"/><path fill="#1a2744" stroke="#4a6a8a" d="M80 380h20l-20 20ZM340 380h-20l20 20Z"/><circle cx="92" cy="392" r="3" fill="#6a8aaa" opacity=".6"/><circle cx="328" cy="392" r="3" fill="#6a8aaa" opacity=".6"/><circle cx="92" cy="538" r="3" fill="#6a8aaa" opacity=".6"/><circle cx="328" cy="538" r="3" fill="#6a8aaa" opacity=".6"/><rect width="200" height="10" x="100" y="405" fill="url(#b)" opacity=".5" rx="1"/><text x="310" y="396" fill="#4a6a8a" font-family="ui-monospace, 'Courier New', monospace" font-size="7" opacity=".6" text-anchor="end">NAV-SYS</text><rect width="80" height="8" x="100" y="428" fill="#6aaa8a" opacity=".5" rx="1"/><text x="100" y="455" fill="#6a8aaa" font-family="ui-monospace, 'Courier New', monospace" font-size="9" opacity=".6">LAT  35.6762</text><text x="100" y="470" fill="#6a8aaa" font-family="ui-monospace, 'Courier New', monospace" font-size="9" opacity=".6">LON 139.6503</text><text x="100" y="485" fill="#6a8aaa" font-family="ui-monospace, 'Courier New', monospace" font-size="9" opacity=".6">ALT    420 M</text><circle cx="280" cy="490" r="25" fill="none" stroke="#4a6a8a" opacity=".4"/><path stroke="#6aaa8a" stroke-width="1.5" d="M280 470v10" opacity=".5"/><text x="280" y="494" fill="#6a8aaa" font-family="ui-monospace, monospace" font-size="8" opacity=".5" text-anchor="middle">N</text></g><g filter="url(#c)"><rect width="290" height="180" x="830" y="370" fill="#0f1a2e" stroke="#4a6a8a" stroke-width="2" rx="2"/><path fill="#1a2744" stroke="#4a6a8a" d="M830 370h20l-20 20ZM1120 370h-20l20 20Z"/><circle cx="842" cy="382" r="3" fill="#6a8aaa" opacity=".6"/><circle cx="1108" cy="382" r="3" fill="#6a8aaa" opacity=".6"/><circle cx="842" cy="538" r="3" fill="#6a8aaa" opacity=".6"/><circle cx="1108" cy="538" r="3" fill="#6a8aaa" opacity=".6"/><rect width="230" height="10" x="850" y="395" fill="url(#b)" opacity=".5" rx="1"/><text x="1090" y="386" fill="#4a6a8a" font-family="ui-monospace, 'Courier New', monospace" font-size="7" opacity=".6" text-anchor="end">COMM-02</text><rect width="100" height="8" x="850" y="418" fill="#6aaa8a" opacity=".5" rx="1"/><rect width="250" height="5" x="850" y="440" fill="#6a8aaa" opacity=".3" rx="1"/><rect width="220" height="5" x="850" y="455" fill="#6a8aaa" opacity=".25" rx="1"/><rect width="240" height="5" x="850" y="470" fill="#6a8aaa" opacity=".28" rx="1"/><rect width="200" height="5" x="850" y="485" fill="#6a8aaa" opacity=".23" rx="1"/><rect width="60" height="20" x="850" y="508" fill="#0a1020" stroke="#6aaa8a" stroke-width=".8" opacity=".5" rx="2"/><text x="880" y="522" fill="#6aaa8a" font-family="ui-monospace, monospace" font-size="8" opacity=".6" text-anchor="middle">ONLINE</text><path fill="#6aaa8a" d="M930 520h4v8h-4zM938 516h4v12h-4zM946 512h4v16h-4zM954 508h4v20h-4z" opacity=".5"/></g><text x="600" y="300" fill="#c8d8e8" font-family="ui-monospace, 'Courier New', monospace" font-size="80" font-weight="700" letter-spacing="6" opacity=".85" text-anchor="middle">MECHA</text><text x="600" y="340" fill="#6aaa8a" font-family="ui-monospace, 'Courier New', monospace" font-size="14" font-weight="400" letter-spacing="8" opacity=".55" text-anchor="middle">MECHANICAL COMBAT SYSTEM</text></svg>