<svg xmlns="http://www.w3.org/2000/svg" width="1200" height="630" fill="none" viewBox="0 0 1200 630"><defs><linearGradient id="a" x1="0" x2="1200" y1="0" y2="630" gradientUnits="userSpaceOnUse"><stop offset="0%" stop-color="#feca57"/><stop offset="50%" stop-color="#ff9ff3"/><stop offset="100%" stop-color="#48dbfb"/></linearGradient></defs><path fill="url(#a)" d="M0 0h1200v630H0z"/><circle cx="200" cy="150" r="100" fill="#ff6b6b" stroke="#000" stroke-width="6"/><path fill="#48dbfb" stroke="#000" stroke-width="6" d="m921.967 63.144 144.889 38.823-38.823 144.889-144.889-38.823z"/><path fill="#1dd1a1" stroke="#000" stroke-width="6" d="m600 100 100 180H500z"/><path stroke="#000" stroke-width="6" d="M100 400q50-50 100 0t100 0 100 0"/><circle cx="800" cy="400" r="8" fill="#000"/><circle cx="830" cy="400" r="8" fill="#000"/><circle cx="860" cy="400" r="8" fill="#000"/><circle cx="800" cy="430" r="8" fill="#000"/><circle cx="830" cy="430" r="8" fill="#000"/><circle cx="860" cy="430" r="8" fill="#000"/><circle cx="800" cy="460" r="8" fill="#000"/><circle cx="830" cy="460" r="8" fill="#000"/><circle cx="860" cy="460" r="8" fill="#000"/><path fill="#ff9ff3" stroke="#000" stroke-width="8" d="M350 200h500v280H350z"/><path fill="#feca57" stroke="#000" stroke-width="8" d="M370 220h500v280H370z"/><circle cx="420" cy="270" r="25" fill="#ff6b6b" stroke="#000" stroke-width="4"/><path fill="#5f27cd" stroke="#000" stroke-width="4" d="M780 420h40v40h-40z"/><path stroke="#000" stroke-width="6" d="m950 350 30 30-30 30 30 30-30 30"/><text x="608" y="378" fill="#48dbfb" font-family="system-ui, -apple-system, sans-serif" font-size="72" font-weight="900" text-anchor="middle">MEMPHIS</text><text x="604" y="374" fill="#ff6b6b" font-family="system-ui, -apple-system, sans-serif" font-size="72" font-weight="900" text-anchor="middle">MEMPHIS</text><text x="600" y="370" fill="#000" font-family="system-ui, -apple-system, sans-serif" font-size="72" font-weight="900" text-anchor="middle">MEMPHIS</text><text x="600" y="430" fill="#000" font-family="system-ui, -apple-system, sans-serif" font-size="28" font-weight="700" text-anchor="middle">Bold • Colorful • Fun</text><circle cx="150" cy="500" r="40" fill="#5f27cd" stroke="#000" stroke-width="4"/><path fill="#ff6b6b" stroke="#000" stroke-width="4" d="m1050 500 50 80h-100z"/></svg>