<svg xmlns="http://www.w3.org/2000/svg" viewBox="0 0 1200 630"><path fill="#fff" d="M0 0h1200v630H0z"/><path stroke="#000" stroke-width="1.5" d="M100 180h300M800 180h300M100 450h300M800 450h300" opacity=".15"/><path fill="#f36" d="M570 140h60v4h-60z"/><path stroke="#f36" stroke-width="3" d="M100 250v130" opacity=".6"/><path d="M150 260h180v3H150z" opacity=".12"/><path d="M150 280h140v3H150zM150 300h160v3H150z" opacity=".08"/><path d="M880 260h180v3H880z" opacity=".12"/><path d="M880 280h130v3H880zM880 300h150v3H880z" opacity=".08"/><path fill="#f36" d="M570 486h60v4h-60z"/><text x="600" y="310" font-family="'Helvetica Neue', Helvetica, Arial, sans-serif" font-size="64" font-weight="300" letter-spacing="2" text-anchor="middle">MINIMALIST</text><text x="600" y="370" font-family="'Helvetica Neue', Helvetica, Arial, sans-serif" font-size="64" font-weight="300" letter-spacing="2" text-anchor="middle">FLAT</text><text x="600" y="420" fill="#999" font-family="'Helvetica Neue', Helvetica, Arial, sans-serif" font-size="13" font-weight="400" letter-spacing="8" text-anchor="middle">LESS IS MORE</text><path stroke="#000" d="M40 40h40M40 40v40M1120 40h40M1160 40v40M40 590h40M40 550v40M1120 590h40M1160 550v40" opacity=".2"/></svg>