<svg xmlns="http://www.w3.org/2000/svg" width="1200" height="630" fill="none" viewBox="0 0 1200 630"><defs><linearGradient id="a" x1="0" x2="1" y1="0" y2="1"><stop offset="0%" stop-color="#8b5cf6"/><stop offset="50%" stop-color="#ec4899"/><stop offset="100%" stop-color="#f97316"/></linearGradient><filter id="b" width="130%" height="130%" x="-10%" y="-10%"><feDropShadow dx="0" dy="8" flood-color="#000" flood-opacity=".15" stdDeviation="16"/></filter></defs><path fill="url(#a)" d="M0 0h1200v630H0z"/><circle cx="200" cy="100" r="200" fill="#a78bfa" opacity=".3"/><circle cx="1000" cy="530" r="250" fill="#f97316" opacity=".25"/><circle cx="900" cy="80" r="150" fill="#ec4899" opacity=".2"/><circle cx="100" cy="500" r="180" fill="#8b5cf6" opacity=".2"/><rect width="280" height="200" x="100" y="120" fill="#fff" fill-opacity=".12" stroke="#fff" stroke-opacity=".2" filter="url(#b)" rx="20" transform="rotate(-5 240 220)"/><rect width="180" height="10" x="130" y="160" fill="#fff" fill-opacity=".25" rx="5" transform="rotate(-5 240 220)"/><rect width="140" height="8" x="130" y="185" fill="#fff" fill-opacity=".15" rx="4" transform="rotate(-5 240 220)"/><rect width="280" height="200" x="830" y="300" fill="#fff" fill-opacity=".1" stroke="#fff" stroke-opacity=".18" filter="url(#b)" rx="20" transform="rotate(4 970 400)"/><rect width="160" height="10" x="860" y="340" fill="#fff" fill-opacity=".2" rx="5" transform="rotate(4 970 400)"/><rect width="120" height="8" x="860" y="365" fill="#fff" fill-opacity=".12" rx="4" transform="rotate(4 970 400)"/><rect width="600" height="310" x="300" y="160" fill="#fff" fill-opacity=".15" stroke="#fff" stroke-opacity=".3" stroke-width="1.5" filter="url(#b)" rx="24"/><text x="600" y="290" fill="#fff" font-family="'SF Pro Display', 'Inter', sans-serif" font-size="52" font-weight="700" letter-spacing="-.01em" text-anchor="middle">MODERN GRADIENT</text><rect width="300" height="2" x="450" y="310" fill="#fff" fill-opacity=".4" rx="1"/><text x="600" y="360" fill="#fff" fill-opacity=".85" font-family="'Inter', sans-serif" font-size="20" letter-spacing=".15em" text-anchor="middle">Vibrant Color Transitions</text><rect width="140" height="38" x="440" y="395" fill="#fff" fill-opacity=".25" stroke="#fff" stroke-opacity=".3" rx="19"/><text x="510" y="420" fill="#fff" font-family="'Inter', sans-serif" font-size="14" font-weight="500" text-anchor="middle">Explore</text><rect width="140" height="38" x="600" y="395" fill="#fff" fill-opacity=".1" stroke="#fff" stroke-opacity=".2" rx="19"/><text x="670" y="420" fill="#fff" fill-opacity=".8" font-family="'Inter', sans-serif" font-size="14" font-weight="500" text-anchor="middle">Learn More</text><circle cx="350" cy="520" r="30" fill="#fff" fill-opacity=".08" stroke="#fff" stroke-opacity=".15"/><circle cx="650" cy="540" r="20" fill="#fff" fill-opacity=".1"/><circle cx="850" cy="150" r="15" fill="#fff" fill-opacity=".12"/><circle cx="480" cy="100" r="10" fill="#fff" fill-opacity=".15"/></svg>