<svg xmlns="http://www.w3.org/2000/svg" viewBox="0 0 1200 630"><path fill="#faf6f1" d="M0 0h1200v630H0z"/><g fill="#5c4033" opacity=".06"><circle cx="100" cy="80" r="3"/><circle cx="300" cy="150" r="2"/><circle cx="500" cy="60" r="3"/><circle cx="700" cy="120" r="2"/><circle cx="900" cy="90" r="3"/><circle cx="1100" cy="140" r="2"/><circle cx="200" cy="500" r="3"/><circle cx="400" cy="550" r="2"/><circle cx="800" cy="520" r="3"/><circle cx="1000" cy="570" r="2"/></g><path fill="#e8ddd0" d="M0 420q150-50 300-20t300-20 300 30 300-20v240H0Z" opacity=".5"/><path fill="#d4c4b0" d="M0 470q200-40 400-10t400-20 400 20v170H0Z" opacity=".4"/><path fill="#7a9e7e" d="M150 200q17.932-87.627-41.411-154.548Q90.657 133.079 150 200" opacity=".6"/><path stroke="#5c6e50" stroke-width="1.5" d="M150 200 109.883 50.281" opacity=".5"/><path stroke="#5c6e50" d="m139.647 161.363-19.665-15.436M129.294 122.726l8.019-28.03M121.53 93.748l-16.768-16.213" opacity=".4"/><path fill="#7a9e7e" d="M1050 180q81.187-76.868 68.404-187.939Q1037.217 68.93 1050 180" opacity=".5"/><path stroke="#5c6e50" stroke-width="1.5" d="m1050 180 66.694-183.24" opacity=".4"/><path stroke="#5c6e50" d="m1067.101 133.015 27.344-16.652M1084.202 86.03l-6.654-34.346M1097.883 48.443l21.706-18.704" opacity=".3"/><g fill="#7a9e7e" opacity=".35"><path d="M950 80q30-20 60-10-15 5-30 15ZM965 85l40 20q-20-5-35-15Z"/></g><circle cx="250" cy="450" r="35" fill="#c4a882" opacity=".25"/><circle cx="950" cy="480" r="25" fill="#c4a882" opacity=".2"/><path fill="none" stroke="#5c4033" d="M420 360q80-10 180-5t180-5" opacity=".3"/><text x="600" y="280" fill="#5c4033" font-family="Georgia, 'Times New Roman', serif" font-size="72" font-weight="400" letter-spacing="8" text-anchor="middle">NATURAL</text><text x="600" y="340" fill="#5c4033" font-family="Georgia, 'Times New Roman', serif" font-size="36" font-weight="400" letter-spacing="12" text-anchor="middle">ORGANIC</text><text x="600" y="400" fill="#8b7355" font-family="Georgia, 'Times New Roman', serif" font-size="16" letter-spacing="4" opacity=".7" text-anchor="middle">EARTH TONES &amp; FLOWING FORMS</text></svg>