<svg xmlns="http://www.w3.org/2000/svg" width="1200" height="630" fill="none" viewBox="0 0 1200 630"><path fill="#fff" d="M0 0h1200v630H0z"/><g stroke="#000" opacity=".06"><path d="M0 0v630M60 0v630M120 0v630M180 0v630M240 0v630M300 0v630M360 0v630M420 0v630M480 0v630M540 0v630M600 0v630M660 0v630M720 0v630M780 0v630M840 0v630M900 0v630M960 0v630M1020 0v630M1080 0v630M1140 0v630M0 60h1200M0 120h1200M0 180h1200M0 240h1200M0 300h1200M0 360h1200M0 420h1200M0 480h1200M0 540h1200"/></g><path fill="#000" d="M104 104h200v140H104z"/><path fill="#ff006e" stroke="#000" stroke-width="4" d="M100 100h200v140H100z"/><path fill="#000" d="M904 84h180v120H904z"/><path fill="#fff" stroke="#000" stroke-width="4" d="M900 80h180v120H900z"/><path fill="#000" d="M124 424h160v100H124z"/><path fill="#000" stroke="#000" stroke-width="4" d="M120 420h160v100H120z"/><text x="200" y="478" fill="#fff" font-family="Arial Black, sans-serif" font-size="20" font-weight="900" text-anchor="middle">BOLD</text><path fill="#000" d="M926 406h180v160H926z"/><path fill="#ff006e" stroke="#000" stroke-width="4" d="M920 400h180v160H920z"/><path fill="#000" d="M306 236h600v170H306z"/><path fill="#fff" stroke="#000" stroke-width="5" d="M300 230h600v170H300z"/><text x="600" y="305" fill="#000" font-family="Arial Black, sans-serif" font-size="58" font-weight="900" letter-spacing="-.02em" text-anchor="middle">NEO-BRUTALIST</text><text x="600" y="375" fill="#000" font-family="Arial, sans-serif" font-size="22" font-weight="700" letter-spacing=".1em" text-anchor="middle">RAW . BOLD . UNAPOLOGETIC</text><path fill="#ff006e" d="M300 330h600v5H300z"/><path fill="#000" stroke="#000" stroke-width="3" d="M500 460h40v40h-40z"/><path fill="#ff006e" stroke="#000" stroke-width="3" d="M560 464h32v32h-32z"/><path fill="#fff" stroke="#000" stroke-width="3" d="M612 458h44v44h-44z"/><path fill="#000" stroke="#000" stroke-width="3" d="M676 462h36v36h-36z"/><path stroke="#000" stroke-width="4" d="M2 2h1196v626H2z"/></svg>