<svg xmlns="http://www.w3.org/2000/svg" viewBox="0 0 1200 630"><path fill="#f5f5f5" d="M0 0h1200v630H0z"/><circle cx="180" cy="120" r="80" fill="#f472b6" opacity=".06"/><circle cx="1020" cy="520" r="100" fill="#a3e635" opacity=".06"/><circle cx="1050" cy="100" r="60" fill="#38bdf8" opacity=".06"/><rect width="260" height="170" x="104" y="134" fill="#f472b6" opacity=".15" rx="8"/><rect width="260" height="170" x="96" y="126" fill="#fff" stroke="#374151" stroke-width="1.5" rx="8"/><rect width="100" height="10" x="122" y="156" fill="#374151" opacity=".5" rx="4"/><rect width="200" height="6" x="122" y="180" fill="#374151" opacity=".12" rx="3"/><rect width="170" height="6" x="122" y="196" fill="#374151" opacity=".12" rx="3"/><rect width="140" height="6" x="122" y="212" fill="#374151" opacity=".12" rx="3"/><rect width="80" height="28" x="122" y="250" fill="#f472b6" stroke="#374151" opacity=".2" rx="6"/><text x="162" y="269" fill="#374151" font-family="system-ui, -apple-system, sans-serif" font-size="11" font-weight="500" text-anchor="middle">View</text><rect width="240" height="190" x="884" y="114" fill="#38bdf8" opacity=".15" rx="8"/><rect width="240" height="190" x="876" y="106" fill="#fff" stroke="#374151" stroke-width="1.5" rx="8"/><circle cx="996" cy="176" r="30" fill="#38bdf8" stroke="#374151" opacity=".15"/><path fill="#38bdf8" d="m986 176 10-10 10 10-10 10Z" opacity=".4"/><rect width="180" height="6" x="906" y="226" fill="#374151" opacity=".12" rx="3"/><rect width="140" height="6" x="906" y="242" fill="#374151" opacity=".12" rx="3"/><rect width="160" height="6" x="906" y="258" fill="#374151" opacity=".12" rx="3"/><rect width="220" height="150" x="134" y="404" fill="#a3e635" opacity=".15" rx="8"/><rect width="220" height="150" x="126" y="396" fill="#fff" stroke="#374151" stroke-width="1.5" rx="8"/><rect width="70" height="50" x="152" y="420" fill="#a3e635" stroke="#374151" opacity=".15" rx="8"/><rect width="160" height="6" x="152" y="486" fill="#374151" opacity=".12" rx="3"/><rect width="120" height="6" x="152" y="502" fill="#374151" opacity=".12" rx="3"/><rect width="90" height="6" x="152" y="518" fill="#374151" opacity=".12" rx="3"/><rect width="250" height="165" x="864" y="384" fill="#f472b6" opacity=".12" rx="8"/><rect width="250" height="165" x="856" y="376" fill="#fff" stroke="#374151" stroke-width="1.5" rx="8"/><rect width="190" height="8" x="886" y="406" fill="#e5e7eb" rx="4"/><rect width="120" height="8" x="886" y="406" fill="#a3e635" opacity=".4" rx="4"/><rect width="190" height="8" x="886" y="428" fill="#e5e7eb" rx="4"/><rect width="80" height="8" x="886" y="428" fill="#38bdf8" opacity=".4" rx="4"/><rect width="190" height="8" x="886" y="450" fill="#e5e7eb" rx="4"/><rect width="150" height="8" x="886" y="450" fill="#f472b6" opacity=".3" rx="4"/><rect width="90" height="28" x="886" y="486" fill="#38bdf8" stroke="#374151" opacity=".15" rx="6"/><text x="931" y="505" fill="#374151" font-family="system-ui, -apple-system, sans-serif" font-size="11" font-weight="500" text-anchor="middle">Details</text><text x="600" y="300" fill="#374151" font-family="system-ui, -apple-system, 'Segoe UI', sans-serif" font-size="58" font-weight="800" letter-spacing="-1" text-anchor="middle">NEO-BRUTALIST</text><text x="600" y="370" fill="#374151" font-family="system-ui, -apple-system, 'Segoe UI', sans-serif" font-size="58" font-weight="800" letter-spacing="-1" text-anchor="middle">SOFT</text><rect width="220" height="30" x="490" y="392" fill="#a3e635" stroke="#374151" opacity=".15" rx="15"/><text x="600" y="412" fill="#374151" font-family="system-ui, -apple-system, sans-serif" font-size="12" font-weight="500" letter-spacing="4" text-anchor="middle">GENTLE CONTRAST</text><circle cx="460" cy="170" r="6" fill="#f472b6" opacity=".15"/><circle cx="740" cy="490" r="5" fill="#a3e635" opacity=".15"/><circle cx="530" cy="510" r="4" fill="#38bdf8" opacity=".12"/></svg>