<svg xmlns="http://www.w3.org/2000/svg" viewBox="0 0 1200 630"><path fill="#fff" d="M0 0h1200v630H0z"/><path fill="#ffe66d" d="m84.393 56.629 28.978 7.764-7.764 28.978-28.978-7.764z" opacity=".4"/><circle cx="1100" cy="80" r="15" fill="#4ecdc4" opacity=".3"/><path fill="#ff6b6b" d="m998.099 522.266 24.62-4.341 4.34 24.62-24.62 4.341z" opacity=".3"/><circle cx="120" cy="530" r="12" fill="#ffe66d" opacity=".3"/><g transform="rotate(-3 250 200)"><rect width="260" height="170" x="120" y="120" fill="#ffe66d" stroke="#000" stroke-width="4" rx="4"/><rect width="260" height="170" x="128" y="128" fill="#fff" stroke="#000" stroke-width="4" rx="4"/><rect width="120" height="12" x="155" y="155" rx="2"/><rect width="200" height="8" x="155" y="180" opacity=".2" rx="2"/><rect width="170" height="8" x="155" y="198" opacity=".2" rx="2"/><rect width="80" height="30" x="155" y="252" fill="#4ecdc4" stroke="#000" stroke-width="3" rx="4"/></g><g transform="rotate(2 950 200)"><rect width="240" height="200" x="828" y="98" fill="#ff6b6b" stroke="#000" stroke-width="4" rx="4"/><rect width="240" height="200" x="836" y="106" fill="#fff" stroke="#000" stroke-width="4" rx="4"/><circle cx="956" cy="180" r="35" fill="#ffe66d" stroke="#000" stroke-width="3"/><rect width="170" height="8" x="870" y="236" opacity=".2" rx="2"/><rect width="130" height="8" x="870" y="254" opacity=".2" rx="2"/></g><g transform="rotate(2 200 470)"><rect width="220" height="150" x="98" y="398" fill="#4ecdc4" stroke="#000" stroke-width="4" rx="4"/><rect width="220" height="150" x="106" y="406" fill="#fff" stroke="#000" stroke-width="4" rx="4"/><rect width="80" height="60" x="130" y="430" fill="#ff6b6b" stroke="#000" stroke-width="3" rx="4"/><rect width="160" height="8" x="130" y="506" opacity=".2" rx="2"/><rect width="120" height="8" x="130" y="524" opacity=".2" rx="2"/></g><g transform="rotate(-2 1000 470)"><rect width="240" height="170" x="858" y="378" fill="#ffe66d" stroke="#000" stroke-width="4" rx="4"/><rect width="240" height="170" x="866" y="386" fill="#fff" stroke="#000" stroke-width="4" rx="4"/><rect width="180" height="10" x="895" y="415" opacity=".15" rx="2"/><rect width="180" height="10" x="895" y="435" opacity=".15" rx="2"/><rect width="180" height="10" x="895" y="455" opacity=".15" rx="2"/><rect width="100" height="34" x="895" y="495" fill="#ff6b6b" stroke="#000" stroke-width="3" rx="4"/></g><text x="606" y="326" fill="#ff6b6b" font-family="'Helvetica Neue', Helvetica, Arial, sans-serif" font-size="56" font-weight="900" letter-spacing="-1" text-anchor="middle">NEO-BRUTALIST</text><text x="600" y="320" font-family="'Helvetica Neue', Helvetica, Arial, sans-serif" font-size="56" font-weight="900" letter-spacing="-1" text-anchor="middle">NEO-BRUTALIST</text><text x="604" y="382" fill="#4ecdc4" font-family="'Helvetica Neue', Helvetica, Arial, sans-serif" font-size="56" font-weight="900" letter-spacing="-1" text-anchor="middle">PLAYFUL</text><text x="600" y="378" font-family="'Helvetica Neue', Helvetica, Arial, sans-serif" font-size="56" font-weight="900" letter-spacing="-1" text-anchor="middle">PLAYFUL</text><g transform="rotate(-2 600 420)"><rect width="200" height="32" x="500" y="400" fill="#ffe66d" stroke="#000" stroke-width="3" rx="4"/><text x="600" y="422" font-family="'Helvetica Neue', Helvetica, Arial, sans-serif" font-size="13" font-weight="800" letter-spacing="3" text-anchor="middle">FUN &amp; VIBRANT</text></g></svg>