<svg xmlns="http://www.w3.org/2000/svg" fill="none" viewBox="0 0 1200 630"><defs><clipPath id="a"><path d="M80 120h280v140l-40 20H80z"/></clipPath><clipPath id="c"><path d="M420 100h300v160l-40 20H420z"/></clipPath><clipPath id="d"><path d="M780 120h300v140l-40 20H780z"/></clipPath><clipPath id="e"><path d="M160 350h340v170l-40 20H160z"/></clipPath><clipPath id="f"><path d="M560 350h340v170l-40 20H560z"/></clipPath><filter id="b" width="140%" height="140%" x="-20%" y="-20%"><feGaussianBlur in="SourceGraphic" result="blur" stdDeviation="3"/><feFlood flood-color="#00f0ff" result="color"/><feComposite in="color" in2="blur" operator="in" result="glow"/><feMerge><feMergeNode in="glow"/><feMergeNode in="SourceGraphic"/></feMerge></filter><filter id="g" width="120%" height="120%" x="-10%" y="-10%"><feGaussianBlur in="SourceGraphic" result="blur" stdDeviation="6"/><feMerge><feMergeNode in="blur"/><feMergeNode in="SourceGraphic"/></feMerge></filter></defs><path fill="#0a0a1a" d="M0 0h1200v630H0z"/><g stroke="#ff2d7b" stroke-width="2" opacity=".06"><rect width="120" height="10" x="540" y="80" rx="2"/><rect width="140" height="6" x="530" y="70" rx="2"/><path d="M555 90v110M645 90v110M545 130h110"/></g><circle cx="150" cy="580" r="25" fill="#ff2d7b" opacity=".04"/><circle cx="1050" cy="60" r="18" fill="#00f0ff" opacity=".04"/><circle cx="950" cy="560" r="30" fill="#ff2d7b" opacity=".03"/><g clip-path="url(#a)"><path fill="#12122a" d="M80 120h280v160H80z"/><path stroke="#ff2d7b" stroke-width="2" d="M80 120h280v160H80z"/></g><path stroke="#00f0ff" stroke-width="1.5" d="M80 120h280v140l-40 20H80z" filter="url(#b)" opacity=".7"/><rect width="90" height="8" x="105" y="145" fill="#ff2d7b" opacity=".8" rx="2"/><rect width="200" height="5" x="105" y="165" fill="#3a3a5c" rx="2"/><rect width="170" height="5" x="105" y="178" fill="#3a3a5c" rx="2"/><rect width="120" height="10" x="105" y="198" fill="#00f0ff" opacity=".3" rx="2"/><rect width="75" height="10" x="105" y="198" fill="#00f0ff" opacity=".6" rx="2"/><path stroke="#ff2d7b" stroke-width="1.5" d="m100 225 200-10" opacity=".5"/><g clip-path="url(#c)"><path fill="#12122a" d="M420 100h300v180H420z"/><path stroke="#ff2d7b" stroke-width="2" d="M420 100h300v180H420z"/></g><path stroke="#00f0ff" stroke-width="1.5" d="M420 100h300v160l-40 20H420z" filter="url(#b)" opacity=".7"/><rect width="110" height="8" x="445" y="125" fill="#ff2d7b" opacity=".8" rx="2"/><rect width="230" height="5" x="445" y="147" fill="#3a3a5c" rx="2"/><rect width="210" height="5" x="445" y="160" fill="#3a3a5c" rx="2"/><rect width="180" height="5" x="445" y="173" fill="#3a3a5c" rx="2"/><rect width="140" height="8" x="445" y="195" fill="#1a1a3a" rx="2"/><rect width="100" height="8" x="445" y="195" fill="#00f0ff" opacity=".5" rx="2"/><rect width="140" height="8" x="445" y="210" fill="#1a1a3a" rx="2"/><rect width="60" height="8" x="445" y="210" fill="#ff2d7b" opacity=".5" rx="2"/><path stroke="#ff2d7b" stroke-width="1.5" d="m440 240 240-8" opacity=".4"/><g clip-path="url(#d)"><path fill="#12122a" d="M780 120h300v160H780z"/><path stroke="#ff2d7b" stroke-width="2" d="M780 120h300v160H780z"/></g><path stroke="#00f0ff" stroke-width="1.5" d="M780 120h300v140l-40 20H780z" filter="url(#b)" opacity=".7"/><rect width="80" height="8" x="805" y="145" fill="#ff2d7b" opacity=".8" rx="2"/><rect width="220" height="5" x="805" y="165" fill="#3a3a5c" rx="2"/><rect width="190" height="5" x="805" y="178" fill="#3a3a5c" rx="2"/><rect width="80" height="22" x="805" y="200" stroke="#00f0ff" stroke-width="1.5" rx="3"/><rect width="40" height="6" x="810" y="207" fill="#00f0ff" opacity=".7" rx="2"/><path stroke="#ff2d7b" stroke-width="1.5" d="m800 240 220-5" opacity=".4"/><g clip-path="url(#e)"><path fill="#12122a" d="M160 350h340v190H160z"/><path stroke="#ff2d7b" stroke-width="2" d="M160 350h340v190H160z"/></g><path stroke="#00f0ff" stroke-width="1.5" d="M160 350h340v170l-40 20H160z" filter="url(#b)" opacity=".7"/><rect width="100" height="8" x="185" y="375" fill="#ff2d7b" opacity=".8" rx="2"/><rect width="260" height="5" x="185" y="395" fill="#3a3a5c" rx="2"/><rect width="240" height="5" x="185" y="408" fill="#3a3a5c" rx="2"/><rect width="200" height="5" x="185" y="421" fill="#3a3a5c" rx="2"/><rect width="180" height="8" x="185" y="445" fill="#1a1a3a" rx="2"/><rect width="130" height="8" x="185" y="445" fill="#ff2d7b" opacity=".5" rx="2"/><rect width="180" height="8" x="185" y="460" fill="#1a1a3a" rx="2"/><rect width="90" height="8" x="185" y="460" fill="#00f0ff" opacity=".5" rx="2"/><path stroke="#ff2d7b" stroke-width="1.5" d="m180 495 270-7" opacity=".4"/><g clip-path="url(#f)"><path fill="#12122a" d="M560 350h340v190H560z"/><path stroke="#ff2d7b" stroke-width="2" d="M560 350h340v190H560z"/></g><path stroke="#00f0ff" stroke-width="1.5" d="M560 350h340v170l-40 20H560z" filter="url(#b)" opacity=".7"/><rect width="95" height="8" x="585" y="375" fill="#ff2d7b" opacity=".8" rx="2"/><rect width="250" height="5" x="585" y="395" fill="#3a3a5c" rx="2"/><rect width="220" height="5" x="585" y="408" fill="#3a3a5c" rx="2"/><rect width="80" height="22" x="585" y="435" stroke="#ff2d7b" stroke-width="1.5" rx="3"/><rect width="40" height="6" x="590" y="442" fill="#ff2d7b" opacity=".7" rx="2"/><rect width="80" height="22" x="680" y="435" stroke="#00f0ff" stroke-width="1.5" rx="3"/><rect width="40" height="6" x="685" y="442" fill="#00f0ff" opacity=".7" rx="2"/><path stroke="#ff2d7b" stroke-width="1.5" d="m580 495 270-7" opacity=".4"/><text x="600" y="325" fill="#ff2d7b" filter="url(#g)" font-family="'Courier New', monospace" font-size="28" font-weight="bold" letter-spacing="8" text-anchor="middle">NEON SAMURAI</text></svg>