<svg xmlns="http://www.w3.org/2000/svg" width="1200" height="630" fill="none" viewBox="0 0 1200 630"><defs><linearGradient id="a" x1="0%" x2="100%" y1="0%" y2="100%"><stop offset="0%" stop-color="#a855f7"/><stop offset="100%" stop-color="#ec4899"/></linearGradient><linearGradient id="d" x1="0%" x2="100%" y1="0%" y2="100%"><stop offset="0%" stop-color="#22d3ee"/><stop offset="100%" stop-color="#a3e635"/></linearGradient><linearGradient id="f" x1="0%" x2="100%" y1="0%" y2="100%"><stop offset="0%" stop-color="#ec4899"/><stop offset="100%" stop-color="#f43f5e"/></linearGradient><linearGradient id="h" x1="0%" x2="100%" y1="0%" y2="100%"><stop offset="0%" stop-color="#fbbf24"/><stop offset="100%" stop-color="#f97316"/></linearGradient><linearGradient id="i" x1="0%" x2="100%" y1="0%" y2="0%"><stop offset="0%" stop-color="#a855f7"/><stop offset="50%" stop-color="#ec4899"/><stop offset="100%" stop-color="#22d3ee"/></linearGradient><filter id="b" width="200%" height="200%" x="-50%" y="-50%"><feGaussianBlur result="blur" stdDeviation="15"/><feFlood flood-color="#a855f7" flood-opacity=".5"/><feComposite in2="blur" operator="in"/><feMerge><feMergeNode/><feMergeNode in="SourceGraphic"/></feMerge></filter><filter id="c" width="200%" height="200%" x="-50%" y="-50%"><feGaussianBlur result="blur" stdDeviation="15"/><feFlood flood-color="#22d3ee" flood-opacity=".5"/><feComposite in2="blur" operator="in"/><feMerge><feMergeNode/><feMergeNode in="SourceGraphic"/></feMerge></filter><filter id="e" width="200%" height="200%" x="-50%" y="-50%"><feGaussianBlur result="blur" stdDeviation="15"/><feFlood flood-color="#ec4899" flood-opacity=".5"/><feComposite in2="blur" operator="in"/><feMerge><feMergeNode/><feMergeNode in="SourceGraphic"/></feMerge></filter><filter id="g" width="200%" height="200%" x="-50%" y="-50%"><feGaussianBlur result="blur" stdDeviation="12"/><feFlood flood-color="#fbbf24" flood-opacity=".4"/><feComposite in2="blur" operator="in"/><feMerge><feMergeNode/><feMergeNode in="SourceGraphic"/></feMerge></filter></defs><path fill="#0f0a1e" d="M0 0h1200v630H0z"/><ellipse cx="600" fill="url(#a)" opacity=".1" rx="600" ry="400"/><g filter="url(#b)"><rect width="220" height="150" x="60" y="60" fill="url(#a)" rx="20"/><rect width="220" height="150" x="60" y="60" stroke="#fbbf24" stroke-width="4" rx="20"/><rect width="44" height="44" x="88" y="90" fill="#fff" fill-opacity=".2" rx="12"/><path stroke="#fff" stroke-linecap="round" stroke-width="3" d="M110 105v20m-10-10h20"/><rect width="80" height="12" x="88" y="150" fill="#fff" rx="6"/><rect width="120" height="8" x="88" y="172" fill="#fff" fill-opacity=".6" rx="4"/></g><g filter="url(#c)"><rect width="220" height="150" x="920" y="50" fill="url(#d)" rx="20"/><rect width="220" height="150" x="920" y="50" stroke="#ec4899" stroke-width="4" rx="20"/><rect width="44" height="44" x="948" y="80" fill="#fff" fill-opacity=".2" rx="12"/><path fill="#fff" d="M970 95v20l15-10Z"/><rect width="70" height="12" x="948" y="140" fill="#fff" rx="6"/><rect width="100" height="8" x="948" y="162" fill="#fff" fill-opacity=".6" rx="4"/></g><g filter="url(#e)"><rect width="240" height="170" x="70" y="400" fill="url(#f)" rx="24"/><rect width="240" height="170" x="70" y="400" stroke="#22d3ee" stroke-width="4" rx="24"/><rect width="48" height="48" x="100" y="432" fill="#fff" fill-opacity=".2" rx="14"/><circle cx="124" cy="456" r="12" stroke="#fff" stroke-width="3"/><path stroke="#fff" stroke-linecap="round" stroke-width="2" d="M124 448v8h6"/><rect width="100" height="14" x="100" y="496" fill="#fff" rx="7"/><rect width="150" height="8" x="100" y="520" fill="#fff" fill-opacity=".6" rx="4"/><rect width="60" height="24" x="220" y="432" stroke="#fbbf24" stroke-dasharray="4 2" stroke-width="2" rx="12"/><text x="250" y="449" fill="#fbbf24" font-family="system-ui, sans-serif" font-size="10" font-weight="600" text-anchor="middle">PRO</text></g><g filter="url(#g)"><rect width="260" height="180" x="880" y="390" fill="url(#h)" rx="24"/><rect width="260" height="180" x="880" y="390" stroke="#a855f7" stroke-width="4" rx="24"/><rect width="50" height="50" x="912" y="422" fill="#fff" fill-opacity=".3" rx="14"/><path fill="#fff" d="M937 437v20l15-10Z"/><rect width="90" height="14" x="912" y="488" fill="#fff" rx="7"/><rect width="140" height="8" x="912" y="512" fill="#fff" fill-opacity=".7" rx="4"/><rect width="200" height="10" x="912" y="536" fill="#fff" fill-opacity=".3" rx="5"/><rect width="140" height="10" x="912" y="536" fill="#fff" rx="5"/></g><rect width="520" height="170" x="340" y="230" fill="#fff" fill-opacity=".05" stroke="url(#a)" stroke-width="2" rx="28"/><text x="600" y="300" fill="url(#i)" font-family="system-ui, sans-serif" font-size="52" font-weight="800" text-anchor="middle">Neon Gradient</text><text x="600" y="345" fill="#fff" fill-opacity=".5" font-family="system-ui, sans-serif" font-size="16" text-anchor="middle">Bold Gradients &amp; Glowing Effects</text><circle cx="500" cy="375" r="6" fill="#a855f7"/><circle cx="540" cy="375" r="6" fill="#ec4899"/><circle cx="580" cy="375" r="6" fill="#22d3ee"/><circle cx="620" cy="375" r="6" fill="#a3e635"/><circle cx="660" cy="375" r="6" fill="#fbbf24"/><circle cx="700" cy="375" r="6" fill="#f97316"/><g transform="rotate(-8 450 130)"><rect width="140" height="60" x="380" y="100" fill="url(#d)" filter="url(#c)" rx="14"/><rect width="140" height="60" x="380" y="100" stroke="#ec4899" stroke-width="3" rx="14"/></g><g transform="rotate(6 750 500)"><rect width="140" height="60" x="680" y="470" fill="url(#a)" filter="url(#b)" rx="14"/><rect width="140" height="60" x="680" y="470" stroke="#22d3ee" stroke-width="3" rx="14"/></g><g fill="#fbbf24" opacity=".8"><path d="m340 90 4 12h12l-10 8 4 12-10-8-10 8 4-12-10-8h12zM776 504l2.4 6.4h7.2l-5.6 4.8 2.4 6.4-6.4-4.8-6.4 4.8 2.4-6.4-5.6-4.8h7.2z"/></g><g filter="url(#b)"><rect width="200" height="44" x="400" y="460" fill="#fff" fill-opacity=".05" stroke="#a855f7" stroke-width="2" rx="12"/><rect width="100" height="8" x="420" y="476" fill="#fff" fill-opacity=".3" rx="4"/><rect width="40" height="28" x="550" y="468" fill="url(#d)" rx="8"/></g><rect width="120" height="40" x="480" y="530" fill="url(#a)" filter="url(#b)" rx="12"/><rect width="120" height="40" x="480" y="530" stroke="#22d3ee" stroke-width="2" rx="12"/><text x="540" y="556" fill="#fff" font-family="system-ui, sans-serif" font-size="14" font-weight="600" text-anchor="middle">Get Started</text><path fill="#ec4899" d="m180 280 5 15 15 5-15 5-5 15-5-15-15-5 15-5Z" opacity=".6"/><path fill="#22d3ee" d="m1040 280 3 10 10 3-10 3-3 10-3-10-10-3 10-3Z" opacity=".6"/></svg>