<svg xmlns="http://www.w3.org/2000/svg" width="1200" height="630" fill="none" viewBox="0 0 1200 630"><defs><filter id="a" width="120%" height="120%" x="-10%" y="-10%"><feDropShadow dx="-6" dy="-6" flood-color="#fff" flood-opacity=".7" stdDeviation="8"/><feDropShadow dx="6" dy="6" flood-color="#a3b1c6" flood-opacity=".5" stdDeviation="8"/></filter><filter id="b" width="120%" height="120%" x="-10%" y="-10%"><feDropShadow dx="3" dy="3" flood-color="#fff" flood-opacity=".6" stdDeviation="5"/><feDropShadow dx="-3" dy="-3" flood-color="#a3b1c6" flood-opacity=".4" stdDeviation="5"/></filter></defs><path fill="#e0e5ec" d="M0 0h1200v630H0z"/><circle cx="200" cy="180" r="70" fill="#e0e5ec" filter="url(#a)"/><rect width="200" height="140" x="860" y="100" fill="#e0e5ec" filter="url(#a)" rx="20"/><rect width="180" height="120" x="100" y="400" fill="#e0e5ec" filter="url(#a)" rx="16"/><circle cx="1000" cy="470" r="60" fill="#e0e5ec" filter="url(#a)"/><circle cx="380" cy="140" r="24" fill="#e0e5ec" filter="url(#b)"/><circle cx="820" cy="480" r="28" fill="#e0e5ec" filter="url(#b)"/><rect width="520" height="250" x="340" y="190" fill="#e0e5ec" filter="url(#a)" rx="30"/><text x="600" y="295" fill="#6b7b8d" font-family="'SF Pro Display', 'Segoe UI', sans-serif" font-size="52" font-weight="600" letter-spacing=".08em" text-anchor="middle">NEUMORPHISM</text><text x="600" y="345" fill="#8a9bb0" font-family="'SF Pro Display', 'Segoe UI', sans-serif" font-size="20" font-weight="400" letter-spacing=".15em" text-anchor="middle">Soft Surfaces and Depth</text><rect width="320" height="4" x="440" y="365" fill="#d5dbe3" filter="url(#b)" rx="2"/><rect width="140" height="30" x="530" y="395" fill="#d5dbe3" filter="url(#b)" rx="15"/><circle cx="640" cy="410" r="12" fill="#e0e5ec" filter="url(#a)"/><rect width="60" height="60" x="140" y="320" fill="#e0e5ec" filter="url(#a)" rx="14"/><rect width="60" height="60" x="1000" y="280" fill="#e0e5ec" filter="url(#a)" rx="14"/></svg>