<svg xmlns="http://www.w3.org/2000/svg" width="1200" height="630" fill="none" viewBox="0 0 1200 630"><path fill="#f7f6f3" d="M0 0h1200v630H0z"/><rect width="280" height="470" x="50" y="80" fill="#fff" stroke="#e5e5e5" rx="8"/><rect width="240" height="32" x="70" y="100" fill="#f0f0f0" rx="4"/><rect width="240" height="28" x="70" y="150" fill="#e5e5e5" rx="4"/><rect width="240" height="28" x="70" y="190" fill="#37352f" fill-opacity=".08" rx="4"/><rect width="240" height="28" x="70" y="230" fill="#e5e5e5" rx="4"/><rect width="790" height="470" x="360" y="80" fill="#fff" stroke="#e5e5e5" rx="8"/><rect width="400" height="48" x="390" y="110" fill="#37352f" fill-opacity=".05" rx="4"/><rect width="730" height="16" x="390" y="180" fill="#37352f" fill-opacity=".6" rx="2"/><rect width="680" height="16" x="390" y="210" fill="#37352f" fill-opacity=".4" rx="2"/><rect width="720" height="16" x="390" y="240" fill="#37352f" fill-opacity=".4" rx="2"/><rect width="80" height="28" x="390" y="290" fill="#2eaadc" fill-opacity=".1" rx="4"/><rect width="90" height="28" x="485" y="290" fill="#0f7b6c" fill-opacity=".1" rx="4"/><rect width="70" height="28" x="590" y="290" fill="#eb5757" fill-opacity=".1" rx="4"/><text x="600" y="590" fill="#37352f" font-family="system-ui, -apple-system, sans-serif" font-size="56" font-weight="600" text-anchor="middle">Notion Style</text></svg>