<svg xmlns="http://www.w3.org/2000/svg" viewBox="0 0 1200 630"><defs><linearGradient id="a" x1="0" x2="0" y1="0" y2="1"><stop offset="0%" stop-color="#0a0020"/><stop offset="45%" stop-color="#1a0040"/><stop offset="60%" stop-color="#ff6090"/><stop offset="75%" stop-color="#ff9040"/><stop offset="100%" stop-color="#ffcc40"/></linearGradient><linearGradient id="d" x1="0" x2="0" y1="0" y2="1"><stop offset="0%" stop-color="#ff6090"/><stop offset="50%" stop-color="#ff9040"/><stop offset="100%" stop-color="#ffcc40"/></linearGradient><linearGradient id="c" x1="0" x2="1" y1="0" y2="0"><stop offset="0%" stop-color="#ff6090"/><stop offset="50%" stop-color="#ff9040"/><stop offset="100%" stop-color="#ffcc40"/></linearGradient><pattern id="e" width="4" height="4" x="0" y="0" patternUnits="userSpaceOnUse"><path d="M0 0h4v2H0z" opacity=".08"/></pattern><filter id="b" width="140%" height="140%" x="-15%" y="-15%"><feGaussianBlur in="SourceGraphic" result="blur" stdDeviation="3"/><feMerge><feMergeNode in="blur"/><feMergeNode in="SourceGraphic"/></feMerge></filter></defs><path fill="#0a0020" d="M0 0h1200v630H0z"/><path fill="url(#a)" d="M0 380h1200v250H0z" opacity=".15"/><circle cx="100" cy="60" r="1.5" fill="#fff" opacity=".4"/><circle cx="300" cy="40" r="1" fill="#fff" opacity=".3"/><circle cx="500" cy="80" r="1.2" fill="#fff" opacity=".35"/><circle cx="700" cy="30" r="1" fill="#fff" opacity=".3"/><circle cx="900" cy="70" r="1.5" fill="#fff" opacity=".4"/><circle cx="1100" cy="50" r="1" fill="#fff" opacity=".3"/><circle cx="200" cy="100" r=".8" fill="#fff" opacity=".25"/><circle cx="800" cy="90" r=".8" fill="#fff" opacity=".25"/><circle cx="1050" cy="110" r="1" fill="#fff" opacity=".3"/><circle cx="400" cy="120" r=".8" fill="#fff" opacity=".2"/><g stroke="#ff6090" opacity=".2"><path stroke-width=".8" d="M0 480h1200"/><path stroke-width=".6" d="M0 510h1200"/><path stroke-width=".5" d="M0 535h1200"/><path stroke-width=".4" d="M0 555h1200"/><path stroke-width=".35" d="M0 572h1200"/><path stroke-width=".3" d="M0 586h1200"/><path stroke-width=".25" d="M0 598h1200"/><path stroke-width=".2" d="M0 608h1200"/><path stroke-width=".6" d="M600 460v170"/><path stroke-width=".4" d="M600 460 0 630M600 460l600 170"/><path stroke-width=".3" d="M600 460 200 630M600 460l400 170"/><path stroke-width=".25" d="M600 460 400 630M600 460l200 170"/><path stroke-width=".3" d="m600 460-800 170M600 460l800 170"/></g><circle cx="600" cy="460" r="50" fill="#ff6090" opacity=".15"/><circle cx="600" cy="460" r="35" fill="#ff9040" opacity=".12"/><circle cx="600" cy="460" r="20" fill="#ffcc40" opacity=".1"/><g filter="url(#b)"><rect width="270" height="190" x="60" y="70" fill="#0c0025" opacity=".9" rx="6"/><rect width="270" height="4" x="60" y="70" fill="url(#c)" rx="2"/><rect width="270" height="4" x="60" y="256" fill="url(#c)" rx="2"/><rect width="4" height="190" x="60" y="70" fill="url(#d)" rx="2"/><rect width="4" height="190" x="326" y="70" fill="url(#d)" rx="2"/><path fill="url(#e)" d="M64 74h262v182H64z"/><rect width="100" height="8" x="88" y="100" fill="#ff6090" opacity=".6" rx="2"/><rect width="210" height="3" x="88" y="120" fill="url(#c)" opacity=".5" rx="1.5"/><rect width="200" height="5" x="88" y="138" fill="#8060a0" opacity=".4" rx="2"/><rect width="180" height="5" x="88" y="153" fill="#8060a0" opacity=".35" rx="2"/><rect width="190" height="5" x="88" y="168" fill="#8060a0" opacity=".3" rx="2"/><rect width="90" height="28" x="88" y="200" fill="none" stroke="url(#c)" stroke-width="1.5" rx="4"/><text x="133" y="219" fill="#ff9040" font-family="system-ui, sans-serif" font-size="10" font-weight="600" opacity=".7" text-anchor="middle">LAUNCH</text></g><g filter="url(#b)"><rect width="260" height="200" x="870" y="55" fill="#0c0025" opacity=".9" rx="6"/><rect width="260" height="4" x="870" y="55" fill="url(#c)" rx="2"/><rect width="260" height="4" x="870" y="251" fill="url(#c)" rx="2"/><rect width="4" height="200" x="870" y="55" fill="url(#d)" rx="2"/><rect width="4" height="200" x="1126" y="55" fill="url(#d)" rx="2"/><path fill="url(#e)" d="M874 59h252v192H874z"/><rect width="80" height="8" x="898" y="85" fill="#ff6090" opacity=".6" rx="2"/><rect width="200" height="3" x="898" y="105" fill="url(#c)" opacity=".5" rx="1.5"/><rect width="80" height="5" x="898" y="125" fill="#8060a0" opacity=".35" rx="2"/><rect width="200" height="8" x="898" y="140" fill="#1a0040" rx="3"/><rect width="140" height="8" x="898" y="140" fill="#ff6090" opacity=".4" rx="3"/><rect width="80" height="5" x="898" y="160" fill="#8060a0" opacity=".35" rx="2"/><rect width="200" height="8" x="898" y="175" fill="#1a0040" rx="3"/><rect width="100" height="8" x="898" y="175" fill="#ff9040" opacity=".4" rx="3"/><rect width="80" height="5" x="898" y="195" fill="#8060a0" opacity=".35" rx="2"/><rect width="200" height="8" x="898" y="210" fill="#1a0040" rx="3"/><rect width="170" height="8" x="898" y="210" fill="#ffcc40" opacity=".4" rx="3"/></g><g filter="url(#b)"><rect width="250" height="155" x="80" y="350" fill="#0c0025" opacity=".9" rx="6"/><rect width="250" height="4" x="80" y="350" fill="url(#c)" rx="2"/><rect width="250" height="4" x="80" y="501" fill="url(#c)" rx="2"/><rect width="4" height="155" x="80" y="350" fill="url(#d)" rx="2"/><rect width="4" height="155" x="326" y="350" fill="url(#d)" rx="2"/><path fill="url(#e)" d="M84 354h242v147H84z"/><rect width="90" height="8" x="108" y="376" fill="#ff6090" opacity=".6" rx="2"/><rect width="200" height="3" x="108" y="396" fill="url(#c)" opacity=".5" rx="1.5"/><rect width="190" height="5" x="108" y="414" fill="#8060a0" opacity=".35" rx="2"/><rect width="170" height="5" x="108" y="429" fill="#8060a0" opacity=".3" rx="2"/><rect width="180" height="5" x="108" y="444" fill="#8060a0" opacity=".28" rx="2"/><rect width="80" height="24" x="108" y="465" fill="none" stroke="url(#c)" stroke-width="1.5" rx="4"/><text x="148" y="481" fill="#ffcc40" font-family="system-ui, sans-serif" font-size="10" font-weight="600" opacity=".7" text-anchor="middle">PLAY</text></g><g filter="url(#b)"><rect width="270" height="165" x="850" y="340" fill="#0c0025" opacity=".9" rx="6"/><rect width="270" height="4" x="850" y="340" fill="url(#c)" rx="2"/><rect width="270" height="4" x="850" y="501" fill="url(#c)" rx="2"/><rect width="4" height="165" x="850" y="340" fill="url(#d)" rx="2"/><rect width="4" height="165" x="1116" y="340" fill="url(#d)" rx="2"/><path fill="url(#e)" d="M854 344h262v157H854z"/><rect width="100" height="8" x="878" y="368" fill="#ff6090" opacity=".6" rx="2"/><rect width="220" height="3" x="878" y="388" fill="url(#c)" opacity=".5" rx="1.5"/><rect width="220" height="5" x="878" y="408" fill="#8060a0" opacity=".35" rx="2"/><rect width="200" height="5" x="878" y="423" fill="#8060a0" opacity=".3" rx="2"/><rect width="210" height="5" x="878" y="438" fill="#8060a0" opacity=".28" rx="2"/><text x="878" y="475" fill="#ff6090" font-family="system-ui, sans-serif" font-size="24" font-weight="700" opacity=".5">88</text><text x="940" y="475" fill="#ff9040" font-family="system-ui, sans-serif" font-size="24" font-weight="700" opacity=".5">MPH</text></g><text x="600" y="285" fill="#ff6090" font-family="system-ui, -apple-system, 'Segoe UI', sans-serif" font-size="80" font-weight="800" letter-spacing="4" opacity=".85" text-anchor="middle">OUTRUN</text><text x="600" y="325" fill="#ffcc40" font-family="system-ui, sans-serif" font-size="16" font-weight="400" letter-spacing="8" opacity=".5" text-anchor="middle">SUNSET CHROME</text></svg>