<svg xmlns="http://www.w3.org/2000/svg" viewBox="0 0 1200 630"><defs><radialGradient id="particle" cx="50%" cy="50%" r="50%"><stop offset="0%" stop-color="#4dd0e1" stop-opacity="1"/><stop offset="100%" stop-color="#4dd0e1" stop-opacity="0.3"/></radialGradient><filter id="particleglow"><feGaussianBlur stdDeviation="1.5" result="coloredBlur"/><feMerge><feMergeNode in="coloredBlur"/><feMergeNode in="SourceGraphic"/></feMerge></filter></defs><rect width="1200" height="630" fill="#0a0e1a"/><g stroke="#4dd0e1" stroke-width="0.5" opacity="0.4"><line x1="150" y1="150" x2="350" y2="280"/><line x1="350" y1="280" x2="600" y2="200"/><line x1="600" y1="200" x2="850" y2="380"/><line x1="850" y1="380" x2="1050" y2="250"/><line x1="150" y1="150" x2="600" y2="200"/><line x1="600" y1="200" x2="1050" y2="250"/><line x1="350" y1="280" x2="850" y2="380"/><line x1="200" y1="450" x2="500" y2="520"/><line x1="500" y1="520" x2="800" y2="450"/><line x1="800" y1="450" x2="1050" y2="550"/><line x1="200" y1="450" x2="800" y2="450"/><line x1="500" y1="520" x2="1050" y2="550"/></g><g fill="url(#particle)" filter="url(#particleglow)"><circle cx="150" cy="150" r="12" opacity="0.95"/><circle cx="350" cy="280" r="14" opacity="1"/><circle cx="600" cy="200" r="10" opacity="0.9"/><circle cx="850" cy="380" r="13" opacity="0.98"/><circle cx="1050" cy="250" r="11" opacity="0.92"/><circle cx="200" cy="450" r="9" opacity="0.85"/><circle cx="500" cy="520" r="12" opacity="0.95"/><circle cx="800" cy="450" r="11" opacity="0.88"/><circle cx="1050" cy="550" r="10" opacity="0.9"/><circle cx="400" cy="380" r="8" opacity="0.8"/><circle cx="750" cy="320" r="7" opacity="0.75"/><circle cx="300" cy="250" r="9" opacity="0.82"/></g><text x="600" y="100" fill="#4dd0e1" font-family="Arial, sans-serif" font-size="88" font-weight="900" letter-spacing="6" text-anchor="middle" opacity="0.95">PARTICLE</text><text x="600" y="595" fill="#4dd0e1" font-family="Arial, sans-serif" font-size="28" font-weight="600" letter-spacing="4" text-anchor="middle" opacity="0.7">FLOATING SYSTEMS</text></svg>