<svg xmlns="http://www.w3.org/2000/svg" width="1200" height="630" fill="none" viewBox="0 0 1200 630"><defs><pattern id="a" width="8" height="8" x="0" y="0" patternUnits="userSpaceOnUse"><path stroke="#1a1040" stroke-width=".3" d="M0 0h8v8H0z" opacity=".3"/></pattern></defs><path fill="#2d1b69" d="M0 0h1200v630H0z"/><path fill="url(#a)" d="M0 0h1200v630H0z"/><path fill="#1a1040" stroke="#4a90d9" stroke-width="4" d="M60 60h320v220H60z"/><path stroke="#4a90d9" d="M68 68h304v204H68z" opacity=".4"/><path fill="#4a90d9" d="M56 56h12v12H56zM372 56h12v12h-12zM56 272h12v12H56zM372 272h12v12h-12z"/><text x="85" y="100" fill="#ffd93d" font-family="ui-monospace, 'Courier New', monospace" font-size="14" font-weight="700">HERO  LV.42</text><text x="85" y="120" fill="#e0e0ff" font-family="ui-monospace, 'Courier New', monospace" font-size="10" opacity=".65">CLASS: PALADIN</text><text x="85" y="148" fill="#ff6b6b" font-family="ui-monospace, 'Courier New', monospace" font-size="10" font-weight="700">HP</text><path fill="#1a1040" stroke="#1a1040" stroke-width="2" d="M110 138h200v12H110z"/><path fill="#ff6b6b" d="M112 140h155v8H112z"/><text x="320" y="148" fill="#e0e0ff" font-family="ui-monospace, 'Courier New', monospace" font-size="9" opacity=".65">782/999</text><text x="85" y="172" fill="#4a90d9" font-family="ui-monospace, 'Courier New', monospace" font-size="10" font-weight="700">MP</text><path fill="#1a1040" stroke="#1a1040" stroke-width="2" d="M110 162h200v12H110z"/><path fill="#4a90d9" d="M112 164h180v8H112z"/><text x="320" y="172" fill="#e0e0ff" font-family="ui-monospace, 'Courier New', monospace" font-size="9" opacity=".65">900/1000</text><text x="85" y="196" fill="#50c878" font-family="ui-monospace, 'Courier New', monospace" font-size="10" font-weight="700">EXP</text><path fill="#1a1040" stroke="#1a1040" stroke-width="2" d="M110 186h200v12H110z"/><path fill="#50c878" d="M112 188h130v8H112z"/><text x="85" y="225" fill="#e0e0ff" font-family="ui-monospace, 'Courier New', monospace" font-size="10" opacity=".65">ATK 128  DEF  96</text><text x="85" y="240" fill="#e0e0ff" font-family="ui-monospace, 'Courier New', monospace" font-size="10" opacity=".65">SPD  74  MAG  42</text><text x="85" y="255" fill="#e0e0ff" font-family="ui-monospace, 'Courier New', monospace" font-size="10" opacity=".65">LCK  38  CHR  60</text><path fill="#1a1040" stroke="#ffd93d" stroke-width="4" d="M780 340h340v210H780z"/><path stroke="#ffd93d" d="M788 348h324v194H788z" opacity=".4"/><path fill="#ffd93d" d="M776 336h12v12h-12zM1112 336h12v12h-12zM776 542h12v12h-12zM1112 542h12v12h-12z"/><text x="800" y="378" fill="#ffd93d" font-family="ui-monospace, 'Courier New', monospace" font-size="13" font-weight="700">QUEST LOG</text><path stroke="#ffd93d" d="M800 386h290" opacity=".3"/><text x="800" y="408" fill="#e0e0ff" font-family="ui-monospace, 'Courier New', monospace" font-size="10" opacity=".75">* Defeat the Dragon King</text><text x="800" y="428" fill="#50c878" font-family="ui-monospace, 'Courier New', monospace" font-size="10" opacity=".85">* Find the Ancient Sword  [DONE]</text><text x="800" y="448" fill="#e0e0ff" font-family="ui-monospace, 'Courier New', monospace" font-size="10" opacity=".75">* Rescue the Princess</text><text x="800" y="468" fill="#e0e0ff" font-family="ui-monospace, 'Courier New', monospace" font-size="10" opacity=".75">* Collect 10 Star Gems</text><text x="800" y="488" fill="#50c878" font-family="ui-monospace, 'Courier New', monospace" font-size="10" opacity=".85">* Talk to the Elder    [DONE]</text><path fill="#ffd93d" d="m800 510 12 6-12 6z" opacity=".7"/><text x="820" y="520" fill="#ffd93d" font-family="ui-monospace, 'Courier New', monospace" font-size="10" opacity=".75">3/5 COMPLETED</text><path fill="#ff6b6b" d="M1040 80h8v8h-8z" opacity=".75"/><path fill="#ff6b6b" d="M1048 72h8v8h-8zM1048 88h8v8h-8z" opacity=".55"/><path fill="#ff6b6b" d="M1048 80h8v8h-8z" opacity=".95"/><path fill="#ff6b6b" d="M1056 80h8v8h-8z" opacity=".75"/><path fill="#ffd93d" d="M100 480h8v8h-8z" opacity=".75"/><path fill="#ffd93d" d="M120 500h8v8h-8z" opacity=".55"/><path fill="#ffd93d" d="M140 490h8v8h-8z" opacity=".65"/><path fill="#ffd93d" d="M130 510h8v8h-8z" opacity=".45"/><path fill="#50c878" d="M1060 560h8v8h-8z" opacity=".65"/><path fill="#50c878" d="M1068 560h8v8h-8z" opacity=".85"/><path fill="#50c878" d="M1060 568h8v8h-8z" opacity=".55"/><path fill="#50c878" d="M1068 568h8v8h-8z" opacity=".65"/><text x="604" y="280" fill="#1a1040" font-family="ui-monospace, 'Courier New', monospace" font-size="96" font-weight="700" letter-spacing="4" text-anchor="middle">PIXEL</text><text x="600" y="276" fill="#4a90d9" font-family="ui-monospace, 'Courier New', monospace" font-size="96" font-weight="700" letter-spacing="4" text-anchor="middle">PIXEL</text><text x="604" y="374" fill="#1a1040" font-family="ui-monospace, 'Courier New', monospace" font-size="96" font-weight="700" letter-spacing="4" text-anchor="middle">ANIME</text><text x="600" y="370" fill="#ffd93d" font-family="ui-monospace, 'Courier New', monospace" font-size="96" font-weight="700" letter-spacing="4" text-anchor="middle">ANIME</text><text x="600" y="415" fill="#e0e0ff" font-family="ui-monospace, 'Courier New', monospace" font-size="14" letter-spacing="6" opacity=".55" text-anchor="middle">JRPG // 8-BIT // NES PALETTE</text><path fill="#4a90d9" stroke="#1a1040" stroke-width="4" d="M380 450h110v36H380z"/><path fill="#4a90d9" d="M376 446h8v8h-8zM486 446h8v8h-8zM376 482h8v8h-8zM486 482h8v8h-8z"/><text x="435" y="474" fill="#fff" font-family="ui-monospace, 'Courier New', monospace" font-size="12" font-weight="700" text-anchor="middle">ATTACK</text><path fill="#ff6b6b" stroke="#1a1040" stroke-width="4" d="M510 450h110v36H510z"/><path fill="#ff6b6b" d="M506 446h8v8h-8zM616 446h8v8h-8zM506 482h8v8h-8zM616 482h8v8h-8z"/><text x="565" y="474" fill="#fff" font-family="ui-monospace, 'Courier New', monospace" font-size="12" font-weight="700" text-anchor="middle">MAGIC</text><path fill="#50c878" stroke="#1a1040" stroke-width="4" d="M640 450h110v36H640z"/><path fill="#50c878" d="M636 446h8v8h-8zM746 446h8v8h-8zM636 482h8v8h-8zM746 482h8v8h-8z"/><text x="695" y="474" fill="#fff" font-family="ui-monospace, 'Courier New', monospace" font-size="12" font-weight="700" text-anchor="middle">HEAL</text><path fill="#ffd93d" d="M422 504v20l8-4 4 6 4-2-4-6h6z" opacity=".85"/></svg>