<svg xmlns="http://www.w3.org/2000/svg" width="1200" height="630" fill="none" viewBox="0 0 1200 630"><path fill="#1a1c2c" d="M0 0h1200v630H0z"/><path stroke="#ff004d" stroke-width="8" d="M96 96h1008v438H96z"/><path stroke="#fff" stroke-width="4" d="M104 104h992v422H104z"/><path fill="#ff004d" stroke="#fff" stroke-width="4" d="M150 150h200v200H150z"/><path fill="#ff004d" d="M154 154h192v192H154z"/><path fill="#00e436" stroke="#fff" stroke-width="4" d="M380 150h200v200H380z"/><path fill="#00e436" d="M384 154h192v192H384z"/><path fill="#29adff" stroke="#fff" stroke-width="4" d="M610 150h200v200H610z"/><path fill="#29adff" d="M614 154h192v192H614z"/><path fill="#ffec27" stroke="#fff" stroke-width="4" d="M840 150h200v200H840z"/><path fill="#ffec27" d="M844 154h192v192H844z"/><text x="600" y="450" fill="#ffec27" font-family="monospace" font-size="64" font-weight="700" letter-spacing="4" text-anchor="middle">PIXEL ART</text><text x="600" y="500" fill="#29adff" font-family="monospace" font-size="24" letter-spacing="2" text-anchor="middle">8-BIT RETRO STYLE</text></svg>