<svg xmlns="http://www.w3.org/2000/svg" viewBox="0 0 1200 630"><defs><pattern id="a" width="18" height="18" patternUnits="userSpaceOnUse"><circle cx="5" cy="5" r="2.2" opacity=".22"/></pattern></defs><path fill="#f06" d="M0 0h1200v630H0z"/><path fill="url(#a)" d="M0 0h1200v630H0z"/><path fill="#0cf" d="M0 630h420L0 260z" opacity=".85"/><path fill="#ff0" d="M1200 0H780l420 370z" opacity=".85"/><path fill="#fff" stroke="#000" stroke-width="10" d="m600 145 34 92 106-32-62 76 92 34-92 34 62 76-106-32-34 92-34-92-106 32 62-76-92-34 92-34-62-76 106 32z"/><text x="600" y="320" font-family="'Helvetica Neue', Helvetica, Arial, sans-serif" font-size="78" font-weight="900" letter-spacing="2" text-anchor="middle">POP ART</text><text x="600" y="370" font-family="'Helvetica Neue', Helvetica, Arial, sans-serif" font-size="18" font-weight="800" letter-spacing="6" text-anchor="middle">LOUD. BOLD. DOTS.</text><path fill="none" stroke="#000" stroke-width="8" d="M180 120h170v120H180zM880 420h170v120H880z" opacity=".35"/></svg>