<svg xmlns="http://www.w3.org/2000/svg" viewBox="0 0 1200 630"><path fill="#f5e6d3" d="M0 0h1200v630H0z"/><path fill="#d4b896" d="M0 0h1200v630H0z" opacity=".08"/><path fill="none" stroke="#8b4513" stroke-width="2" d="M40 30h1120v570H40z" opacity=".4"/><path fill="none" stroke="#8b4513" d="M50 40h1100v550H50z" opacity=".25"/><g opacity=".5" transform="translate(50 40)"><path fill="none" stroke="#8b4513" stroke-width="2" d="M0 30Q0 0 30 0"/><path fill="none" stroke="#8b4513" stroke-width="1.5" d="M5 25Q5 5 25 5"/><circle cx="15" cy="15" r="3" fill="#8b4513" opacity=".5"/></g><g opacity=".5" transform="matrix(-1 0 0 1 1150 40)"><path fill="none" stroke="#8b4513" stroke-width="2" d="M0 30Q0 0 30 0"/><path fill="none" stroke="#8b4513" stroke-width="1.5" d="M5 25Q5 5 25 5"/><circle cx="15" cy="15" r="3" fill="#8b4513" opacity=".5"/></g><g opacity=".5" transform="matrix(1 0 0 -1 50 590)"><path fill="none" stroke="#8b4513" stroke-width="2" d="M0 30Q0 0 30 0"/><path fill="none" stroke="#8b4513" stroke-width="1.5" d="M5 25Q5 5 25 5"/><circle cx="15" cy="15" r="3" fill="#8b4513" opacity=".5"/></g><g opacity=".5" transform="matrix(-1 0 0 -1 1150 590)"><path fill="none" stroke="#8b4513" stroke-width="2" d="M0 30Q0 0 30 0"/><path fill="none" stroke="#8b4513" stroke-width="1.5" d="M5 25Q5 5 25 5"/><circle cx="15" cy="15" r="3" fill="#8b4513" opacity=".5"/></g><g opacity=".5" transform="translate(600 160)"><path stroke="#8b4513" d="M-250 0h220M30 0h220"/><path fill="none" stroke="#8b4513" d="m-20-8 20-8 20 8L0 0Z"/><circle cy="-8" r="3" fill="#c94c4c" opacity=".6"/></g><rect width="400" height="36" x="400" y="195" fill="#c94c4c" opacity=".12" rx="2"/><text x="600" y="220" fill="#c94c4c" font-family="Georgia, 'Times New Roman', serif" font-size="14" font-weight="400" letter-spacing="8" text-anchor="middle">ESTABLISHED STYLE</text><text x="600" y="300" fill="#8b4513" font-family="Georgia, 'Times New Roman', serif" font-size="80" font-weight="700" letter-spacing="4" text-anchor="middle">RETRO</text><text x="600" y="380" fill="#8b4513" font-family="Georgia, 'Times New Roman', serif" font-size="80" font-weight="700" letter-spacing="4" text-anchor="middle">VINTAGE</text><g opacity=".5" transform="translate(600 420)"><path stroke="#8b4513" d="M-250 0h220M30 0h220"/><path fill="none" stroke="#8b4513" d="m-20 8 20 8 20-8L0 0Z"/><circle cy="8" r="3" fill="#2e4a3f" opacity=".6"/></g><text x="600" y="470" fill="#8b4513" font-family="Georgia, 'Times New Roman', serif" font-size="16" letter-spacing="6" opacity=".6" text-anchor="middle">WARM &amp; NOSTALGIC</text><g stroke="#2e4a3f" opacity=".3" transform="translate(200 315)"><path d="M-30 0h60"/><circle r="4" fill="none"/></g><g stroke="#2e4a3f" opacity=".3" transform="translate(1000 315)"><path d="M-30 0h60"/><circle r="4" fill="none"/></g><circle cx="520" cy="530" r="12" fill="#c94c4c" opacity=".5"/><circle cx="560" cy="530" r="12" fill="#8b4513" opacity=".5"/><circle cx="600" cy="530" r="12" fill="#2e4a3f" opacity=".5"/><circle cx="640" cy="530" r="12" fill="#d4a574" opacity=".5"/><circle cx="680" cy="530" r="12" fill="#f5e6d3" stroke="#8b4513" opacity=".5"/></svg>