<svg xmlns="http://www.w3.org/2000/svg" viewBox="0 0 1200 630"><defs><pattern id="b" width="6" height="6" patternUnits="userSpaceOnUse"><circle cx="3" cy="3" r="1.2" fill="#ff6b9d"/></pattern><pattern id="c" width="6" height="6" patternUnits="userSpaceOnUse"><circle cx="3" cy="3" r="1.2" fill="#2563eb"/></pattern><pattern id="d" width="6" height="6" patternUnits="userSpaceOnUse"><circle cx="3" cy="3" r="1.2" fill="#f59e0b"/></pattern><pattern id="a" width="3" height="3" patternUnits="userSpaceOnUse"><circle cx="1.5" cy="1.5" r=".2" fill="#c4a882" opacity=".08"/></pattern></defs><path fill="#fffbf0" d="M0 0h1200v630H0z"/><path fill="url(#a)" d="M0 0h1200v630H0z"/><path fill="url(#b)" d="M0 0h600v630H0z" opacity=".04"/><path fill="url(#c)" d="M600 0h600v630H600z" opacity=".04"/><g stroke="#1a1a1a" opacity=".25"><path d="M40 30h25M52 18v24"/><circle cx="52" cy="30" r="7" fill="none"/><path d="M1135 30h25M1147 18v24"/><circle cx="1147" cy="30" r="7" fill="none"/><path d="M40 600h25M52 588v24"/><circle cx="52" cy="600" r="7" fill="none"/><path d="M1135 600h25M1147 588v24"/><circle cx="1147" cy="600" r="7" fill="none"/></g><path fill="#2563eb" d="M83 83h260v175H83z" opacity=".15"/><path fill="#fffbf0" stroke="#1a1a1a" stroke-width="1.5" d="M80 80h260v175H80z"/><path fill="url(#b)" d="M80 80h260v175H80z" opacity=".08"/><text x="105" y="118" fill="#ff6b9d" font-family="ui-monospace, 'Courier New', monospace" font-size="20" font-weight="700">Dashboard</text><rect width="210" height="5" x="105" y="132" fill="url(#c)" opacity=".3" rx="2"/><rect width="180" height="5" x="105" y="145" fill="url(#c)" opacity=".3" rx="2"/><rect width="195" height="5" x="105" y="158" fill="url(#c)" opacity=".3" rx="2"/><path fill="#ff6b9d" d="M105 178h210v4H105z" opacity=".6"/><rect width="160" height="5" x="105" y="195" fill="url(#c)" opacity=".2" rx="2"/><rect width="130" height="5" x="105" y="208" fill="url(#c)" opacity=".2" rx="2"/><path fill="#ff6b9d" d="M105 225h80v20h-80z" opacity=".7"/><path fill="#2563eb" d="M108 228h80v20h-80z" opacity=".12"/><path fill="#ff6b9d" d="M863 83h260v175H863z" opacity=".15"/><path fill="#fffbf0" stroke="#1a1a1a" stroke-width="1.5" d="M860 80h260v175H860z"/><path fill="url(#c)" d="M860 80h260v175H860z" opacity=".06"/><text x="885" y="118" fill="#2563eb" font-family="ui-monospace, 'Courier New', monospace" font-size="20" font-weight="700">Metrics</text><rect width="210" height="5" x="885" y="132" fill="url(#b)" opacity=".3" rx="2"/><rect width="175" height="5" x="885" y="145" fill="url(#b)" opacity=".3" rx="2"/><path fill="#2563eb" d="M885 165h210v4H885z" opacity=".6"/><text x="885" y="215" fill="#ff6b9d" font-family="ui-monospace, 'Courier New', monospace" font-size="36" font-weight="700">1,204</text><text x="888" y="218" fill="#2563eb" font-family="ui-monospace, 'Courier New', monospace" font-size="36" font-weight="700" opacity=".2">1,204</text><rect width="120" height="5" x="885" y="230" fill="url(#b)" opacity=".2" rx="2"/><path fill="#f59e0b" d="M83 403h260v175H83z" opacity=".12"/><path fill="#fffbf0" stroke="#1a1a1a" stroke-width="1.5" d="M80 400h260v175H80z"/><path fill="url(#d)" d="M80 400h260v175H80z" opacity=".06"/><text x="105" y="438" fill="#f59e0b" font-family="ui-monospace, 'Courier New', monospace" font-size="20" font-weight="700">Activity</text><text x="108" y="441" fill="#ff6b9d" font-family="ui-monospace, 'Courier New', monospace" font-size="20" font-weight="700" opacity=".2">Activity</text><rect width="210" height="5" x="105" y="452" fill="url(#c)" opacity=".25" rx="2"/><rect width="180" height="5" x="105" y="465" fill="url(#c)" opacity=".25" rx="2"/><path fill="#f59e0b" d="M105 482h210v4H105z" opacity=".6"/><path fill="#2563eb" d="M108 513h28v48h-28z" opacity=".15"/><path fill="#ff6b9d" d="M105 510h28v48h-28z" opacity=".6"/><path fill="#ff6b9d" d="M148 523h28v38h-28z" opacity=".15"/><path fill="#2563eb" d="M145 520h28v38h-28z" opacity=".6"/><path fill="#2563eb" d="M188 503h28v48h-28z" opacity=".15"/><path fill="#f59e0b" d="M185 500h28v48h-28z" opacity=".6"/><path fill="#f59e0b" d="M228 528h28v28h-28z" opacity=".15"/><path fill="#ff6b9d" d="M225 525h28v28h-28z" opacity=".6"/><path fill="#ff6b9d" d="M268 513h28v38h-28z" opacity=".15"/><path fill="#2563eb" d="M265 510h28v38h-28z" opacity=".6"/><path fill="#2563eb" d="M863 403h260v175H863z" opacity=".12"/><path fill="#fffbf0" stroke="#1a1a1a" stroke-width="1.5" d="M860 400h260v175H860z"/><path fill="url(#b)" d="M860 400h260v175H860z" opacity=".05"/><text x="885" y="438" fill="#2563eb" font-family="ui-monospace, 'Courier New', monospace" font-size="20" font-weight="700">Status</text><rect width="210" height="5" x="885" y="452" fill="url(#b)" opacity=".3" rx="2"/><rect width="175" height="5" x="885" y="465" fill="url(#b)" opacity=".3" rx="2"/><path fill="#ff6b9d" d="M885 482h210v4H885z" opacity=".5"/><path fill="#f59e0b" d="M888 500h200v10H888z" opacity=".08"/><path fill="#ff6b9d" d="M885 497h140v10H885z" opacity=".5"/><path fill="#ff6b9d" d="M888 520h200v10H888z" opacity=".08"/><path fill="#2563eb" d="M885 517h180v10H885z" opacity=".5"/><path fill="#2563eb" d="M888 540h200v10H888z" opacity=".08"/><path fill="#f59e0b" d="M885 537h100v10H885z" opacity=".5"/><circle cx="520" cy="310" r="60" fill="#ff6b9d" opacity=".08"/><circle cx="530" cy="315" r="60" fill="#2563eb" opacity=".06"/><text x="604" y="306" fill="#2563eb" font-family="ui-monospace, 'Courier New', monospace" font-size="52" font-weight="700" opacity=".45" text-anchor="middle">RISOGRAPH</text><text x="600" y="302" fill="#ff6b9d" font-family="ui-monospace, 'Courier New', monospace" font-size="52" font-weight="700" text-anchor="middle">RISOGRAPH</text><text x="600" y="340" fill="#1a1a1a" font-family="ui-monospace, 'Courier New', monospace" font-size="12" letter-spacing="5" opacity=".4" text-anchor="middle">PRINT AESTHETICS</text></svg>