<svg xmlns="http://www.w3.org/2000/svg" viewBox="0 0 1200 630"><defs><pattern id="d" width="8" height="8" x="0" y="0" patternUnits="userSpaceOnUse"><circle cx="4" cy="4" r="1" fill="#ffb7c5" opacity=".18"/></pattern><pattern id="b" width="10" height="10" x="0" y="0" patternUnits="userSpaceOnUse"><circle cx="5" cy="5" r=".8" fill="#ffb7c5" opacity=".1"/></pattern><filter id="c" width="130%" height="130%" x="-10%" y="-10%"><feGaussianBlur in="SourceAlpha" stdDeviation="6"/><feOffset dx="2" dy="4" result="shadow"/><feFlood flood-color="#ffb7c5" flood-opacity=".25"/><feComposite in2="shadow" operator="in"/><feMerge><feMergeNode/><feMergeNode in="SourceGraphic"/></feMerge></filter><filter id="e"><feGaussianBlur stdDeviation="2"/></filter><linearGradient id="a" x1="0" x2="0" y1="0" y2="1"><stop offset="0%" stop-color="#fff5f7"/><stop offset="100%" stop-color="#fff"/></linearGradient></defs><path fill="url(#a)" d="M0 0h1200v630H0z"/><path fill="url(#b)" d="M0 0h1200v300H0z"/><ellipse cx="150" cy="100" fill="#ffb7c5" opacity=".35" rx="12" ry="7" transform="rotate(30 150 100)"/><ellipse cx="380" cy="70" fill="#fecdd3" opacity=".3" rx="10" ry="6" transform="rotate(50 380 70)"/><ellipse cx="820" cy="90" fill="#ffb7c5" opacity=".3" rx="11" ry="6" transform="rotate(-20 820 90)"/><ellipse cx="1050" cy="140" fill="#c4b5fd" opacity=".25" rx="9" ry="5" transform="rotate(65 1050 140)"/><ellipse cx="100" cy="520" fill="#fecdd3" opacity=".3" rx="10" ry="6" transform="rotate(40 100 520)"/><ellipse cx="1100" cy="500" fill="#ffb7c5" opacity=".28" rx="11" ry="6" transform="rotate(-15 1100 500)"/><ellipse cx="700" cy="560" fill="#c4b5fd" opacity=".25" rx="9" ry="5" transform="rotate(25 700 560)"/><g filter="url(#c)"><rect width="260" height="200" x="60" y="80" fill="none" stroke="#ffb7c5" stroke-width="2.5" opacity=".7" rx="16"/><rect width="248" height="188" x="66" y="86" fill="none" stroke="#fecdd3" opacity=".5" rx="13"/><rect width="248" height="188" x="66" y="86" fill="#fff" rx="13"/><rect width="248" height="188" x="66" y="86" fill="url(#d)" rx="13"/><path fill="#ffb7c5" d="m76 106 6-10h158l6 10-6 10H82Z" opacity=".6"/><text x="161" y="110" fill="#fff" font-family="system-ui, -apple-system, sans-serif" font-size="11" font-weight="600" text-anchor="middle">Profile Overview</text><circle cx="110" cy="160" r="22" fill="#fecdd3" opacity=".4"/><circle cx="110" cy="160" r="18" fill="#ffb7c5" opacity=".2"/><rect width="90" height="7" x="145" y="145" fill="#ffb7c5" opacity=".45" rx="3.5"/><rect width="140" height="5" x="145" y="160" fill="#e2d6d9" opacity=".5" rx="2.5"/><rect width="120" height="5" x="145" y="172" fill="#e2d6d9" opacity=".5" rx="2.5"/><rect width="190" height="6" x="90" y="200" fill="#fce4ec" rx="3"/><rect width="130" height="6" x="90" y="200" fill="#ffb7c5" opacity=".55" rx="3"/><rect width="70" height="22" x="90" y="224" fill="#ffb7c5" opacity=".25" rx="11"/><text x="125" y="239" fill="#d6336c" font-family="system-ui, sans-serif" font-size="9" font-weight="500" text-anchor="middle">Details</text><g opacity=".6" transform="translate(290 90)"><path stroke="#fde68a" stroke-width="1.5" d="M0-7V7M-7 0H7"/><path stroke="#fde68a" stroke-width=".8" d="m-4-4 8 8M4-4l-8 8"/><circle r="2" fill="#fde68a" filter="url(#e)"/></g></g><g filter="url(#c)"><rect width="250" height="210" x="880" y="60" fill="none" stroke="#c4b5fd" stroke-width="2.5" opacity=".65" rx="16"/><rect width="238" height="198" x="886" y="66" fill="none" stroke="#ddd6fe" opacity=".45" rx="13"/><rect width="238" height="198" x="886" y="66" fill="#fff" rx="13"/><rect width="238" height="198" x="886" y="66" fill="url(#d)" rx="13"/><path fill="#c4b5fd" d="m896 86 6-10h158l6 10-6 10H902Z" opacity=".55"/><text x="981" y="90" fill="#fff" font-family="system-ui, -apple-system, sans-serif" font-size="11" font-weight="600" text-anchor="middle">Daily Stats</text><rect width="60" height="6" x="910" y="115" fill="#ffb7c5" opacity=".5" rx="3"/><text x="978" y="121" fill="#a0aec0" font-family="system-ui, sans-serif" font-size="9">Hearts</text><rect width="160" height="6" x="910" y="135" fill="#fce4ec" rx="3"/><rect width="120" height="6" x="910" y="135" fill="#ffb7c5" opacity=".5" rx="3"/><rect width="60" height="6" x="910" y="155" fill="#c4b5fd" opacity=".5" rx="3"/><text x="978" y="161" fill="#a0aec0" font-family="system-ui, sans-serif" font-size="9">Stars</text><rect width="160" height="6" x="910" y="175" fill="#ede9fe" rx="3"/><rect width="95" height="6" x="910" y="175" fill="#c4b5fd" opacity=".5" rx="3"/><rect width="60" height="6" x="910" y="195" fill="#fecdd3" opacity=".5" rx="3"/><text x="978" y="201" fill="#a0aec0" font-family="system-ui, sans-serif" font-size="9">Petals</text><rect width="160" height="6" x="910" y="215" fill="#fce4ec" rx="3"/><rect width="140" height="6" x="910" y="215" fill="#fecdd3" opacity=".5" rx="3"/><g opacity=".55" transform="translate(878 62)"><path stroke="#fde68a" stroke-width="1.2" d="M0-5V5M-5 0H5"/><circle r="1.5" fill="#fde68a" filter="url(#e)"/></g></g><g filter="url(#c)"><rect width="230" height="180" x="80" y="380" fill="none" stroke="#ffb7c5" stroke-width="2.5" opacity=".65" rx="16"/><rect width="218" height="168" x="86" y="386" fill="none" stroke="#fecdd3" opacity=".45" rx="13"/><rect width="218" height="168" x="86" y="386" fill="#fff" rx="13"/><rect width="218" height="168" x="86" y="386" fill="url(#d)" rx="13"/><path fill="#fecdd3" d="m96 406 6-10h138l6 10-6 10H102Z" opacity=".6"/><text x="171" y="410" fill="#fff" font-family="system-ui, -apple-system, sans-serif" font-size="11" font-weight="600" text-anchor="middle">Notifications</text><circle cx="115" cy="442" r="4" fill="#ffb7c5" opacity=".6"/><rect width="140" height="5" x="128" y="438" fill="#e2d6d9" opacity=".55" rx="2.5"/><rect width="100" height="4" x="128" y="449" fill="#e2d6d9" opacity=".35" rx="2"/><circle cx="115" cy="472" r="4" fill="#c4b5fd" opacity=".6"/><rect width="130" height="5" x="128" y="468" fill="#e2d6d9" opacity=".55" rx="2.5"/><rect width="110" height="4" x="128" y="479" fill="#e2d6d9" opacity=".35" rx="2"/><circle cx="115" cy="502" r="4" fill="#fecdd3" opacity=".6"/><rect width="150" height="5" x="128" y="498" fill="#e2d6d9" opacity=".55" rx="2.5"/><rect width="90" height="4" x="128" y="509" fill="#e2d6d9" opacity=".35" rx="2"/><g opacity=".5" transform="translate(300 555)"><path stroke="#fde68a" stroke-width="1.2" d="M0-6V6M-6 0H6"/><path stroke="#fde68a" stroke-width=".7" d="m-3.5-3.5 7 7M3.5-3.5l-7 7"/><circle r="1.8" fill="#fde68a" filter="url(#e)"/></g></g><g filter="url(#c)"><rect width="270" height="190" x="860" y="370" fill="none" stroke="#ffb7c5" stroke-width="2.5" opacity=".7" rx="16"/><rect width="258" height="178" x="866" y="376" fill="none" stroke="#fecdd3" opacity=".5" rx="13"/><rect width="258" height="178" x="866" y="376" fill="#fff" rx="13"/><rect width="258" height="178" x="866" y="376" fill="url(#d)" rx="13"/><path fill="#ffb7c5" d="m876 396 6-10h178l6 10-6 10H882Z" opacity=".6"/><text x="971" y="400" fill="#fff" font-family="system-ui, -apple-system, sans-serif" font-size="11" font-weight="600" text-anchor="middle">Weekly Schedule</text><rect width="6" height="6" x="890" y="420" fill="#ffb7c5" opacity=".5" rx="3"/><rect width="80" height="5" x="906" y="421" fill="#ffb7c5" opacity=".35" rx="2.5"/><rect width="100" height="5" x="996" y="421" fill="#e2d6d9" opacity=".5" rx="2.5"/><rect width="6" height="6" x="890" y="442" fill="#c4b5fd" opacity=".5" rx="3"/><rect width="70" height="5" x="906" y="443" fill="#c4b5fd" opacity=".35" rx="2.5"/><rect width="110" height="5" x="986" y="443" fill="#e2d6d9" opacity=".5" rx="2.5"/><rect width="6" height="6" x="890" y="464" fill="#fecdd3" opacity=".5" rx="3"/><rect width="90" height="5" x="906" y="465" fill="#fecdd3" opacity=".35" rx="2.5"/><rect width="90" height="5" x="1006" y="465" fill="#e2d6d9" opacity=".5" rx="2.5"/><rect width="200" height="7" x="890" y="492" fill="#fce4ec" rx="3.5"/><rect width="150" height="7" x="890" y="492" fill="#ffb7c5" opacity=".45" rx="3.5"/><rect width="80" height="22" x="890" y="516" fill="#c4b5fd" opacity=".2" rx="11"/><text x="930" y="531" fill="#7c3aed" font-family="system-ui, sans-serif" font-size="9" font-weight="500" text-anchor="middle">View All</text><g opacity=".55" transform="translate(855 372)"><path stroke="#fde68a" d="M0-5V5M-5 0H5"/><circle r="1.5" fill="#fde68a" filter="url(#e)"/></g></g><path fill="#ffb7c5" d="M420 140c0-6 6-12 12-6 6-6 12 0 12 6 0 10-12 18-12 18s-12-8-12-18" opacity=".3"/><path fill="#c4b5fd" d="M770 500c0-4 4-8 8-4 4-4 8 0 8 4 0 6-8 11-8 11s-8-5-8-11" opacity=".25"/><text x="600" y="290" fill="#ffb7c5" font-family="system-ui, -apple-system, 'Segoe UI', sans-serif" font-size="72" font-weight="800" opacity=".9" text-anchor="middle">SHOUJO MANGA</text><text x="600" y="330" fill="#d6336c" font-family="system-ui, -apple-system, sans-serif" font-size="16" font-weight="400" letter-spacing="6" opacity=".5" text-anchor="middle">ROMANTIC DREAM AESTHETIC</text></svg>