<svg xmlns="http://www.w3.org/2000/svg" fill="none" viewBox="0 0 1200 630"><defs><pattern id="a" width="4" height="4" patternUnits="userSpaceOnUse"><circle cx="2" cy="2" r=".3" fill="#c4b5a0" opacity=".15"/></pattern><filter id="b"><feTurbulence baseFrequency=".02" numOctaves="3" result="noise"/><feDisplacementMap in="SourceGraphic" in2="noise" scale="2"/></filter></defs><path fill="#faf8f5" d="M0 0h1200v630H0z"/><path fill="url(#a)" d="M0 0h1200v630H0z"/><text fill="#1a1a1a" font-family="Georgia, serif" font-size="16" font-style="italic" opacity=".5" transform="translate(80 120)">Welcome to Acme</text><text y="50" fill="#1a1a1a" font-family="system-ui, sans-serif" font-size="42" font-weight="700" transform="translate(80 120)">Build something</text><text y="100" fill="#1a1a1a" font-family="Brush Script MT, cursive" font-size="48" font-style="italic" transform="translate(80 120)">amazing</text><text y="150" fill="#1a1a1a" font-family="system-ui, sans-serif" font-size="16" opacity=".6" transform="translate(80 120)">powerful tools designed to streamline workflows,</text><text y="175" fill="#1a1a1a" font-family="system-ui, sans-serif" font-size="16" opacity=".6" transform="translate(80 120)">boost productivity, and drive results.</text><g transform="translate(80 330)"><rect width="160" height="48" fill="#fff" stroke="#1a1a1a" stroke-width="2" filter="url(#b)" rx="4"/><text x="80" y="30" fill="#1a1a1a" font-family="system-ui, sans-serif" font-size="16" font-weight="600" text-anchor="middle">Start free trial</text></g><g stroke="#1a1a1a" stroke-width="1.5"><path stroke-dasharray="4 3" d="M255 360q20-10 40-2 15 4 25 10"/><path d="m313 362 10 8-6 8"/></g><g transform="translate(80 410)"><circle cx="20" cy="20" r="18" fill="#e0d5c7" stroke="#fff" stroke-width="2"/><circle cx="45" cy="20" r="18" fill="#d4c4b0" stroke="#fff" stroke-width="2"/><circle cx="70" cy="20" r="18" fill="#c8b89c" stroke="#fff" stroke-width="2"/><circle cx="95" cy="20" r="18" fill="#bcac88" stroke="#fff" stroke-width="2"/><text x="125" y="25" fill="#1a1a1a" font-family="system-ui, sans-serif" font-size="14" opacity=".7">Join 50,000+ teams</text></g><g transform="translate(620 80)"><circle cx="520" cy="200" r="60" fill="#f44"/><g transform="rotate(1)"><path fill="#f0ebe3" d="M0 0h420v280H0z"/><path fill="#faf8f5" d="M380 0h40v40Z"/><path fill="#e0d8cc" d="m380 0 40 40h-40Z"/><rect width="380" height="240" x="20" y="20" fill="#fff" stroke="#1a1a1a" opacity=".1" rx="4"/><text x="210" y="145" fill="#1a1a1a" font-family="Brush Script MT, cursive" font-size="24" font-style="italic" opacity=".25" text-anchor="middle">Product Screenshot Sketch</text><rect width="416" height="276" x="2" y="2" stroke="#1a1a1a" stroke-dasharray="6 4" rx="2"/></g></g><path fill="#fff" d="M0 450h1200v180H0z" opacity=".5"/><g transform="translate(150 540)"><circle r="55" stroke="#1a1a1a" stroke-width="1.5" filter="url(#b)"/><text y="8" fill="#1a1a1a" font-family="Brush Script MT, cursive" font-size="32" font-weight="700" text-anchor="middle">500k+</text><text y="80" fill="#1a1a1a" font-family="system-ui, sans-serif" font-size="13" opacity=".6" text-anchor="middle">Active Users</text></g><g transform="translate(400 540)"><circle r="55" stroke="#1a1a1a" stroke-width="1.5" filter="url(#b)"/><text y="8" fill="#1a1a1a" font-family="Brush Script MT, cursive" font-size="32" font-weight="700" text-anchor="middle">99.99%</text><text y="80" fill="#1a1a1a" font-family="system-ui, sans-serif" font-size="13" opacity=".6" text-anchor="middle">Uptime SLA</text></g><g transform="translate(650 540)"><circle r="55" stroke="#1a1a1a" stroke-width="1.5" filter="url(#b)"/><text y="8" fill="#1a1a1a" font-family="Brush Script MT, cursive" font-size="32" font-weight="700" text-anchor="middle">24/7</text><text y="80" fill="#1a1a1a" font-family="system-ui, sans-serif" font-size="13" opacity=".6" text-anchor="middle">Support Access</text></g><g transform="translate(900 540)"><circle r="55" stroke="#1a1a1a" stroke-width="1.5" filter="url(#b)"/><text y="8" fill="#1a1a1a" font-family="Brush Script MT, cursive" font-size="32" font-weight="700" text-anchor="middle">$10M+</text><text y="80" fill="#1a1a1a" font-family="system-ui, sans-serif" font-size="13" opacity=".6" text-anchor="middle">Customer Savings</text></g><text x="1100" y="50" fill="#1a1a1a" font-family="system-ui, sans-serif" font-size="14" font-weight="600" opacity=".3" text-anchor="end">SKETCH STYLE</text></svg>