<svg xmlns="http://www.w3.org/2000/svg" width="1200" height="630" fill="none" viewBox="0 0 1200 630"><defs><linearGradient id="a" x1="0" x2="0" y1="0" y2="630" gradientUnits="userSpaceOnUse"><stop offset="0%" stop-color="#c9c0b0"/><stop offset="100%" stop-color="#a89a85"/></linearGradient><linearGradient id="e" x1="0" x2="0" y1="0" y2="1" gradientUnits="objectBoundingBox"><stop offset="0%" stop-color="#f0f0f0"/><stop offset="50%" stop-color="#d0d0d0"/><stop offset="100%" stop-color="#b0b0b0"/></linearGradient><linearGradient id="f" x1="0" x2="0" y1="0" y2="1" gradientUnits="objectBoundingBox"><stop offset="0%" stop-color="#5cb3f0"/><stop offset="50%" stop-color="#3498db"/><stop offset="100%" stop-color="#2980b9"/></linearGradient><linearGradient id="b" x1="0" x2="0" y1="0" y2="1" gradientUnits="objectBoundingBox"><stop offset="0%" stop-color="#fff"/><stop offset="100%" stop-color="#e8e8e8"/></linearGradient><linearGradient id="d" x1="0" x2="0" y1="0" y2="1" gradientUnits="objectBoundingBox"><stop offset="0%" stop-color="#f5e6d3"/><stop offset="100%" stop-color="#d4c4a8"/></linearGradient><filter id="g" width="140%" height="140%" x="-20%" y="-20%"><feGaussianBlur in="SourceAlpha" result="blur" stdDeviation="3"/><feOffset dx="2" dy="2" result="offsetBlur"/><feComposite in2="SourceAlpha" k2="-1" k3="1" operator="arithmetic" result="shadowDiff"/><feFlood flood-color="#000" flood-opacity=".3"/><feComposite in2="shadowDiff" operator="in"/><feComposite in2="SourceGraphic"/></filter><filter id="c" width="140%" height="140%" x="-20%" y="-20%"><feDropShadow dx="4" dy="4" flood-color="#000" flood-opacity=".25" stdDeviation="4"/></filter></defs><path fill="url(#a)" d="M0 0h1200v630H0z"/><rect width="600" height="400" x="300" y="120" fill="url(#b)" filter="url(#c)" rx="20"/><rect width="596" height="396" x="302" y="122" stroke="rgba(255,255,255,0.8)" stroke-width="2" rx="18"/><text x="600" y="200" fill="#5a4a3a" font-family="system-ui, -apple-system, sans-serif" font-size="48" font-weight="700" text-anchor="middle">Skeuomorphism</text><text x="600" y="240" fill="#8a7a6a" font-family="system-ui, -apple-system, sans-serif" font-size="20" text-anchor="middle">Digital meets physical</text><rect width="180" height="120" x="380" y="280" fill="url(#d)" filter="url(#c)" rx="12"/><rect width="176" height="116" x="382" y="282" stroke="rgba(255,255,255,0.5)" rx="10"/><text x="470" y="330" fill="#8b7355" font-family="system-ui" font-size="14" font-weight="600" text-anchor="middle">Leather</text><text x="470" y="350" fill="#a89a7a" font-family="system-ui" font-size="12" text-anchor="middle">Rich texture</text><rect width="100" height="20" x="420" y="370" fill="url(#e)" stroke="#999" rx="4"/><text x="470" y="384" fill="#666" font-family="system-ui" font-size="10" font-weight="600" text-anchor="middle">Details</text><rect width="180" height="120" x="640" y="280" fill="url(#e)" filter="url(#c)" rx="12"/><rect width="176" height="116" x="642" y="282" stroke="rgba(255,255,255,0.8)" rx="10"/><text x="730" y="330" fill="#666" font-family="system-ui" font-size="14" font-weight="600" text-anchor="middle">Metal</text><text x="730" y="350" fill="#888" font-family="system-ui" font-size="12" text-anchor="middle">Brushed finish</text><rect width="100" height="20" x="680" y="370" fill="url(#f)" stroke="#2471a3" rx="4"/><text x="730" y="384" fill="#fff" font-family="system-ui" font-size="10" font-weight="600" text-anchor="middle">Action</text><rect width="240" height="50" x="480" y="440" fill="url(#f)" filter="url(#c)" rx="10"/><rect width="236" height="20" x="482" y="442" fill="rgba(255,255,255,0.2)" rx="8"/><text x="600" y="472" fill="#fff" font-family="system-ui" font-size="16" font-weight="700" text-anchor="middle">Get Started</text><circle cx="150" cy="315" r="40" fill="url(#e)" filter="url(#c)"/><circle cx="150" cy="315" r="30" fill="url(#g)" stroke="#ccc" stroke-width="2"/><circle cx="1050" cy="315" r="40" fill="url(#e)" filter="url(#c)"/><circle cx="1050" cy="315" r="30" fill="url(#g)" stroke="#ccc" stroke-width="2"/></svg>