<svg xmlns="http://www.w3.org/2000/svg" viewBox="0 0 1200 630"><defs><linearGradient id="a" x1="0" x2="1" y1="0" y2="1"><stop offset="0%" stop-color="#f1f5f9"/><stop offset="100%" stop-color="#e8edf5"/></linearGradient><filter id="b" width="130%" height="130%" x="-10%" y="-10%"><feGaussianBlur in="SourceAlpha" stdDeviation="8"/><feOffset dx="4" dy="6" result="shadow"/><feFlood flood-color="#6366f1" flood-opacity=".12"/><feComposite in2="shadow" operator="in"/><feMerge><feMergeNode/><feMergeNode in="SourceGraphic"/></feMerge></filter></defs><path fill="url(#a)" d="M0 0h1200v630H0z"/><circle cx="200" cy="150" r="180" fill="#6366f1" opacity=".04"/><circle cx="1000" cy="500" r="200" fill="#6366f1" opacity=".04"/><g filter="url(#b)"><rect width="240" height="160" x="80" y="120" fill="#fff" rx="20"/><rect width="80" height="8" x="105" y="150" fill="#6366f1" opacity=".6" rx="4"/><rect width="190" height="6" x="105" y="170" fill="#cbd5e1" rx="3"/><rect width="160" height="6" x="105" y="186" fill="#cbd5e1" rx="3"/><rect width="140" height="6" x="105" y="202" fill="#cbd5e1" rx="3"/><circle cx="270" cy="245" r="16" fill="#6366f1" opacity=".15"/><path fill="none" stroke="#6366f1" stroke-linecap="round" stroke-width="2" d="m264 245 4 4 8-8"/></g><g filter="url(#b)"><rect width="240" height="180" x="880" y="100" fill="#fff" rx="20"/><circle cx="1000" cy="170" r="30" fill="#6366f1" opacity=".12"/><path fill="#6366f1" d="m988 170 12-12 12 12-12 12Z" opacity=".4"/><rect width="180" height="6" x="910" y="220" fill="#cbd5e1" rx="3"/><rect width="140" height="6" x="910" y="236" fill="#cbd5e1" rx="3"/><rect width="100" height="6" x="910" y="252" fill="#cbd5e1" rx="3"/></g><g filter="url(#b)"><rect width="200" height="140" x="120" y="380" fill="#fff" rx="20"/><rect width="50" height="50" x="148" y="410" fill="#6366f1" opacity=".1" rx="12"/><rect width="140" height="6" x="148" y="476" fill="#cbd5e1" rx="3"/><rect width="100" height="6" x="148" y="492" fill="#cbd5e1" rx="3"/></g><g filter="url(#b)"><rect width="260" height="160" x="860" y="360" fill="#fff" rx="20"/><rect width="200" height="8" x="890" y="390" fill="#e2e8f0" rx="4"/><rect width="130" height="8" x="890" y="390" fill="#6366f1" opacity=".4" rx="4"/><rect width="200" height="8" x="890" y="416" fill="#e2e8f0" rx="4"/><rect width="80" height="8" x="890" y="416" fill="#6366f1" opacity=".3" rx="4"/><rect width="200" height="8" x="890" y="442" fill="#e2e8f0" rx="4"/><rect width="160" height="8" x="890" y="442" fill="#6366f1" opacity=".35" rx="4"/><rect width="90" height="28" x="890" y="476" fill="#6366f1" opacity=".15" rx="14"/><text x="935" y="495" fill="#6366f1" font-family="system-ui, -apple-system, sans-serif" font-size="12" font-weight="500" text-anchor="middle">Details</text></g><rect width="70" height="28" x="400" y="130" fill="#6366f1" opacity=".08" rx="14"/><rect width="80" height="28" x="720" y="480" fill="#6366f1" opacity=".08" rx="14"/><text x="600" y="295" fill="#334155" font-family="system-ui, -apple-system, 'Segoe UI', sans-serif" font-size="80" font-weight="700" letter-spacing="-1" text-anchor="middle">SOFT UI</text><text x="600" y="340" fill="#6366f1" font-family="system-ui, -apple-system, 'Segoe UI', sans-serif" font-size="18" font-weight="400" letter-spacing="6" opacity=".7" text-anchor="middle">WARM &amp; APPROACHABLE</text><circle cx="500" cy="420" r="5" fill="#6366f1" opacity=".15"/><circle cx="700" cy="180" r="4" fill="#6366f1" opacity=".12"/><circle cx="550" cy="500" r="3" fill="#6366f1" opacity=".1"/></svg>