<svg xmlns="http://www.w3.org/2000/svg" viewBox="0 0 1200 630"><defs><radialGradient id="b" cx="50%" cy="50%" r="60%"><stop offset="0%" stop-color="#fbbf24" stop-opacity=".85"/><stop offset="100%" stop-color="#fbbf24" stop-opacity="0"/></radialGradient><linearGradient id="a" x1="0" x2="1200" y1="0" y2="630" gradientUnits="userSpaceOnUse"><stop offset="0%" stop-color="#f0fdf4"/><stop offset="55%" stop-color="#fff"/><stop offset="100%" stop-color="#e0f2fe"/></linearGradient></defs><path fill="url(#a)" d="M0 0h1200v630H0z"/><circle cx="980" cy="150" r="110" fill="url(#b)"/><circle cx="980" cy="150" r="50" fill="#fbbf24"/><path fill="#22c55e" d="M140 470c70-120 210-170 330-150-40 140-160 240-330 150" opacity=".25"/><path fill="#0ea5e9" d="M210 520c60-90 170-130 260-120-30 110-120 190-260 120" opacity=".18"/><rect width="580" height="260" x="310" y="190" fill="#fff" stroke="#22c55e" stroke-width="6" opacity=".92" rx="36"/><rect width="240" height="14" x="350" y="230" fill="#2d6a4f" opacity=".75" rx="7"/><rect width="420" height="10" x="350" y="262" fill="#2d6a4f" opacity=".18" rx="5"/><rect width="390" height="10" x="350" y="286" fill="#2d6a4f" opacity=".14" rx="5"/><rect width="180" height="44" x="350" y="336" fill="#22c55e" rx="22"/><text x="600" y="350" fill="#2d6a4f" font-family="'Helvetica Neue', Helvetica, Arial, sans-serif" font-size="72" font-weight="900" letter-spacing="2" text-anchor="middle">SOLARPUNK</text><text x="600" y="402" fill="#2d6a4f" font-family="'Helvetica Neue', Helvetica, Arial, sans-serif" font-size="16" font-weight="800" letter-spacing="6" text-anchor="middle">BRIGHT ECO FUTURE</text></svg>