<svg xmlns="http://www.w3.org/2000/svg" viewBox="0 0 1200 630"><path fill="#2d1810" d="M0 0h1200v630H0z"/><circle cx="160" cy="140" r="78" fill="none" stroke="#b87333" stroke-width="10" opacity=".28"/><circle cx="160" cy="140" r="52" fill="none" stroke="peru" stroke-width="6" opacity=".22"/><circle cx="1040" cy="500" r="96" fill="none" stroke="peru" stroke-width="12" opacity=".22"/><circle cx="1040" cy="500" r="64" fill="none" stroke="#b87333" stroke-width="8" opacity=".18"/><circle cx="260" cy="90" r="6" fill="peru" opacity=".55"/><circle cx="960" cy="110" r="6" fill="peru" opacity=".55"/><circle cx="930" cy="540" r="6" fill="peru" opacity=".55"/><circle cx="270" cy="540" r="6" fill="peru" opacity=".55"/><path fill="#f4e4bc" stroke="#b87333" stroke-width="12" d="M280 160h640v310H280z"/><path fill="#f4e4bc" stroke="#2d1810" stroke-width="4" d="M312 192h576v246H312z" opacity=".65"/><path fill="#2d1810" d="M350 232h260v16H350z" opacity=".85"/><path fill="#2d1810" d="M350 268h440v10H350z" opacity=".22"/><path fill="#2d1810" d="M350 292h410v10H350z" opacity=".18"/><path fill="peru" stroke="#2d1810" stroke-width="4" d="M350 338h170v36H350z"/><text x="600" y="355" fill="#2d1810" font-family="'Helvetica Neue', Helvetica, Arial, sans-serif" font-size="68" font-weight="900" letter-spacing="2" text-anchor="middle">STEAMPUNK</text><text x="600" y="408" fill="#8b4513" font-family="'Helvetica Neue', Helvetica, Arial, sans-serif" font-size="18" font-weight="700" letter-spacing="6" text-anchor="middle">BRASS MECHANICA</text></svg>