<svg xmlns="http://www.w3.org/2000/svg" width="1200" height="630" fill="none" viewBox="0 0 1200 630"><defs><linearGradient id="a" x1="0" x2="0" y1="0" y2="630" gradientUnits="userSpaceOnUse"><stop offset="0%" stop-color="#0f0520"/><stop offset="30%" stop-color="#1a0a30"/><stop offset="50%" stop-color="#4a1942"/><stop offset="70%" stop-color="#ff6b6b"/><stop offset="100%" stop-color="#feca57"/></linearGradient><linearGradient id="b" x1="0" x2="0" y1="0" y2="1" gradientUnits="objectBoundingBox"><stop offset="0%" stop-color="#f0f"/><stop offset="50%" stop-color="#ff6ec7"/><stop offset="100%" stop-color="#feca57"/></linearGradient><filter id="c" width="200%" height="200%" x="-50%" y="-50%"><feGaussianBlur result="blur" stdDeviation="6"/><feMerge><feMergeNode in="blur"/><feMergeNode in="blur"/><feMergeNode in="SourceGraphic"/></feMerge></filter></defs><path fill="url(#a)" d="M0 0h1200v630H0z"/><circle cx="100" cy="80" r="2" fill="#fff" opacity=".8"/><circle cx="250" cy="120" r="1.5" fill="#fff" opacity=".6"/><circle cx="400" cy="60" r="2" fill="#fff" opacity=".7"/><circle cx="550" cy="100" r="1" fill="#fff" opacity=".5"/><circle cx="700" cy="50" r="2" fill="#fff" opacity=".8"/><circle cx="850" cy="90" r="1.5" fill="#fff" opacity=".6"/><circle cx="1000" cy="70" r="2" fill="#fff" opacity=".7"/><circle cx="1100" cy="110" r="1" fill="#fff" opacity=".5"/><circle cx="600" cy="420" r="140" fill="url(#b)"/><path fill="#0f0520" d="M460 350h280v12H460zM460 380h280v10H460zM460 410h280v8H460zM460 440h280v6H460zM460 470h280v5H460z" opacity=".4"/><path fill="#0f0520" d="m0 500 200-120 150 70 150-100 150 70 150-80 150 60 150-40 100 60v210H0z"/><g stroke="#f0f" opacity=".6"><path d="M0 500h1200M0 530h1200M0 560h1200M0 590h1200M0 620h1200M600 480v150M600 480 400 630M600 480 200 630M600 480 0 630M600 480l200 150M600 480l400 150M600 480l600 150"/></g><text x="600" y="180" fill="#f0f" filter="url(#c)" font-family="system-ui, -apple-system, sans-serif" font-size="80" font-weight="700" text-anchor="middle">SYNTHWAVE</text><text x="600" y="240" fill="#0ff" filter="url(#c)" font-family="system-ui, -apple-system, sans-serif" font-size="28" text-anchor="middle">RETRO FUTURE VIBES</text><path stroke="#f0f" stroke-width="2" d="M200 280h250" filter="url(#c)"/><path stroke="#0ff" stroke-width="2" d="M750 280h250" filter="url(#c)"/></svg>