<svg xmlns="http://www.w3.org/2000/svg" viewBox="0 0 1200 630"><defs><pattern id="a" width="60" height="20" x="0" y="0" patternUnits="userSpaceOnUse"><path fill="none" stroke="#1a3055" stroke-width="1.5" d="M0 10q15-10 30 0t30 0" opacity=".25"/></pattern></defs><path fill="#f5f0e1" d="M0 0h1200v630H0z"/><path fill="url(#a)" d="M30 30h1140v20H30z"/><path fill="url(#a)" d="M30 580h1140v20H30z"/><path fill="url(#a)" d="M30 30h20v570H30z"/><path fill="url(#a)" d="M1150 30h20v570h-20z"/><path fill="none" stroke="#1a3055" stroke-width="3" d="M60 55h1080v520H60z" opacity=".3"/><rect width="260" height="175" x="90" y="90" fill="#f5f0e1" stroke="#1a3055" stroke-width="3.5" rx="2"/><path fill="#1a3055" d="M90 90h260v35H90z"/><rect width="90" height="10" x="110" y="100" fill="#c9a227" opacity=".9" rx="2"/><rect width="210" height="6" x="110" y="145" fill="#1a3055" opacity=".3" rx="1"/><rect width="180" height="6" x="110" y="161" fill="#1a3055" opacity=".25" rx="1"/><rect width="155" height="6" x="110" y="177" fill="#1a3055" opacity=".2" rx="1"/><rect width="210" height="8" x="110" y="200" fill="#f0e8d8" rx="1"/><rect width="140" height="8" x="110" y="200" fill="#d4553a" opacity=".7" rx="1"/><rect width="72" height="24" x="110" y="226" fill="#1a3055" rx="2"/><rect width="48" height="5" x="122" y="235" fill="#f5f0e1" opacity=".8" rx="1"/><rect width="255" height="195" x="850" y="75" fill="#f5f0e1" stroke="#1a3055" stroke-width="3.5" rx="2"/><path fill="#d4553a" d="M850 75h255v38H850z"/><rect width="100" height="10" x="872" y="86" fill="#f5f0e1" opacity=".85" rx="2"/><rect width="205" height="6" x="872" y="132" fill="#1a3055" opacity=".28" rx="1"/><rect width="175" height="6" x="872" y="148" fill="#1a3055" opacity=".24" rx="1"/><rect width="190" height="6" x="872" y="164" fill="#1a3055" opacity=".2" rx="1"/><rect width="50" height="50" x="872" y="190" fill="#c9a227" opacity=".85" rx="2"/><rect width="120" height="5" x="934" y="198" fill="#1a3055" opacity=".25" rx="1"/><rect width="100" height="5" x="934" y="212" fill="#1a3055" opacity=".22" rx="1"/><rect width="80" height="5" x="934" y="226" fill="#1a3055" opacity=".18" rx="1"/><rect width="240" height="160" x="105" y="370" fill="#f5f0e1" stroke="#1a3055" stroke-width="3.5" rx="2"/><path fill="#c9a227" d="M105 370h240v32H105z"/><rect width="85" height="9" x="125" y="379" fill="#1a3055" opacity=".8" rx="2"/><rect width="195" height="6" x="125" y="420" fill="#1a3055" opacity=".28" rx="1"/><rect width="165" height="6" x="125" y="436" fill="#1a3055" opacity=".24" rx="1"/><rect width="195" height="7" x="125" y="462" fill="#f0e8d8" rx="1"/><rect width="120" height="7" x="125" y="462" fill="#2a5a8c" opacity=".75" rx="1"/><rect width="195" height="7" x="125" y="479" fill="#f0e8d8" rx="1"/><rect width="85" height="7" x="125" y="479" fill="#d4553a" opacity=".65" rx="1"/><rect width="65" height="20" x="125" y="500" fill="#d4553a" rx="2"/><rect width="43" height="5" x="136" y="507" fill="#f5f0e1" opacity=".8" rx="1"/><rect width="270" height="180" x="835" y="350" fill="#f5f0e1" stroke="#1a3055" stroke-width="3.5" rx="2"/><path fill="#2a5a8c" d="M835 350h270v36H835z"/><rect width="95" height="10" x="858" y="360" fill="#f5f0e1" opacity=".8" rx="2"/><rect width="220" height="6" x="858" y="406" fill="#1a3055" opacity=".28" rx="1"/><rect width="190" height="6" x="858" y="422" fill="#1a3055" opacity=".24" rx="1"/><rect width="160" height="6" x="858" y="438" fill="#1a3055" opacity=".2" rx="1"/><rect width="55" height="30" x="858" y="462" fill="#d4553a" opacity=".8" rx="2"/><rect width="55" height="30" x="922" y="462" fill="#c9a227" opacity=".8" rx="2"/><rect width="55" height="30" x="986" y="462" fill="#1a3055" opacity=".8" rx="2"/><rect width="180" height="5" x="858" y="508" fill="#1a3055" opacity=".18" rx="1"/><rect width="170" height="110" x="420" y="100" fill="#f5f0e1" stroke="#1a3055" stroke-width="3" rx="2"/><path fill="#1a3055" d="M420 100h170v28H420z"/><rect width="70" height="8" x="438" y="108" fill="#c9a227" opacity=".85" rx="2"/><rect width="130" height="5" x="438" y="145" fill="#1a3055" opacity=".25" rx="1"/><rect width="105" height="5" x="438" y="160" fill="#1a3055" opacity=".22" rx="1"/><rect width="60" height="18" x="438" y="180" fill="#d4553a" rx="2"/><rect width="40" height="5" x="448" y="186" fill="#f5f0e1" opacity=".8" rx="1"/><rect width="45" height="45" x="80" y="560" fill="none" stroke="#d4553a" stroke-width="2" opacity=".4" rx="2"/><text x="102" y="590" fill="#d4553a" font-family="serif" font-size="22" opacity=".35" text-anchor="middle">印</text><text x="600" y="300" fill="#1a3055" font-family="system-ui, -apple-system, sans-serif" font-size="68" font-weight="bold" letter-spacing="8" text-anchor="middle">UKIYO-E DIGITAL</text><text x="600" y="340" fill="#d4553a" font-family="serif" font-size="16" letter-spacing="5" opacity=".65" text-anchor="middle">WOODBLOCK PRINTS REIMAGINED</text></svg>