<svg xmlns="http://www.w3.org/2000/svg" width="1200" height="630" fill="none" viewBox="0 0 1200 630"><defs><linearGradient id="a" x1="0" x2="0" y1="0" y2="630" gradientUnits="userSpaceOnUse"><stop offset="0%" stop-color="#1a0533"/><stop offset="40%" stop-color="#4a1942"/><stop offset="70%" stop-color="#ff71ce"/><stop offset="100%" stop-color="#01cdfe"/></linearGradient><linearGradient id="b" x1="600" x2="600" y1="280" y2="480" gradientUnits="userSpaceOnUse"><stop offset="0%" stop-color="#ff71ce"/><stop offset="50%" stop-color="#ff9de6"/><stop offset="100%" stop-color="#01cdfe"/></linearGradient><filter id="c" width="200%" height="200%" x="-50%" y="-50%"><feGaussianBlur result="blur" stdDeviation="8"/><feMerge><feMergeNode in="blur"/><feMergeNode in="blur"/><feMergeNode in="SourceGraphic"/></feMerge></filter></defs><path fill="url(#a)" d="M0 0h1200v630H0z"/><g stroke="#ff71ce" opacity=".6"><path d="M0 400h1200M0 440h1200M0 480h1200M0 520h1200M0 560h1200M0 600h1200M600 380v250M400 380 200 630M800 380l200 250M500 380 400 630M700 380l100 250M300 380 0 630M900 380l300 250"/></g><circle cx="600" cy="380" r="120" fill="url(#b)" filter="url(#c)"/><path fill="#1a0533" d="M480 340h240v8H480zM480 360h240v6H480zM480 380h240v5H480zM480 400h240v4H480z" opacity=".3"/><text x="600" y="180" fill="#ff71ce" filter="url(#c)" font-family="system-ui, -apple-system, sans-serif" font-size="80" font-weight="700" text-anchor="middle">VAPORWAVE</text><text x="600" y="230" fill="#01cdfe" filter="url(#c)" font-family="system-ui, -apple-system, sans-serif" font-size="32" text-anchor="middle">アエステティック</text><text x="100" y="100" fill="#ff71ce" font-family="system-ui" font-size="48" opacity=".5">永</text><text x="1050" y="100" fill="#01cdfe" font-family="system-ui" font-size="48" opacity=".5">遠</text></svg>