<svg xmlns="http://www.w3.org/2000/svg" viewBox="0 0 1200 630" width="1200" height="630">
  <defs>
    <linearGradient id="bgGrad" x1="0%" y1="0%" x2="100%" y2="100%">
      <stop offset="0%" style="stop-color:#0a0014"/>
      <stop offset="100%" style="stop-color:#1a0a2e"/>
    </linearGradient>
    <pattern id="hScanlines" x="0" y="0" width="1200" height="4" patternUnits="userSpaceOnUse">
      <rect width="1200" height="2" fill="rgba(0,0,0,0.28)"/>
      <rect y="2" width="1200" height="2" fill="transparent"/>
    </pattern>
  </defs>

  <rect width="1200" height="630" fill="url(#bgGrad)"/>
  <rect width="1200" height="630" fill="url(#hScanlines)" opacity="0.7"/>

  <rect x="0" y="0" width="3" height="630" fill="#ff00ff" opacity="0.6"/>
  <rect x="1197" y="0" width="3" height="630" fill="#00ffff" opacity="0.6"/>
  <rect x="0" y="0" width="1200" height="8" fill="rgba(255,0,255,0.15)"/>
  <rect x="0" y="622" width="1200" height="8" fill="rgba(0,255,255,0.15)"/>

  <rect x="20" y="20" width="1160" height="590" fill="none" stroke="#ff00ff" stroke-width="1.5" opacity="0.4"/>
  <rect x="24" y="24" width="1152" height="582" fill="none" stroke="#00ffff" stroke-width="0.5" opacity="0.25"/>

  <path d="M 20 60 L 20 20 L 60 20" fill="none" stroke="#ff00ff" stroke-width="3" opacity="0.9"/>
  <path d="M 23 63 L 23 23 L 63 23" fill="none" stroke="#00ffff" stroke-width="1.5" opacity="0.6"/>
  <path d="M 1140 20 L 1180 20 L 1180 60" fill="none" stroke="#ff00ff" stroke-width="3" opacity="0.9"/>
  <path d="M 1137 23 L 1177 23 L 1177 63" fill="none" stroke="#00ffff" stroke-width="1.5" opacity="0.6"/>
  <path d="M 20 570 L 20 610 L 60 610" fill="none" stroke="#ff00ff" stroke-width="3" opacity="0.9"/>
  <path d="M 23 567 L 23 607 L 63 607" fill="none" stroke="#00ffff" stroke-width="1.5" opacity="0.6"/>
  <path d="M 1140 610 L 1180 610 L 1180 570" fill="none" stroke="#ff00ff" stroke-width="3" opacity="0.9"/>
  <path d="M 1137 607 L 1177 607 L 1177 567" fill="none" stroke="#00ffff" stroke-width="1.5" opacity="0.6"/>

  <circle cx="55" cy="52" r="7" fill="#ef4444" opacity="0.95"/>
  <circle cx="55" cy="52" r="11" fill="none" stroke="#ef4444" stroke-width="1" opacity="0.4"/>
  <text x="70" y="57" font-family="'Courier New', monospace" font-size="14" font-weight="700" fill="#ef4444" letter-spacing="3" opacity="0.95">REC</text>
  <rect x="100" y="48" width="30" height="1.5" fill="#ef4444" opacity="0.6"/>

  <text x="1140" y="57" font-family="'Courier New', monospace" font-size="13" font-weight="700" fill="#ffff00" letter-spacing="2" text-anchor="end" opacity="0.9">1989.08.24  23:42:16</text>

  <text x="598" y="305" font-family="'Courier New', monospace" font-size="110" font-weight="900" fill="#ff00ff" text-anchor="middle" letter-spacing="-2" opacity="0.5" transform="translate(-5,0)">VHS</text>
  <text x="598" y="305" font-family="'Courier New', monospace" font-size="110" font-weight="900" fill="#00ffff" text-anchor="middle" letter-spacing="-2" opacity="0.5" transform="translate(5,0)">VHS</text>
  <text x="600" y="305" font-family="'Courier New', monospace" font-size="110" font-weight="900" fill="white" text-anchor="middle" letter-spacing="-2" opacity="0.95">VHS</text>

  <text x="602" y="365" font-family="'Courier New', monospace" font-size="38" font-weight="700" fill="#ff00ff" text-anchor="middle" letter-spacing="12" opacity="0.45" transform="translate(-3,0)">AESTHETIC</text>
  <text x="602" y="365" font-family="'Courier New', monospace" font-size="38" font-weight="700" fill="#00ffff" text-anchor="middle" letter-spacing="12" opacity="0.45" transform="translate(3,0)">AESTHETIC</text>
  <text x="600" y="365" font-family="'Courier New', monospace" font-size="38" font-weight="700" fill="white" text-anchor="middle" letter-spacing="12" opacity="0.9">AESTHETIC</text>

  <rect x="0" y="395" width="1200" height="3" fill="rgba(255,255,255,0.12)"/>

  <text x="600" y="440" font-family="'Courier New', monospace" font-size="16" fill="#00ffff" text-anchor="middle" letter-spacing="6" opacity="0.7">PRESS PLAY TO START</text>

  <rect x="490" y="470" width="220" height="110" rx="8" fill="rgba(26,10,46,0.9)" stroke="#ff00ff" stroke-width="1.5" opacity="0.8"/>
  <circle cx="540" cy="520" r="24" fill="none" stroke="#ff00ff" stroke-width="1.5" opacity="0.7"/>
  <circle cx="540" cy="520" r="10" fill="rgba(255,0,255,0.2)" stroke="#ff00ff" stroke-width="1" opacity="0.7"/>
  <circle cx="660" cy="520" r="24" fill="none" stroke="#ff00ff" stroke-width="1.5" opacity="0.7"/>
  <circle cx="660" cy="520" r="10" fill="rgba(255,0,255,0.2)" stroke="#ff00ff" stroke-width="1" opacity="0.7"/>
  <rect x="556" y="492" width="88" height="56" rx="4" fill="rgba(0,0,0,0.8)" stroke="#00ffff" stroke-width="0.8" opacity="0.6"/>
  <text x="600" y="512" font-family="'Courier New', monospace" font-size="7" fill="#ffff00" text-anchor="middle" letter-spacing="2" opacity="0.8">STYLEKIT</text>
  <text x="600" y="524" font-family="'Courier New', monospace" font-size="9" font-weight="700" fill="white" text-anchor="middle" letter-spacing="1" opacity="0.9">VHS-001</text>
  <text x="600" y="538" font-family="'Courier New', monospace" font-size="7" fill="#00ffff" text-anchor="middle" letter-spacing="1" opacity="0.7">60 MIN</text>

  <rect x="1090" y="200" width="60" height="200" fill="none" stroke="#ff00ff" stroke-width="0.5" opacity="0.3"/>
  <rect x="1090" y="200" width="60" height="29" fill="white" opacity="0.8"/>
  <rect x="1090" y="229" width="60" height="29" fill="#ffff00" opacity="0.8"/>
  <rect x="1090" y="258" width="60" height="28" fill="#00ffff" opacity="0.8"/>
  <rect x="1090" y="286" width="60" height="28" fill="#00ff00" opacity="0.8"/>
  <rect x="1090" y="314" width="60" height="28" fill="#ff00ff" opacity="0.8"/>
  <rect x="1090" y="342" width="60" height="29" fill="#0000ff" opacity="0.8"/>
  <rect x="1090" y="371" width="60" height="29" fill="#ff0000" opacity="0.8"/>
  <text x="1120" y="415" font-family="'Courier New', monospace" font-size="8" fill="#00ffff" text-anchor="middle" letter-spacing="1" opacity="0.6">COLOR BARS</text>

  <rect x="50" y="200" width="18" height="200" fill="rgba(0,0,0,0.5)" stroke="#00ffff" stroke-width="0.5" opacity="0.5"/>
  <rect x="50" y="310" width="18" height="90" fill="#00ff00" opacity="0.7"/>
  <rect x="50" y="270" width="18" height="40" fill="#ffff00" opacity="0.7"/>
  <rect x="50" y="240" width="18" height="30" fill="#ff0000" opacity="0.7"/>

  <rect x="150" y="235" width="320" height="2" fill="rgba(255,0,255,0.3)" opacity="0.8"/>
  <rect x="730" y="148" width="200" height="1.5" fill="rgba(0,255,255,0.4)" opacity="0.8"/>

  <rect x="20" y="590" width="1160" height="20" fill="rgba(255,0,255,0.08)"/>
  <text x="40" y="604" font-family="'Courier New', monospace" font-size="10" fill="#ff00ff" letter-spacing="2" opacity="0.7">&#9654;&#9654; PLAY</text>
  <text x="200" y="604" font-family="'Courier New', monospace" font-size="10" fill="#00ffff" letter-spacing="2" opacity="0.7">TRACKING: ADJUSTED</text>
  <text x="1160" y="604" font-family="'Courier New', monospace" font-size="10" fill="#ffff00" letter-spacing="2" text-anchor="end" opacity="0.7">SP / HI-FI</text>
</svg>
