<svg xmlns="http://www.w3.org/2000/svg" width="1200" height="630" fill="none" viewBox="0 0 1200 630"><defs><linearGradient id="a" x1="0" x2="1200" y1="0" y2="630" gradientUnits="userSpaceOnUse"><stop offset="0%" stop-color="#ffe4f3"/><stop offset="50%" stop-color="#e0f4ff"/><stop offset="100%" stop-color="#f0e6ff"/></linearGradient><linearGradient id="c" x1="0" x2="0" y1="0" y2="1" gradientUnits="objectBoundingBox"><stop offset="0%" stop-color="#fff"/><stop offset="30%" stop-color="#e8e8e8"/><stop offset="50%" stop-color="#fff"/><stop offset="70%" stop-color="#d0d0d0"/><stop offset="100%" stop-color="#fff"/></linearGradient><linearGradient id="d" x1="0" x2="1" y1="0" y2="0" gradientUnits="objectBoundingBox"><stop offset="0%" stop-color="#ff69b4"/><stop offset="25%" stop-color="#0ff"/><stop offset="50%" stop-color="#f0f"/><stop offset="75%" stop-color="#87ceeb"/><stop offset="100%" stop-color="#ff69b4"/></linearGradient><radialGradient id="b" cx="30%" cy="30%" r="70%"><stop offset="0%" stop-color="#fff" stop-opacity=".9"/><stop offset="100%" stop-color="#fff" stop-opacity="0"/></radialGradient></defs><path fill="url(#a)" d="M0 0h1200v630H0z"/><circle cx="150" cy="150" r="60" fill="url(#b)" opacity=".6"/><circle cx="1050" cy="200" r="80" fill="url(#b)" opacity=".5"/><circle cx="200" cy="450" r="40" fill="url(#b)" opacity=".4"/><circle cx="1000" cy="500" r="50" fill="url(#b)" opacity=".5"/><circle cx="900" cy="120" r="35" fill="url(#b)" opacity=".4"/><rect width="600" height="300" x="300" y="180" fill="url(#c)" stroke="url(#d)" stroke-width="4" rx="40"/><circle cx="450" cy="280" r="50" fill="#ff69b4" opacity=".3"/><circle cx="750" cy="280" r="50" fill="#0ff" opacity=".3"/><circle cx="600" cy="380" r="40" fill="#f0f" opacity=".3"/><path fill="#ff69b4" d="m380 208 3 9 9 3-9 3-3 9-3-9-9-3 9-3Z"/><path fill="#0ff" d="m800 208 3 9 9 3-9 3-3 9-3-9-9-3 9-3Z"/><path fill="#f0f" d="m590 439.8 2.55 7.65 7.65 2.55-7.65 2.55-2.55 7.65-2.55-7.65-7.65-2.55 7.65-2.55Z"/><text x="600" y="100" fill="url(#d)" font-family="system-ui, -apple-system, sans-serif" font-size="72" font-weight="700" text-anchor="middle">Y2K</text><text x="600" y="560" fill="#ff69b4" font-family="system-ui, -apple-system, sans-serif" font-size="36" font-weight="600" text-anchor="middle">The Future is Shiny</text><text x="600" y="600" fill="#87ceeb" font-family="system-ui, -apple-system, sans-serif" font-size="24" text-anchor="middle">Millennium Aesthetic</text></svg>