<svg xmlns="http://www.w3.org/2000/svg" width="1200" height="630" fill="none" viewBox="0 0 1200 630"><path fill="#f5f3ee" d="M0 0h1200v630H0z"/><g opacity=".08"><line x1="100" y1="380" x2="1100" y2="380" stroke="#7a7062" stroke-width=".5"/><line x1="100" y1="385" x2="1100" y2="385" stroke="#7a7062" stroke-width=".5"/><line x1="100" y1="390" x2="1100" y2="390" stroke="#7a7062" stroke-width=".5"/><line x1="100" y1="395" x2="1100" y2="395" stroke="#7a7062" stroke-width=".5"/><line x1="100" y1="400" x2="1100" y2="400" stroke="#7a7062" stroke-width=".5"/><line x1="100" y1="405" x2="1100" y2="405" stroke="#7a7062" stroke-width=".5"/><line x1="100" y1="410" x2="1100" y2="410" stroke="#7a7062" stroke-width=".5"/><line x1="100" y1="415" x2="1100" y2="415" stroke="#7a7062" stroke-width=".5"/></g><circle cx="400" cy="320" r="35" fill="#7a7062" opacity=".12"/><circle cx="430" cy="310" r="20" fill="#7a7062" opacity=".08"/><circle cx="750" cy="330" r="45" fill="#4a5548" opacity=".1"/><circle cx="780" cy="350" r="15" fill="#4a5548" opacity=".06"/><circle cx="550" cy="360" r="8" fill="#8a9a7b" opacity=".15"/><rect x="200" y="440" width="800" height="1" fill="#c4bba8" opacity=".3"/><text x="600" y="200" fill="#4a5548" font-family="Georgia, 'SimSun', serif" font-size="68" font-weight="300" text-anchor="middle" opacity=".8">枯山水</text><text x="600" y="250" fill="#8a9a7b" font-family="Georgia, serif" font-size="18" letter-spacing=".35em" text-anchor="middle" opacity=".45">ZEN GARDEN</text><text x="600" y="530" fill="#c4bba8" font-family="Georgia, serif" font-size="12" font-style="italic" letter-spacing=".2em" text-anchor="middle" opacity=".4">Stillness within form</text></svg>